<svg id="Layer_1" data-name="Layer 1" xmlns="http://www.w3.org/2000/svg" viewBox="0 0 1446.79 3322.71"><defs><style>.cls-1{opacity:0.2;}.cls-2{fill:#390075;}.cls-3{fill:#fff;}.cls-4{opacity:0.3;}.cls-5{fill:#ee5c5c;}.cls-6{fill:#e11f27;}.cls-7{fill:#36c979;}.cls-8{fill:#ffce00;}.cls-9{fill:#ffdf91;}.cls-10{fill:#fd8699;}.cls-11{fill:#ff7898;}.cls-12{fill:#6b184e;}.cls-13{opacity:0.35;}.cls-14{fill:#ffdbab;}.cls-15{opacity:0.5;}.cls-16{fill:#000072;}</style></defs><g class="cls-1"><ellipse class="cls-2" cx="763.04" cy="3252.71" rx="683.75" ry="70"/></g><path class="cls-3" d="M2480.9,2754.41s136.52-26.15,149.84-236.12c13-205.37-129.24-238.56-206.86-203.34-83.74,38-104.3,139.07-87.61,226.68S2480.9,2754.41,2480.9,2754.41Z" transform="translate(-1283.21 -394.79)"/><g class="cls-4"><path class="cls-2" d="M2602.23,2508.79c-13.35,209.95-149.86,236.12-149.86,236.12s-127.93-125.17-144.64-212.8c-7.89-41.47-7.45-86,4.13-125.37,6.45,20.24,17.64,41.84,31,63,66.66,105.93,228.54,75.32,252.45-47.54.31-1.61.62-3.24.92-4.88C2602.11,2443.08,2604.47,2473.37,2602.23,2508.79Z" transform="translate(-1283.21 -394.79)"/></g><path class="cls-2" d="M2476,2770.84l-5.69-5.56c-5.36-5.25-131.55-129.55-148.94-220.8-16.14-84.79-.62-199.41,96.28-243.38,49-22.26,109.22-17,153.29,13.43,38.47,26.55,82.71,83.62,75,204.73-13.91,219.2-156.12,248.92-162.16,250.08Zm6.41-452.76c-19.36,0-37.63,4.11-52.19,10.72-80.82,36.68-93.05,136-79,210,13.58,71.35,109.08,172.87,134.26,198.63,27.41-8.88,119.37-51.12,130.09-220.09,6.79-106.91-29.94-155.68-61.94-177.77C2531.42,2324.25,2506.07,2318.08,2482.36,2318.08Z" transform="translate(-1283.21 -394.79)"/><path class="cls-3" d="M2573.77,3005.72c-3.85,16.86-31.74,110.54-57.5,165.11-32.13,68.08-59.38,138.36-79.85,210.84L2427,3415c-11.7,41.39-5.29,85.14,14.79,123.16,6.09,11.5,9.53,26.21,6.65,44.6-5.81,37-79,37.06-79.34,37.06h-4.32c-1.65,0-3.29,0-4.89-.08-85.35-2.88-149-80.86-133.91-165.68l34.7-194.37-11.18,6.09a273.86,273.86,0,0,1-39.34,17.67,277.62,277.62,0,0,1-237.36-23.76l34.73,194.37c15.43,86.43-51,165.76-138.79,165.76h-4.33c-.32,0-73.52,0-79.33-37.06-3-19.23.88-34.46,7.53-46.24A157,157,0,0,0,1807,3416.77c-11.94-42.31-25.29-84.3-40.27-125.61q-18.21-50.13-39.75-98.89c-3.4-7.73-6.93-15.43-10.5-23.08-68.15-146.12-63.78-300.67-36.14-430.28l562.47-427.24s223,80.53,303,265C2641.32,2797.16,2582.94,2965.73,2573.77,3005.72Z" transform="translate(-1283.21 -394.79)"/><g class="cls-1"><path class="cls-2" d="M2481.24,2750.62c-183.49,20.65-207.2-154.13-225.37-203.35-12-32.63-36.13-64-61.37-83.66,2.3-8.24,5.69-20.51,9.92-36.36q1.57-5.84,3.3-12.35c1.06-4,2.11-7.93,3.21-11.92,3.22-12,6.47-24.49,10.19-38.86,31.71,21.63,67.74,51.58,77.79,65.73,90.83,128,96.79,219.53,193.08,204.13,32.54-5.2,50.16-18.76,58.37-43.84,1.2,4.66,2.25,9.23,3.22,13.75.87,4.21,2.09,8.32,2.38,12.45C2559.94,2672.22,2548.48,2743.05,2481.24,2750.62Z" transform="translate(-1283.21 -394.79)"/></g><path class="cls-2" d="M2207.46,2464.67a15.13,15.13,0,0,1-9.48-3.33c-65.67-52.43-140.31-71.88-141.06-72.07a15.21,15.21,0,0,1,7.47-29.48c3.3.83,81.58,21.09,152.57,77.78a15.21,15.21,0,0,1-9.5,27.1Z" transform="translate(-1283.21 -394.79)"/><g class="cls-4"><path class="cls-2" d="M2007.53,3454.07c15.43,86.43-51,165.76-138.79,165.76h-4.33c-.32,0-73.52,0-79.33-37.06-3-19.23.88-34.46,7.53-46.24A157,157,0,0,0,1807,3416.77c-11.94-42.31-25.29-84.3-40.27-125.61q-18.21-50.13-39.75-98.89l256.51,28.45,48.36,65.83a274.35,274.35,0,0,1-59-26.85Z" transform="translate(-1283.21 -394.79)"/></g><path class="cls-2" d="M2369.13,3635.05h-4.37A156.2,156.2,0,0,1,2211,3451.4l29.27-163.9a293.82,293.82,0,0,1-247,.28l29.22,163.62a156.2,156.2,0,0,1-153.76,183.65h-4.36c-9,0-86.7-1.43-94.32-49.91-3.22-20.54-.09-39.41,9.3-56.06a140.81,140.81,0,0,0,13-108.17c-25.54-90.37-54.89-170.6-89.7-245.28-59.67-128-72.19-276-37.22-439.91a15.21,15.21,0,0,1,29.75,6.35c-33.56,157.32-21.77,298.87,35,420.71,35.51,76.17,65.41,157.9,91.39,249.86a171,171,0,0,1-15.8,131.38c-5.94,10.54-7.87,22.79-5.74,36.4,2.83,18,45.35,24.17,64.31,24.21h4.32a125.77,125.77,0,0,0,123.82-147.88l-40.63-227.48,28.76,17.41a263,263,0,0,0,261.53,5.78l39-21.34L2241,3456.75a125.77,125.77,0,0,0,123.8,147.88h4.35c18.95,0,61.47-6.19,64.29-24.21,2-13.08.35-24.9-5.06-35.15-22.67-42.93-28.35-90.65-16-134.39l9.43-33.36c19.69-69.68,46.86-141.4,80.73-213.17,25.39-53.77,52.68-145.65,56.44-162,.81-3.5,2-7.93,3.36-13.27,15-57.23,54.89-209.26-30.51-406.34-76.32-176.11-292-256-294.17-256.76a15.2,15.2,0,0,1,10.33-28.6c9.36,3.37,230.14,84.93,311.75,273.27,89.58,206.72,46.26,371.87,32,426.14-1.31,5-2.39,9.11-3.14,12.37-3.91,17-32.24,112.41-58.58,168.21-33.16,70.25-59.73,140.38-79,208.45l-9.43,33.36c-10.22,36.18-5.39,75.93,13.62,111.91,8.54,16.19,11.3,34.38,8.21,54.08C2455.84,3633.62,2378.11,3635.05,2369.13,3635.05Z" transform="translate(-1283.21 -394.79)"/><path class="cls-5" d="M2455.09,2716.31c-118.8,16.55-143.24-139.68-186.8-202.58-17.55-25.41-38.78-46.64-60.82-64.27,5.69-21,19-71.12,36.1-141.16,29.25,12.1,160.75,70.64,248.5,180.39C2546.36,2610.41,2537.47,2704.85,2455.09,2716.31Z" transform="translate(-1283.21 -394.79)"/><path class="cls-2" d="M2438.16,2719.89c-77.26,0-111.73-78-139.81-141.56-10.67-24.18-20.76-47-32-63.25-15.87-23-36.17-44.42-60.35-63.77l-1.22-1,.41-1.5c6.31-23.32,19.4-72.65,36.08-141.1l.66-2.69,2.56,1.06c26.12,10.8,160.86,70.3,249.45,181.09l.31.52c36.81,82.54,44.5,150.68,21.64,191.89-12.23,22-32.57,35.17-60.47,39h0A125.24,125.24,0,0,1,2438.16,2719.89Zm-228-271.31c24,19.38,44.21,40.84,60.08,63.8,11.5,16.61,21.68,39.64,32.45,64,31,70.09,66.08,149.52,152.06,137.54h0c26.34-3.66,45.5-16,57-36.64,21.78-39.25,13.87-107.53-21.7-187.38-85.28-106.51-213.64-165.21-244.8-178.36C2229.19,2377.24,2216.55,2425,2210.17,2448.58Z" transform="translate(-1283.21 -394.79)"/><path class="cls-6" d="M2455.09,2716.31c-118.8,16.55-143.24-139.68-186.8-202.58-17.55-25.41-38.78-46.64-60.82-64.27,2-7.37,5-18.35,8.66-32.54q1.38-5.22,2.88-11.05c.92-3.53,1.84-7.1,2.8-10.66,2.81-10.78,5.65-21.92,8.9-34.78,27.69,19.35,59.14,46.16,67.91,58.82,79.3,114.55,84.51,196.45,168.57,182.67,28.41-4.65,43.79-16.79,51-39.23,1,4.17,2,8.25,2.81,12.3.76,3.77,1.48,7.49,2.08,11.14C2535.06,2658.09,2513.63,2708.17,2455.09,2716.31Z" transform="translate(-1283.21 -394.79)"/><path class="cls-7" d="M2523,2586.13c-2.36,42.11-16.75,62.66-55.85,69.08-84.06,13.78-89.27-68.12-168.57-182.67-10-14.51-49.76-47.52-79.61-66.67,5.49-20.88,10.82-41.63,18.39-72.25,1.88-7.73,3.93-16.14,6.17-25.32,7.13,3,20.32,8.66,37.5,17.23,14.95,7.41,32.9,17,52.49,28.73,42.43,25.56,92.52,61.46,135.79,108.18,6.93,7.41,13.66,15.11,20.08,23,.92,1.08,1.8,2.12,2.64,3.21q4.08,9.2,7.73,18.15C2511.22,2535.24,2519,2561.93,2523,2586.13Z" transform="translate(-1283.21 -394.79)"/><path class="cls-8" d="M2523,2586.13c-2.36,42.11-16.75,62.66-55.85,69.08-84.06,13.78-89.27-68.12-168.57-182.67-10-14.51-49.76-47.52-79.61-66.67.92-3.53,1.84-7.1,2.8-10.66,2.81-10.78,5.65-21.92,8.9-34.78,27.69,19.35,59.14,46.16,67.91,58.82,79.3,114.55,84.51,196.45,168.57,182.67,28.41-4.65,43.79-16.79,51-39.23,1,4.17,2,8.25,2.81,12.3C2521.72,2578.76,2522.44,2582.48,2523,2586.13Z" transform="translate(-1283.21 -394.79)"/><path class="cls-6" d="M2499.8,2506.84c-2.08,22.79-13,39.3-33.57,46.51-71.36,25.09-106.66-87.46-141.72-129.13-14.15-16.83-71.4-76.29-87.31-86.87,0-1.12.12-2.36.2-3.73,1.88-7.73,3.93-16.14,6.17-25.32,7.13,3,20.32,8.66,37.5,17.23,14.95,7.41,32.9,17,52.49,28.73,61.71,74.44,75.85,132.46,125.41,113.43a53.26,53.26,0,0,0,10.38-5.25c6.93,7.41,13.66,15.11,20.08,23,.92,1.08,1.8,2.12,2.64,3.21Q2496.15,2497.89,2499.8,2506.84Z" transform="translate(-1283.21 -394.79)"/><path class="cls-9" d="M2259.2,2324.05c-1.16-.72-2.29-1.36-3.33-1.89C2255.91,2321.56,2257.19,2322.41,2259.2,2324.05Z" transform="translate(-1283.21 -394.79)"/><path class="cls-2" d="M2258,2326.07c-1.1-.68-2.16-1.29-3.14-1.78l-1.41-.7.2-3,1.43-.75c1.68-.73,3.26.42,5.67,2.4Z" transform="translate(-1283.21 -394.79)"/><path class="cls-9" d="M2259.2,2324.05a224,224,0,0,1,21.31,15.26c0,.88,0,1.73-.08,2.57C2280.35,2344,2265.89,2329.54,2259.2,2324.05Z" transform="translate(-1283.21 -394.79)"/><path class="cls-2" d="M2280.21,2344.5c-1.75,0-4.29-2.14-13.62-10.69-3.29-3-6.57-6-8.9-7.93l2.73-3.87a223.75,223.75,0,0,1,21.56,15.44l.91.71v1.15c0,.92,0,1.8-.08,2.68l-.07,1.5-1.5.77A2.67,2.67,0,0,1,2280.21,2344.5Z" transform="translate(-1283.21 -394.79)"/><path class="cls-8" d="M2489.43,2485.48c-3.77,10-11.3,16.79-23.6,21.52-50.21,19.27-64-40.55-127.86-116.44-5.73-6.81-34-32.78-57.46-51.25.2-4.4.4-9,.56-13.78,14.95,7.41,32.9,17,52.49,28.73,61.71,74.44,75.85,132.46,125.41,113.43a53.26,53.26,0,0,0,10.38-5.25C2476.28,2469.85,2483,2477.55,2489.43,2485.48Z" transform="translate(-1283.21 -394.79)"/><path class="cls-2" d="M2438,2732.74c-85.44,0-123.24-85.58-151.36-149.23-10.43-23.59-20.28-45.89-30.83-61.13-15.17-22-34.62-42.48-57.82-61.05l-7.79-6.22,2.61-9.63c6.3-23.25,19.36-72.47,36-140.78l4.2-17.23,16.39,6.78c37.4,15.47,166.28,74.53,254.56,184.94l1.22,1.52.79,1.78c38.5,86.31,46,158.53,21.14,203.35-14.09,25.38-38.26,41.13-69.92,45.53A138.55,138.55,0,0,1,2438,2732.74ZM2224.71,2444a315.39,315.39,0,0,1,56.09,61.13c12.2,17.61,22.61,41.18,33.64,66.14,28.5,64.51,57.92,131.07,123.76,131.08a106.25,106.25,0,0,0,14.79-1.06h0c22.44-3.12,38-13,47.51-30.16,19.67-35.45,11.81-98.95-21.53-174.41-73.93-91.62-180.52-146.89-224.93-167.19C2241.29,2381.21,2231,2420.53,2224.71,2444Z" transform="translate(-1283.21 -394.79)"/><path class="cls-2" d="M2369.1,3635h-4.33A156.18,156.18,0,0,1,2211,3451.4l29.26-163.91c-7.29,3.4-14.64,6.47-22,9.17a290.69,290.69,0,0,1-225-8.82l7.57,42.31,21.67,121.25A156.13,156.13,0,0,1,1868.74,3635h-4.33c-8.85,0-86.74-1.4-94.36-49.91-3.21-20.58-.08-39.44,9.32-56.08a140.87,140.87,0,0,0,13-108.15c-11-39.15-23.16-77.37-36-113.59-1.3-3.74-2.6-7.38-3.91-11-15.35-42.25-32.08-82.87-49.71-120.68-59.67-127.95-72.2-275.94-37.23-439.88a15.2,15.2,0,1,1,29.74,6.34c-33.55,157.33-21.76,298.87,35.06,420.68,18,38.62,35.08,80.07,50.75,123.2,1.36,3.79,2.7,7.53,4,11.27,13.07,36.75,25.4,75.62,36.62,115.42A171.09,171.09,0,0,1,1805.86,3544c-5.95,10.55-7.88,22.8-5.76,36.43,2.83,18,45.36,24.17,64.32,24.2h4.32a125.71,125.71,0,0,0,123.82-147.88l-40.63-227.44,28.74,17.39a262.72,262.72,0,0,0,261.57,5.74l39-21.24L2241,3456.74a125.76,125.76,0,0,0,123.82,147.88h4.33c19,0,61.48-6.17,64.31-24.21,2.05-13.08.35-24.9-5.07-35.12-22.67-42.95-28.34-90.68-16-134.42l9.41-33.33c19.67-69.66,46.84-141.38,80.73-213.2,25.12-53.19,52.85-146.3,56.43-162,.81-3.53,2-8,3.38-13.35,15-57.23,54.87-209.26-30.51-406.27-12.66-29.18-30-57.61-51.61-84.52a15.21,15.21,0,1,1,23.73-19c23.28,29,42.05,59.79,55.79,91.45,89.56,206.66,46.26,371.82,32,426.09-1.31,5-2.4,9.14-3.15,12.41-3.85,16.89-32.06,112.05-58.57,168.21-33.18,70.3-59.75,140.44-79,208.47l-9.41,33.34c-10.23,36.19-5.4,75.94,13.6,111.93,8.54,16.15,11.32,34.34,8.22,54.06C2455.85,3633.64,2378,3635,2369.1,3635Z" transform="translate(-1283.21 -394.79)"/><path class="cls-2" d="M2243.57,2323.51a15.06,15.06,0,0,1-5.77-1.14c-3.53-1.45-5.5-2.21-5.59-2.24a15.21,15.21,0,0,1,10.94-28.39s2.19.85,6.2,2.49a15.21,15.21,0,0,1-5.78,29.28Z" transform="translate(-1283.21 -394.79)"/><path class="cls-2" d="M1796.54,3526.77s16.69-17.2,47.54,1.66c12.42,7.6,28.05,6.57,40.24-1.39,10.88-7.1,26.68-12.07,47.7-5.75,36.88,11.08,68,2.29,77.28-30.32,0,0-12,67.22-59.59,101.44-44.87,32.24-121.68,35.59-145,12.49C1766.57,3567,1796.54,3526.77,1796.54,3526.77Z" transform="translate(-1283.21 -394.79)"/><path class="cls-2" d="M2438.39,3526.77s-16.69-17.2-47.53,1.66c-12.43,7.6-28.06,6.57-40.25-1.39-10.87-7.1-26.67-12.07-47.7-5.75-36.88,11.08-68,2.29-77.28-30.32,0,0,12,67.22,59.6,101.44,44.86,32.24,121.67,35.59,144.95,12.49C2468.36,3567,2438.39,3526.77,2438.39,3526.77Z" transform="translate(-1283.21 -394.79)"/><path class="cls-3" d="M1575,843.27s-46.12-94.89-63.14-318.37c-16.62-218.32-206.52-101.12-213.35,147.29C1293,873.91,1484.2,935.33,1484.2,935.33" transform="translate(-1283.21 -394.79)"/><path class="cls-2" d="M1483.48,937.59c-1.93-.62-192.85-64.29-187.31-265.47,4.22-153.91,79.23-262.91,143.91-264.48,41.55-1.13,68.44,41.67,74.18,117.08C1531,745,1576.71,841.29,1577.17,842.23l-4.28,2.08c-.46-.95-46.51-97.86-63.37-319.23-5.46-71.74-30.23-112.71-68-112.71l-1.29,0c-29.9.73-63.51,27.59-89.88,71.85-29.9,50.18-47.44,117-49.4,188-5.43,197.56,182.13,260.2,184,260.81Z" transform="translate(-1283.21 -394.79)"/><path class="cls-2" d="M1484.2,950.54a15.44,15.44,0,0,1-4.65-.73c-2-.65-202-67.35-196.22-278,4.5-163.51,84.52-275.22,156.44-277,23.22-.55,78.3,10.87,87.28,128.93,16.53,217.06,61.23,312,61.67,312.91a15.2,15.2,0,0,1-27.36,13.27c-1.94-4-47.59-100.07-64.64-323.87-4.81-63.26-25.48-100.84-55.34-100.84h-.87c-50.13,1.21-122.6,95.92-126.77,247.38-5.16,187.57,167.77,245.86,175.14,248.25a15.22,15.22,0,0,1-4.68,29.69Z" transform="translate(-1283.21 -394.79)"/><path class="cls-10" d="M1537.17,845.41s-57.77-90.31-67-250.17c-11.7-203.63-135.29-81.21-104.49,129.24,25,170.89,171.45,167.82,171.45,167.82" transform="translate(-1283.21 -394.79)"/><path class="cls-2" d="M1536.94,894.68c-7.32,0-149.06-2.44-173.57-169.86-16.18-110.55,10.26-203.49,45.18-229.46,9.48-7.06,19.13-8.63,27.94-4.52,19.94,9.31,32.76,46.34,36.09,104.26,9.05,157.42,66,248.13,66.59,249l-4,2.56c-.58-.91-58.21-92.67-67.33-251.31-3.18-55.29-15.34-91.82-33.36-100.23-7.21-3.37-15-2-23.09,4-28.55,21.24-60.86,105.08-43.31,225,24.43,166.9,167.65,165.83,169,165.8l.1,4.75Z" transform="translate(-1283.21 -394.79)"/><path class="cls-11" d="M1537.18,845.4v46.92s-48.64,1-94.6-30.82c-33.85-23.44-66.23-64.62-76.85-137-30.73-210,92.2-332.32,104.42-130.58,0,.44,0,.92.08,1.37C1479.4,755.08,1537.18,845.4,1537.18,845.4Z" transform="translate(-1283.21 -394.79)"/><g class="cls-4"><path class="cls-2" d="M1537.18,845.4v46.92s-48.64,1-94.6-30.82a266,266,0,0,1-10.7-45.67c-15.74-107.62,8.86-192.25,38.27-221.94,0,.44,0,.92.08,1.37C1479.4,755.08,1537.18,845.4,1537.18,845.4Z" transform="translate(-1283.21 -394.79)"/></g><path class="cls-2" d="M1537.19,906.56a14.06,14.06,0,0,1-2.65-.25c-1.72-.32-172.69-34.14-191.79-184.63-13.74-108.33,19.16-202.84,58.89-231.62,13.68-9.91,28.37-12,41.36-5.8,24,11.37,37.9,48.43,41.44,110.16,8.87,154.35,64.19,242.44,64.74,243.31a14.26,14.26,0,1,1-24,15.36c-2.44-3.81-59.89-95.31-69.18-257-3.24-56.21-15.6-81.48-25.21-86-1.2-.58-4.86-2.33-12.4,3.13-28.15,20.39-60.26,103-47.33,204.94,16.51,130.13,167.25,159.91,168.76,160.2a14.26,14.26,0,0,1-2.61,28.27Z" transform="translate(-1283.21 -394.79)"/><path class="cls-3" d="M2175,843.27s46.13-94.89,63.14-318.37c16.63-218.32,206.52-101.12,213.36,147.29,5.54,201.72-185.67,263.14-185.67,263.14" transform="translate(-1283.21 -394.79)"/><path class="cls-2" d="M2266.55,937.59l-1.45-4.53c1.89-.61,189.44-63.25,184-260.81-2-71.06-19.5-137.83-49.39-188-26.38-44.26-60-71.12-89.89-71.85l-1.28,0c-37.82,0-62.58,41-68.05,112.71-16.85,221.37-62.9,318.28-63.37,319.23l-4.27-2.08c.45-.94,46.13-97.19,62.91-317.51,5.73-75.41,32.65-118.1,74.18-117.08,64.67,1.57,139.68,110.57,143.91,264.48C2459.39,873.3,2268.48,937,2266.55,937.59Z" transform="translate(-1283.21 -394.79)"/><path class="cls-2" d="M2265.82,950.54a15.21,15.21,0,0,1-4.65-29.69c7.34-2.39,180.27-60.68,175.11-248.25-4.17-151.46-76.64-246.16-126.76-247.38h-.87c-29.87,0-50.54,37.58-55.35,100.84-17,223.8-62.69,319.89-64.63,323.87a15.21,15.21,0,0,1-27.36-13.28c.57-1.2,45.15-96.16,61.66-312.9,9-118.06,64-129.53,87.29-128.93,71.91,1.75,151.93,113.45,156.43,277,5.79,210.69-194.2,277.39-196.21,278A15.46,15.46,0,0,1,2265.82,950.54Z" transform="translate(-1283.21 -394.79)"/><path class="cls-10" d="M2212.85,845.41s57.78-90.31,67-250.17c11.7-203.63,135.29-81.21,104.48,129.24-25,170.89-171.45,167.82-171.45,167.82" transform="translate(-1283.21 -394.79)"/><path class="cls-2" d="M2213.09,894.68h-.28l.09-4.75c1.56,0,144.65.9,169-165.8,17.55-119.88-14.76-203.72-43.31-225-8.11-6-15.89-7.39-23.1-4-18,8.41-30.17,44.94-33.35,100.23-9.12,158.64-66.75,250.4-67.33,251.31l-4-2.56c.58-.9,57.55-91.71,66.59-249,3.33-57.92,16.15-95,36.09-104.26,8.78-4.11,18.45-2.55,27.95,4.52,34.92,26,61.36,118.91,45.17,229.46C2362.14,892.22,2220.42,894.68,2213.09,894.68Z" transform="translate(-1283.21 -394.79)"/><path class="cls-11" d="M2212.84,845.4v46.92s48.65,1,94.6-30.82c33.86-23.44,66.24-64.62,76.85-137,30.74-210-92.19-332.32-104.41-130.58,0,.44,0,.92-.08,1.37C2270.62,755.08,2212.84,845.4,2212.84,845.4Z" transform="translate(-1283.21 -394.79)"/><g class="cls-4"><path class="cls-2" d="M2212.84,845.4v46.92s48.65,1,94.6-30.82a265.09,265.09,0,0,0,10.7-45.67c15.75-107.62-8.85-192.25-38.26-221.94,0,.44,0,.92-.08,1.37C2270.62,755.08,2212.84,845.4,2212.84,845.4Z" transform="translate(-1283.21 -394.79)"/></g><path class="cls-2" d="M2212.84,906.56a14.26,14.26,0,0,1-2.62-28.27c6.2-1.18,152.31-30.46,168.76-160.2,12.94-102-19.18-184.55-47.33-204.94-7.53-5.45-11.19-3.71-12.39-3.13-9.61,4.56-22,29.83-25.21,86-9.29,161.72-66.74,253.22-69.18,257a14.26,14.26,0,0,1-24-15.34h0c.56-.88,55.92-89.6,64.75-243.33,3.55-61.73,17.49-98.79,41.45-110.16,13-6.17,27.67-4.11,41.35,5.8,39.74,28.78,72.63,123.29,58.89,231.62C2388.18,872.17,2217.21,906,2215.49,906.31A14.06,14.06,0,0,1,2212.84,906.56Z" transform="translate(-1283.21 -394.79)"/><g class="cls-4"><path class="cls-2" d="M2359.89,3619.75c-85.35-2.88-149-80.86-133.91-165.68l34.7-194.37-11.18,6.09a273.86,273.86,0,0,1-39.34,17.67c29.56-64.1,78.69-178.58,87.54-250.18,0,0-6.44,139.19,134.91,33.38,0,0-75.69,166.2-108.58,246.85-36.42,89.27-64.31,131.07-45.92,204.55C2294.06,3581.89,2326.87,3603.68,2359.89,3619.75Z" transform="translate(-1283.21 -394.79)"/></g><path class="cls-3" d="M2204.47,2460.4l94.43,570.72c-8,57.1-24,114.83-51,171.25-33.82,70.72-60.5,144.6-81.82,220.05l-5.85,20.67c-11.7,41.39-5.25,85.15,14.83,123.17a67.37,67.37,0,0,1,7.53,35.7,80.06,80.06,0,0,1-.92,8.9c-5.81,37-79,37.06-79.3,37.06H2098c-87.75,0-154.22-79.34-138.76-165.76l34.7-194.37-13.7,3.61a510.11,510.11,0,0,1-253.75,1.88c-6.85-1.68-13.66-3.49-20.43-5.49l3.8,21.32,30.89,173c15.43,86.42-51,165.76-138.79,165.76h-4.33c-.32,0-73.48,0-79.29-37.06-1.92-12.35-1-23,1.6-32.14a64.33,64.33,0,0,1,5-12.46c20.07-38,26.49-81.78,14.83-123.17l-2.25-7.89c-23.64-83.62-54.81-164.8-90.63-244-65.19-144.32-60.58-296.42-33.34-424.24,54.65-256,59.38-520.11,9.22-777.06-61.1-312.85-113.47-706.11-50.69-930.41,1.16-4.17,2.33-8.26,3.57-12.3,34.22-114.88,98.12-203,177.82-264.25a117,117,0,0,1-4.41-32c0-66,54-119.44,120.76-119.44a121,121,0,0,1,73.49,24.64c21.27-41.83,69.2-71,124.93-71s103.65,29.17,124.93,71a120.93,120.93,0,0,1,73.48-24.64c66.68,0,120.73,53.45,120.73,119.44a117.38,117.38,0,0,1-4.41,32c79.69,61.31,143.56,149.37,177.82,264.25,1.2,4,2.36,8.13,3.52,12.3C2480.09,1472.93,2204.47,2460.4,2204.47,2460.4Z" transform="translate(-1283.21 -394.79)"/><g class="cls-4"><path class="cls-2" d="M1601.93,3647.92h-4.33c-.32,0-73.48,0-79.29-37.06-1.92-12.35-1-23,1.6-32.14,43.76,45.16,131.26,27.09,157.95-19.59,29.37-51.45,16.23-147.33-32.46-219.89s-71.08-179.18-71.08-179.18-2.44-16.51,26,39.5c21.43,42.19,92.35,78.41,126.09,93.72-6.85-1.68-13.66-3.49-20.43-5.49l3.8,21.32,30.89,173C1756.15,3568.58,1689.72,3647.92,1601.93,3647.92Z" transform="translate(-1283.21 -394.79)"/></g><g class="cls-4"><path class="cls-2" d="M2182.55,3602a80.06,80.06,0,0,1-.92,8.9c-5.81,37-79,37.06-79.3,37.06H2098c-87.75,0-154.22-79.34-138.76-165.76l34.7-194.37-13.7,3.61a510.48,510.48,0,0,1-274.18-3.61s-119-51.73-150.68-208.11a466,466,0,0,1-7.57-54c-1.84-22.51,24.28-36.32,41.79-22,36.92,30.08,99.25,66.33,192.38,76.49,124.09,13.58,215.64-16.28,271.73-52.39,19.22-12.37,43.76,4.95,38.84,27.27-23.61,107-77.94,309.57-92.35,369.71C1980.06,3508.65,2041,3639.94,2182.55,3602Z" transform="translate(-1283.21 -394.79)"/></g><path class="cls-12" d="M1529.5,3556.94s16.69-17.21,47.54,1.66c12.42,7.6,28,6.57,40.24-1.39,10.88-7.11,26.68-12.07,47.7-5.75,36.88,11.08,68,2.28,77.28-30.33,0,0-12,67.22-59.59,101.44-44.87,32.24-121.68,35.6-145,12.49C1499.53,3597.16,1529.5,3556.94,1529.5,3556.94Z" transform="translate(-1283.21 -394.79)"/><path class="cls-2" d="M1590.92,3652.37c-23.92,0-44.58-5.4-54.88-15.62-39.19-38.9-8.76-80.81-8.44-81.23l.2-.24c.73-.75,18.39-18.35,50.48,1.29,11.35,6.94,25.8,6.42,37.7-1.35,14.6-9.54,31.31-11.57,49.69-6,21.53,6.47,40.12,5.94,53.77-1.55,10.1-5.53,17-14.66,20.54-27.15l4.62,1.07c-.12.68-12.7,68.57-60.55,102.95C1657.63,3643.49,1621.59,3652.37,1590.92,3652.37Zm-59.61-93.87c-2.14,2.95-27.41,39.65,8.08,74.88,21.8,21.64,97.36,19.26,141.89-12.73,29.86-21.47,45.56-56.6,53-79a44.56,44.56,0,0,1-12.52,10.12c-14.79,8.11-34.64,8.78-57.43,1.93-17-5.1-32.36-3.25-45.72,5.47s-29.86,9.33-42.78,1.42C1548,3543.62,1532.83,3557,1531.31,3558.5Z" transform="translate(-1283.21 -394.79)"/><path class="cls-2" d="M1529.5,3556.94s16.69-17.21,47.54,1.66c12.42,7.6,28,6.57,40.24-1.39,10.88-7.11,26.68-12.07,47.7-5.75,36.88,11.08,68,2.28,77.28-30.33,0,0-12,67.22-59.59,101.44-44.87,32.24-121.68,35.6-145,12.49C1499.53,3597.16,1529.5,3556.94,1529.5,3556.94Z" transform="translate(-1283.21 -394.79)"/><path class="cls-2" d="M2171.35,3556.94s-16.69-17.21-47.53,1.66c-12.43,7.6-28.06,6.57-40.25-1.39-10.87-7.11-26.67-12.07-47.7-5.75-36.88,11.08-68,2.28-77.28-30.33,0,0,12,67.22,59.6,101.44,44.86,32.24,121.67,35.6,144.95,12.49C2201.32,3597.16,2171.35,3556.94,2171.35,3556.94Z" transform="translate(-1283.21 -394.79)"/><g class="cls-13"><path class="cls-3" d="M1742.21,3521.34c0,.21-.12.65-.24,1.21a.29.29,0,0,1-.24.16A13,13,0,0,0,1742.21,3521.34Z" transform="translate(-1283.21 -394.79)"/><path class="cls-2" d="M1741.73,3525.08H1738l1.53-3.36a4.26,4.26,0,0,0,.25-.71l1.92.27v0l.87.2,1.86.62-1.86-.62,1.91.45-.59,2-.71,1Z" transform="translate(-1283.21 -394.79)"/></g><g class="cls-13"><path class="cls-3" d="M1759.24,3497c-.61,3.29-9.46,48-38.83,82.06a205.35,205.35,0,0,0,21.56-56.49C1749.94,3516.9,1756,3508.4,1759.24,3497Z" transform="translate(-1283.21 -394.79)"/><path class="cls-2" d="M1722.21,3580.59l-3.87-2.72a203.34,203.34,0,0,0,21.3-55.8l.19-.92.77-.54c7.81-5.54,13.31-13.71,16.35-24.28l4.63,1.08C1761.22,3499.36,1752.43,3545.55,1722.21,3580.59Zm21.9-56.66a205.31,205.31,0,0,1-9.7,31.27,197.92,197.92,0,0,0,17-38.06A44.12,44.12,0,0,1,1744.11,3523.93Z" transform="translate(-1283.21 -394.79)"/></g><path class="cls-2" d="M2102.34,3663.13H2098a156.17,156.17,0,0,1-153.75-183.64l30.53-171a525.61,525.61,0,0,1-249.56.17l30.5,170.83A156.18,156.18,0,0,1,1602,3663.13h-4.36c-9,0-86.71-1.41-94.32-49.9-3.09-19.7-.34-37.9,8.2-54.08,19-36,23.85-75.73,13.63-111.9l-2.24-7.91C1501,3362,1471.61,3282.87,1433,3197.48c-57.19-126.55-68.75-272.46-34.35-433.67,55.31-259.29,58.38-518.68,9.13-771-58.64-300.33-115-706.75-50.39-937.41,1.19-4.27,2.38-8.48,3.66-12.65,32.13-107.84,92.65-199.54,175.3-265.74a134,134,0,0,1-2.55-26.06c0-74.25,61-134.66,136-134.66a135.74,135.74,0,0,1,68.61,18.35c27.31-39.77,76.45-64.7,129.8-64.7s102.5,24.93,129.81,64.7a135.74,135.74,0,0,1,68.61-18.35c74.95,0,135.93,60.41,135.93,134.66a133.37,133.37,0,0,1-2.56,26.07c82.63,66.21,143.15,157.91,175.34,265.84,1.23,4.13,2.41,8.31,3.6,12.56,48.65,173.68,36.47,463.8-36.18,862.28-53.93,295.81-123,544.3-123.65,546.77a15.21,15.21,0,0,1-29.3-8.18c2.75-9.83,273.15-988.1,159.84-1392.68-1.14-4.1-2.28-8.1-3.46-12.06-31.35-105.12-91-193.83-172.52-256.53l-8.17-6.29,2.81-9.92a102.22,102.22,0,0,0,3.83-27.86c0-57.48-47.33-104.24-105.51-104.24a105.34,105.34,0,0,0-64.29,21.55l-14.5,11-8.25-16.23c-19.37-38.08-63.09-62.69-111.38-62.69s-92,24.61-111.37,62.69l-8.25,16.23-14.5-11a105.37,105.37,0,0,0-64.29-21.55c-58.2,0-105.55,46.76-105.55,104.24a102.4,102.4,0,0,0,3.83,27.87l2.8,9.92-8.17,6.28c-81.54,62.68-141.19,151.38-172.51,256.52-1.24,4-2.36,8-3.49,12-63,224.92-7.06,626.29,51,923.39,50,256.34,46.94,519.82-9.24,783.15-33,154.72-22.13,294.28,32.33,414.8,39.21,86.77,69.1,167.27,91.37,246.1l2.24,7.91c12.36,43.74,6.68,91.46-16,134.39-5.41,10.24-7.11,22.07-5.06,35.15,2.83,18,45.35,24.17,64.32,24.2H1602a125.77,125.77,0,0,0,123.81-147.87l-39-218.57,23.57,6.91a495.18,495.18,0,0,0,266,3.52l36.77-9.73-38.91,217.87A125.75,125.75,0,0,0,2098,3632.71h4.34c18.95,0,61.47-6.18,64.3-24.2,2.05-13.08.35-24.91-5.07-35.16-22.66-42.93-28.34-90.65-16-134.38l5.85-20.69a1491.92,1491.92,0,0,1,48-142.89,15.21,15.21,0,1,1,28.28,11.21,1463,1463,0,0,0-47.05,140l-5.85,20.7c-10.22,36.17-5.38,75.91,13.62,111.9,8.55,16.18,11.31,34.38,8.21,54.08C2189.05,3661.71,2111.31,3663.13,2102.34,3663.13Z" transform="translate(-1283.21 -394.79)"/><path class="cls-2" d="M2300.17,3031.28c3.17,22.06,1.11,43.91-3.17,65.21a514,514,0,0,1-16.56,63.26c-3.35,10.41-7.16,20.67-11.32,30.8s-8.73,20.2-12.63,29.82c-8.15,19.45-16.54,38.77-25.43,57.9l-.4.85a15.19,15.19,0,0,1-27.8-12.24c8.3-19.94,17.11-39.7,26.15-59.31,2.27-4.84,4.5-10,6.79-14.57s4.64-9.3,6.83-14q6.61-14.13,12.64-28.57c7.94-19.27,15.1-38.95,21.22-59,3-10.05,6-20.13,9.45-30.19a290.61,290.61,0,0,1,11.72-30.26v0a1.32,1.32,0,0,1,1.76-.63A1.34,1.34,0,0,1,2300.17,3031.28Z" transform="translate(-1283.21 -394.79)"/><path class="cls-2" d="M2252.57,3246.83c16.88-11.6,34.21-24.77,50.6-38.14,4.2-3.28,8.12-6.88,12.21-10.29s8.06-7,12-10.51,7.94-7.09,11.71-10.84,7.83-7.23,11.52-11a489.54,489.54,0,0,0,42.13-47.76c12.81-17,24.43-34.4,38.66-52.05l0,0a1.31,1.31,0,0,1,2.32,1,151.1,151.1,0,0,1-3.15,16.7c-.77,2.71-1.23,5.6-2.26,8.2l-3,7.91c-2.16,5.19-4,10.62-6.84,15.49-2.64,5-5.46,9.84-8.3,14.71a419.14,419.14,0,0,1-40,54.19c-7.42,8.39-14.94,16.76-23,24.54-7.84,8-16.1,15.57-24.52,23s-17.09,14.47-26,21.26-17.91,13.17-27.93,19.47a15.21,15.21,0,0,1-16.73-25.39Z" transform="translate(-1283.21 -394.79)"/><path class="cls-2" d="M1575.57,3153.36c10.21,13.49,18.9,26.06,28,38.55a226.06,226.06,0,0,0,31,33.76c11.67,9.8,23.58,19.23,36.77,26.9l4.82,3,5,2.69,10,5.46c6.79,3.47,13.84,6.48,20.68,9.95l1.35.69a15.18,15.18,0,0,1-12.94,27.44c-7.81-3.41-15.73-6.64-23.31-10.58l-11.2-6.31c-1.87-1-3.72-2.11-5.55-3.23l-5.31-3.65-10.59-7.33-10-8.2-5-4.12-4.66-4.47c-3-3-6.17-6-9.07-9.15a209.76,209.76,0,0,1-30-41.57c-8.22-14.83-14.14-31.56-12.56-49.31a1.33,1.33,0,0,1,2.38-.69Z" transform="translate(-1283.21 -394.79)"/><path class="cls-2" d="M2240.6,2485.18a65.36,65.36,0,0,1-6.38,13.87,128.73,128.73,0,0,1-8.64,12.67,179,179,0,0,1-20.57,23.62,1.43,1.43,0,0,1-2-.06,1.45,1.45,0,0,1-.37-1.2,179.29,179.29,0,0,1,7.81-30.33,127.09,127.09,0,0,1,5.55-14.3,64.62,64.62,0,0,1,7.8-13.12,9.69,9.69,0,0,1,16.83,8.85Z" transform="translate(-1283.21 -394.79)"/><path class="cls-2" d="M2281.52,2536a88.09,88.09,0,0,1-8.38,15.58,174.62,174.62,0,0,1-10.57,14.27,236.45,236.45,0,0,1-24.33,26.62,1.42,1.42,0,0,1-2-.08,1.45,1.45,0,0,1-.33-1.31,238.8,238.8,0,0,1,12-34,174.58,174.58,0,0,1,7.58-16.06,87,87,0,0,1,9.76-14.75,9.64,9.64,0,0,1,16.32,9.76Z" transform="translate(-1283.21 -394.79)"/><path class="cls-2" d="M2312.4,2598.53a76,76,0,0,1-6.46,15.14,151.84,151.84,0,0,1-8.76,14,207.1,207.1,0,0,1-20.86,26.42,1.42,1.42,0,0,1-2.44-1.18,206.48,206.48,0,0,1,7.89-32.73,149.74,149.74,0,0,1,5.62-15.55,75.16,75.16,0,0,1,7.91-14.44,9.66,9.66,0,0,1,17.1,8.31Z" transform="translate(-1283.21 -394.79)"/><path class="cls-2" d="M2346.67,2662.76a86,86,0,0,1-2.9,17.37,168.87,168.87,0,0,1-5.39,16.84,234.91,234.91,0,0,1-14.42,32.89,1.42,1.42,0,0,1-1.93.56,1.43,1.43,0,0,1-.73-1.13,234.93,234.93,0,0,1,.33-35.92,170.53,170.53,0,0,1,2-17.56,86.11,86.11,0,0,1,4.48-17,9.64,9.64,0,0,1,18.58,4Z" transform="translate(-1283.21 -394.79)"/><path class="cls-2" d="M2402.2,2716.16a55,55,0,0,1,1.11,14,109.54,109.54,0,0,1-1.43,14,154.78,154.78,0,0,1-6.6,28.15,1.46,1.46,0,0,1-1.85.89,1.49,1.49,0,0,1-.87-.83,154.94,154.94,0,0,1-7.82-27.83,108,108,0,0,1-2-14,54.89,54.89,0,0,1,.49-14,9.72,9.72,0,0,1,19-.42Z" transform="translate(-1283.21 -394.79)"/><path class="cls-2" d="M2460.88,2724.16a67,67,0,0,1,4.19,14.91,134.7,134.7,0,0,1,1.7,15.48,186.4,186.4,0,0,1-.23,31.76,1.44,1.44,0,0,1-2.65.6,185.88,185.88,0,0,1-13.84-28.59,134.77,134.77,0,0,1-5.1-14.71,67.06,67.06,0,0,1-2.62-15.27,9.69,9.69,0,0,1,18.55-4.18Z" transform="translate(-1283.21 -394.79)"/><path class="cls-2" d="M2534.71,2628.87a93.66,93.66,0,0,1,7,17c1.93,5.81,3.26,11.82,4.61,17.83a255.43,255.43,0,0,1,5.72,36.94,1.42,1.42,0,0,1-2.56.92,254.09,254.09,0,0,1-19.27-32c-2.81-5.48-5.65-10.95-7.89-16.64a93.66,93.66,0,0,1-5.48-17.51,9.63,9.63,0,0,1,17.87-6.48Z" transform="translate(-1283.21 -394.79)"/><path class="cls-2" d="M2513.26,2698.61a62,62,0,0,1,5.28,13.9,123.59,123.59,0,0,1,2.85,14.68,171.84,171.84,0,0,1,2.15,30.49,1.44,1.44,0,0,1-1.49,1.39,1.42,1.42,0,0,1-1.1-.57,171.63,171.63,0,0,1-15.89-26.1,123.78,123.78,0,0,1-6.17-13.62,62,62,0,0,1-3.74-14.4,9.69,9.69,0,0,1,18.11-5.77Z" transform="translate(-1283.21 -394.79)"/><path class="cls-14" d="M2196.36,1438.69c-104,129.56-257.39,136-328.19,136s-224.14-6.4-328.15-136c-86.67-107.93-45.4-344.11,25.84-460.59,21,37.71,59.66,63,103.9,63a115.55,115.55,0,0,0,73.48-26.49c21.28,44.95,69.2,76.25,124.93,76.25s103.66-31.3,124.93-76.25a115.66,115.66,0,0,0,73.49,26.49c44.27,0,82.93-25.27,103.93-63C2241.76,1094.58,2283,1330.76,2196.36,1438.69Z" transform="translate(-1283.21 -394.79)"/><g class="cls-4"><path class="cls-2" d="M2196.37,1425.35c-104,111.11-257.39,116.6-328.19,116.6S1644,1536.46,1540,1425.35c-39.15-41.83-52.21-106.1-48.12-173.17,3.28,50,17.91,95.56,48.12,127.81,104,111.11,257.39,116.6,328.15,116.6s224.18-5.49,328.19-116.6c30.21-32.25,44.84-77.85,48.12-127.85C2248.54,1319.25,2235.52,1383.52,2196.37,1425.35Z" transform="translate(-1283.21 -394.79)"/></g><g class="cls-1"><path class="cls-2" d="M2244.33,1261.47c-5.33-80.65-35.14-165.07-73.8-219.28-21,32.33-59.66,54-103.94,54a127.85,127.85,0,0,1-73.48-22.72c-21.28,38.54-69.2,65.39-124.93,65.39s-103.66-26.85-124.93-65.39a127.79,127.79,0,0,1-73.49,22.72c-44.23,0-82.9-21.68-103.89-54-38.67,54.21-68.48,138.63-73.8,219.32-6.78-93.87,27-203.62,73.8-269.17,21,32.34,59.66,54,103.89,54a127.72,127.72,0,0,0,73.49-22.72c21.27,38.55,69.2,65.39,124.93,65.39s103.65-26.84,124.93-65.39a127.78,127.78,0,0,0,73.48,22.72c44.28,0,82.94-21.67,103.94-54C2217.29,1057.89,2251.1,1167.64,2244.33,1261.47Z" transform="translate(-1283.21 -394.79)"/></g><path class="cls-2" d="M1916.5,1245.52c10,3.77,14,14.45,8.53,22.79-11.37,17.25-32.57,43.33-56.85,43.33s-45.48-26.08-56.85-43.33c-5.5-8.34-1.51-19,8.53-22.79,12-4.5,29.21-9.26,48.32-9.26S1904.5,1241,1916.5,1245.52Z" transform="translate(-1283.21 -394.79)"/><path class="cls-2" d="M1744.84,1321.4c9.26,17,15.71,29.46,25.07,39a61,61,0,0,0,15.67,12.15,41.34,41.34,0,0,0,19.82,4.64,45.93,45.93,0,0,0,19.66-5,59,59,0,0,0,15.72-11.87c4.6-4.78,8.28-10.48,11.88-16.9,3.8-6.42,7.51-13.53,13.3-22l.07-.09a2.6,2.6,0,0,1,3.62-.69,2.65,2.65,0,0,1,.75.78c5.56,8.93,7.07,19.29,5.57,29.51a60.65,60.65,0,0,1-13.31,28.5,65.13,65.13,0,0,1-26.1,18.84,81.77,81.77,0,0,1-31.16,5.75,89.36,89.36,0,0,1-31-6.13,63.86,63.86,0,0,1-26.15-18.56,57.07,57.07,0,0,1-12.61-28.67,50,50,0,0,1,4.75-29.24,2.49,2.49,0,0,1,4.41-.05Z" transform="translate(-1283.21 -394.79)"/><path class="cls-2" d="M1870.4,1321.4c9.26,17,15.72,29.46,25.07,39a61.18,61.18,0,0,0,15.67,12.15,41.34,41.34,0,0,0,19.82,4.64,45.89,45.89,0,0,0,19.66-5,59,59,0,0,0,15.72-11.87c4.6-4.78,8.29-10.48,11.89-16.9,3.79-6.42,7.5-13.53,13.3-22l.06-.09a2.6,2.6,0,0,1,4.37.09c5.57,8.93,7.07,19.29,5.57,29.51a60.65,60.65,0,0,1-13.31,28.5,65.1,65.1,0,0,1-26.09,18.84A81.86,81.86,0,0,1,1931,1404a89.36,89.36,0,0,1-31-6.13,63.93,63.93,0,0,1-26.15-18.56,57.16,57.16,0,0,1-12.61-28.67c-1.25-10.18.15-20.32,4.75-29.24a2.49,2.49,0,0,1,4.41-.05Z" transform="translate(-1283.21 -394.79)"/><path class="cls-2" d="M1868.18,1347.34a13.3,13.3,0,0,1-13.3-13.31v-50.3a13.31,13.31,0,1,1,26.61,0V1334A13.31,13.31,0,0,1,1868.18,1347.34Z" transform="translate(-1283.21 -394.79)"/><g class="cls-15"><path class="cls-3" d="M1893.47,1251.44c5.26.8,7.35,3.08,4.47,4.85-6,3.67-17,9.22-29.76,9.22s-23.8-5.55-29.75-9.22c-2.88-1.77-.79-4,4.46-4.85a163.32,163.32,0,0,1,50.58,0Z" transform="translate(-1283.21 -394.79)"/></g><ellipse class="cls-16" cx="1653.11" cy="1187.53" rx="102.97" ry="79.43" transform="translate(-1075.17 2226.19) rotate(-80.46)"/><ellipse class="cls-3" cx="1629.46" cy="1162.32" rx="35.52" ry="21.29" transform="translate(-1100.35 2150.81) rotate(-79.22)"/><ellipse class="cls-3" cx="1685.84" cy="1221.3" rx="17.77" ry="10.64" transform="matrix(0.13, -0.99, 0.99, 0.13, -1021.32, 2345.05)"/><ellipse class="cls-16" cx="2076.11" cy="1187.53" rx="79.43" ry="102.97" transform="translate(-1451.3 -34.31) rotate(-9.54)"/><ellipse class="cls-3" cx="2099.76" cy="1162.32" rx="21.29" ry="35.52" transform="matrix(0.98, -0.19, 0.19, 0.98, -1463.57, 18.5)"/><ellipse class="cls-3" cx="2043.37" cy="1221.3" rx="10.64" ry="17.77" transform="translate(-1420.79 -127.63) rotate(-7.24)"/><g class="cls-4"><path class="cls-2" d="M2243.69,1198c-6.89-77.93-35.94-158.18-73.16-210.39-21,32.33-59.66,54-103.94,54a127.78,127.78,0,0,1-73.48-22.72c-21.28,38.55-69.2,65.39-124.93,65.39s-103.66-26.84-124.93-65.39a127.72,127.72,0,0,1-73.49,22.72c-44.23,0-82.9-21.68-103.89-54-37.22,52.21-66.27,132.46-73.16,210.43-8.41-85.4,18.16-185.66,58.21-254.19a19.53,19.53,0,0,1,30.45-4.29c22,21.6,53.47,35.11,88.39,35.11a129.34,129.34,0,0,0,58.46-13.72c8.28-4.19,18.5-2.44,24.22,4.88,24.19,31,67,51.51,115.74,51.51s91.55-20.55,115.74-51.51c5.71-7.32,15.94-9.07,24.22-4.89a129.46,129.46,0,0,0,58.45,13.73c35,0,66.41-13.51,88.44-35.11a19.52,19.52,0,0,1,30.44,4.29C2225.52,1012.36,2252.06,1112.62,2243.69,1198Z" transform="translate(-1283.21 -394.79)"/></g><path class="cls-2" d="M1868.17,1591.08c-56.11,0-226.88,0-341-142.11-93.07-115.9-47.57-361.37,24.64-479.44l14.68-24,13.68,24.58c18.73,33.65,53,54.55,89.55,54.55a98.77,98.77,0,0,0,63.09-22.79l16.26-13.28,9,19c19.22,40.62,62.43,66.86,110.08,66.86s90.86-26.24,110.09-66.86l9-19,16.25,13.28a98.78,98.78,0,0,0,63.1,22.79c36.52,0,70.85-20.9,89.58-54.55l13.69-24.57,14.67,24c72.2,118,117.69,363.51,24.64,479.44h0C2095.09,1591.08,1924.3,1591.08,1868.17,1591.08Zm-300.77-582c-58.45,114.46-92.16,322.74-14.57,419.36,104.22,129.82,263.13,129.82,315.34,129.82s211.16,0,315.38-129.82c77.58-96.65,43.87-304.91-14.56-419.36-25.76,30.39-63.06,48.46-102.4,48.46a130.37,130.37,0,0,1-68.09-19c-27.62,42.32-76.84,68.78-130.33,68.78s-102.71-26.46-130.33-68.78a130.34,130.34,0,0,1-68.08,19C1630.43,1057.51,1593.15,1039.44,1567.4,1009.05Zm629,429.64h0Z" transform="translate(-1283.21 -394.79)"/></svg>