<svg id="Layer_1" data-name="Layer 1" xmlns="http://www.w3.org/2000/svg" viewBox="0 0 2460.55 3928.61"><defs><style>.cls-1,.cls-6{fill:#6b184e;}.cls-1{opacity:0.35;}.cls-2{fill:#ecc18e;}.cls-11,.cls-3{fill:none;stroke:#6b184e;stroke-linecap:round;stroke-width:32px;}.cls-3{stroke-miterlimit:10;}.cls-4,.cls-7{fill:#fff;}.cls-5{fill:#d3a17f;}.cls-7{opacity:0.3;}.cls-8,.cls-9{fill:#fefafb;}.cls-9{opacity:0.5;}.cls-10{fill:#707169;}.cls-11{stroke-linejoin:round;}</style></defs><ellipse class="cls-1" cx="1230.28" cy="3853.53" rx="850.85" ry="75.08"/><path class="cls-2" d="M2638.72,2952.78q-.6,17.22-2.64,34.16A414.31,414.31,0,0,1,2393,3316.34L2387,3319a980.22,980.22,0,0,1-376.36,84.76q-25.44.6-50.92-.12A979.7,979.7,0,0,1,1583.6,3317a414.76,414.76,0,0,1-220.4-239.64c-3.6-10.08-6.8-20.36-9.52-30.72a399.8,399.8,0,0,1-11.52-60.12c-1.4-12.12-2.28-24.32-2.56-36.6-.08-3.36-.12-6.68-.12-10a410.74,410.74,0,0,1,10.64-92.92c25.44-109.76,58.48-208.6,88.32-286.32,17.16-44.68,33.24-82.44,46.12-111.24,1-2.28,2-4.48,3-6.64,10.48-23.08,18.56-39.72,23.08-48.76,2.56-5.16,4-7.88,4-7.88h949.56s1.6,3,4.48,8.88c5,10,13.8,28.24,25.08,53.36,1,2.16,2,4.36,3,6.64,14.72,33.12,33.12,77,52.4,128.92,27.24,73.32,56.24,162.84,79.12,261.16A409,409,0,0,1,2638.72,2952.78Z" transform="translate(-752.72 -35)"/><path class="cls-1" d="M2631,2952.78a414.2,414.2,0,0,1-245.76,363.56l-5.92,2.64A980.22,980.22,0,0,1,2003,3403.74a211.71,211.71,0,0,1-25.48-42.76,210.6,210.6,0,0,1-25.44,42.64A979.7,979.7,0,0,1,1575.92,3317a414.76,414.76,0,0,1-220.4-239.64,410.27,410.27,0,0,1-23.6-127.44c2.52-.84,5.08-1.64,7.64-2.4,0-2.56-.08-5.08-.08-7.64a410.74,410.74,0,0,1,10.64-92.92c25.44-109.76,58.48-208.6,88.32-286.32,17.16-44.68,33.24-82.44,46.12-111.24,1-2.28,2-4.48,3-6.64,10.48-23.08,18.56-39.72,23.08-48.76,2.56-5.16,4-7.88,4-7.88h36.92l.08,3.56,4.24,186s5.68,210.08-94.24,363.32c-1.36,2.12-2.76,4.24-4.2,6.32,113.16,17.52,79.32,50.08,431.48,159.32,42.72,13.24,71.2,36.76,88.64,65.48,17.4-28.72,45.88-52.24,88.6-65.48,362.16-112.32,316.08-143.6,441.52-160.76-1.12-1.6-2.16-3.24-3.24-4.88-99.92-153.24-94.24-363.32-94.24-363.32l4.24-186,.08-3.56h36.92s1.4,2.72,4,7.88c4.52,9,12.6,25.68,23.08,48.76,1,2.16,2,4.36,3,6.64,12.88,28.8,29,66.56,46.12,111.24,29.84,77.72,62.88,176.56,88.32,286.32a410.74,410.74,0,0,1,10.64,92.92c0,3.36,0,6.68-.12,10a11.24,11.24,0,0,1,0,1.16C2627.92,2951.62,2629.48,2952.18,2631,2952.78Z" transform="translate(-752.72 -35)"/><path class="cls-3" d="M2393,3316.34,2387,3319a981,981,0,0,1-803.43-2h0c-179.71-81.21-278-277.94-233.48-470.06,25.43-109.74,58.5-208.58,88.31-286.31,41.22-107.38,76.18-174.53,76.18-174.53h949.56s40.06,76.91,84.95,197.82c27.24,73.31,56.24,162.81,79.13,261.13C2673.17,3038,2573.92,3235.65,2393,3316.34Z" transform="translate(-752.72 -35)"/><path class="cls-3" d="M2165.18,2368.44" transform="translate(-752.72 -35)"/><path class="cls-4" d="M1953.76,3395.61c69.07,19,138.55,32.08,144.39,42.62,16.54,29.85-162.84,105-266.25,63.48" transform="translate(-752.72 -35)"/><path class="cls-3" d="M1874.27,3381.85c21.13-13.33,41,3.21,79.49,13.76,69.07,19,138.55,32.08,144.39,42.62,16.54,29.85-162.84,105-266.25,63.48C1750.32,3469,1843.14,3401.51,1874.27,3381.85Z" transform="translate(-752.72 -35)"/><path class="cls-4" d="M1996.52,3297.94c69.18,18.56,138.74,31.29,144.64,41.79,16.71,29.76-162.24,105.9-265.89,65" transform="translate(-752.72 -35)"/><path class="cls-3" d="M1917,3284.64c21.06-13.46,41,3,79.57,13.3,69.18,18.56,138.74,31.29,144.64,41.79,16.71,29.76-162.24,105.9-265.89,65C1793.5,3372.48,1885.93,3304.47,1917,3284.64Z" transform="translate(-752.72 -35)"/><path class="cls-4" d="M1893.77,3185.17c20.74-13.93,41.08,2,79.84,11.49,69.59,17,139.42,28.12,145.56,38.49,17.38,29.36-159.79,109.56-264.34,71C1772.35,3275.8,1863.21,3205.7,1893.77,3185.17Z" transform="translate(-752.72 -35)"/><path class="cls-3" d="M1893.77,3185.17c20.74-13.93,41.08,2,79.84,11.49,69.59,17,139.42,28.12,145.56,38.49,17.38,29.36-159.79,109.56-264.34,71C1772.35,3275.8,1863.21,3205.7,1893.77,3185.17Z" transform="translate(-752.72 -35)"/><path class="cls-5" d="M1910.76,3485.1c-134.84,87.72-475.2,73.66-614-64.86-231.58-231.17-64.88-443.43,106.7-426.37,166.42,16.54,83.6,43.58,473.19,164.41C2049.6,3211.92,1988.94,3434.24,1910.76,3485.1Z" transform="translate(-752.72 -35)"/><path class="cls-5" d="M2069.17,3485.1c134.84,87.72,475.19,73.66,614-64.86,231.59-231.17,64.89-443.43-106.7-426.37-166.42,16.54-83.59,43.58-473.18,164.41C1930.32,3211.92,1991,3434.24,2069.17,3485.1Z" transform="translate(-752.72 -35)"/><path class="cls-5" d="M1910.76,3485.1c-134.84,87.72-475.2,73.66-614-64.86-231.58-231.17-64.88-443.43,106.7-426.37,166.42,16.54,83.6,43.58,473.19,164.41C2049.6,3211.92,1988.94,3434.24,1910.76,3485.1Z" transform="translate(-752.72 -35)"/><path class="cls-5" d="M2069.17,3485.1c134.84,87.72,475.19,73.66,614-64.86,231.59-231.17,64.89-443.43-106.7-426.37-166.42,16.54-83.59,43.58-473.18,164.41C1930.32,3211.92,1991,3434.24,2069.17,3485.1Z" transform="translate(-752.72 -35)"/><path class="cls-2" d="M1910.74,3485.1c-134.84,87.72-475.16,73.68-614-64.88-157.36-157.08-130.84-305.4-43.84-379,41-34.72,95.56-52.84,150.56-47.36,136.4,13.56,105.32,34.2,304.32,107.72,43.76,16.2,98.6,34.92,168.84,56.72C2049.62,3211.9,1988.94,3434.22,1910.74,3485.1Z" transform="translate(-752.72 -35)"/><path class="cls-1" d="M1910.74,3485.1c-134.84,87.72-475.16,73.68-614-64.88-104.72-104.52-128-205.16-106.2-282.52,13.56,53.28,46.8,111.36,106.2,170.64,138.8,138.52,479.12,152.56,614,64.84,29.92-19.44,57.28-64,69.92-114.6C2006.18,3343.66,1962.26,3451.58,1910.74,3485.1Z" transform="translate(-752.72 -35)"/><path class="cls-3" d="M1910.76,3485.1c-134.84,87.72-475.2,73.66-614-64.86-231.58-231.17-64.88-443.43,106.7-426.37,166.42,16.54,83.6,43.58,473.19,164.41C2049.6,3211.92,1988.94,3434.24,1910.76,3485.1Z" transform="translate(-752.72 -35)"/><path class="cls-4" d="M2026.17,3395.61c-69.07,19-138.56,32.08-144.4,42.62-16.54,29.85,162.84,105,266.26,63.48" transform="translate(-752.72 -35)"/><path class="cls-3" d="M2105.66,3381.85c-21.13-13.33-41,3.21-79.49,13.76-69.07,19-138.56,32.08-144.4,42.62-16.54,29.85,162.84,105,266.26,63.48C2229.61,3469,2136.79,3401.51,2105.66,3381.85Z" transform="translate(-752.72 -35)"/><path class="cls-4" d="M1983.41,3297.94c-69.18,18.56-138.74,31.29-144.64,41.79-16.71,29.76,162.24,105.9,265.89,65" transform="translate(-752.72 -35)"/><path class="cls-3" d="M2063,3284.64c-21-13.46-41,3-79.56,13.3-69.18,18.56-138.74,31.29-144.64,41.79-16.71,29.76,162.24,105.9,265.89,65C2186.42,3372.48,2094,3304.47,2063,3284.64Z" transform="translate(-752.72 -35)"/><path class="cls-4" d="M2086.16,3185.17c-20.75-13.93-41.08,2-79.85,11.49-69.59,17-139.41,28.12-145.55,38.49-17.38,29.36,159.78,109.56,264.34,71C2207.58,3275.8,2116.72,3205.7,2086.16,3185.17Z" transform="translate(-752.72 -35)"/><path class="cls-3" d="M2086.16,3185.17c-20.75-13.93-41.08,2-79.85,11.49-69.59,17-139.41,28.12-145.55,38.49-17.38,29.36,159.78,109.56,264.34,71C2207.58,3275.8,2116.72,3205.7,2086.16,3185.17Z" transform="translate(-752.72 -35)"/><path class="cls-2" d="M2069.17,3485.1c134.84,87.72,475.19,73.66,614-64.86,231.59-231.17,64.89-443.43-106.7-426.37-166.42,16.54-83.59,43.58-473.18,164.41C1930.32,3211.92,1991,3434.24,2069.17,3485.1Z" transform="translate(-752.72 -35)"/><path class="cls-1" d="M2683.14,3420.22c-138.8,138.56-479.12,152.6-614,64.88-51.76-33.68-95.84-142.4-69.56-227.64,12.8,50,39.92,93.92,69.56,113.2,134.84,87.72,475.16,73.64,614-64.88,58.92-58.84,92.08-116.44,105.88-169.32C2811.38,3214,2788.42,3315.14,2683.14,3420.22Z" transform="translate(-752.72 -35)"/><path class="cls-3" d="M2069.17,3485.1c134.84,87.72,475.19,73.66,614-64.86,231.59-231.17,64.89-443.43-106.7-426.37-166.42,16.54-83.59,43.58-473.18,164.41C1930.32,3211.92,1991,3434.24,2069.17,3485.1Z" transform="translate(-752.72 -35)"/><path class="cls-2" d="M1656.28,2328.82l-18,57.28L1604,2495.22l-55.8,177.56s-62.16,200.72-206,313.72c-46.6,36.64-101.8,64-166.24,72.44-437,56.88-293.36-271-293.36-271s214.36-28.12,286.4-52.72c97.84-33.44,141.4-184.56,285.28-301a567,567,0,0,1,56.4-40.16c4.28-2.68,8.64-5.28,13-7.88C1561.68,2363.86,1605.36,2344.26,1656.28,2328.82Z" transform="translate(-752.72 -35)"/><path class="cls-1" d="M1542.92,2688.26c2.56-7.12,4.16-12,4.88-14.2l-1.2,4S1545.48,2681.7,1542.92,2688.26Z" transform="translate(-752.72 -35)"/><path class="cls-1" d="M1548.12,2673l-.32,1C1548,2673.58,1548,2673.22,1548.12,2673Z" transform="translate(-752.72 -35)"/><path class="cls-1" d="M1542.76,2688.62c-17.48,48.32-78,196.4-191.8,290.76-.84.72-1.68,1.4-2.52,2.08-2.08,1.72-4.16,3.4-6.28,5-46.6,36.64-101.8,64-166.24,72.44-437,56.88-293.36-271-293.36-271s172.6-29.16,247.68-42c32.6,63.88-66.46,89.17-66.46,143.47,0,53.41,24.71,72.6,70.46,82.35,79.7,17,163.18-2.84,227.43-53l1.29-1C1482.12,2824.14,1529.84,2721.22,1542.76,2688.62Z" transform="translate(-752.72 -35)"/><path class="cls-6" d="M1657.82,2333.92c-34.89,18.67-69.33,35-102.63,53.47a717.26,717.26,0,0,0-94.52,63.31c-7.54,5.77-14.54,12.24-21.84,18.34-6.89,6.57-14.07,12.84-20.72,19.69-13.71,13.27-26.42,27.62-38.92,42.17-24.77,29.35-47.53,60.61-70.52,92.38-11.52,15.87-23.24,31.84-35.8,47.5s-26,31-41.77,44.95-34,26.19-54.79,33.72c-20,7-39.24,11.23-58.7,15.68-77.56,16.4-155,27.91-233,38.63l12.57-9.45c-1.83,4.29-3.78,9.66-5.47,14.64s-3.32,10.24-4.78,15.42a301.29,301.29,0,0,0-7.15,31.48c-3.56,21.13-5.07,42.57-2.67,63.22s8.17,40.46,18.45,57.58,25.2,31.1,42.66,41.74,37.75,17.45,58.44,22.44l15.74,3.31c5.32.85,10.73,1.42,16.09,2.15,10.67,1.74,21.67,1.95,32.56,2.68,2.73.13,5.45.39,8.19.41l8.25,0,16.51,0c5.49.11,11-.32,16.55-.64l16.57-1,8.28-.49,8.29-.9,16.58-1.78c5.47-.67,11.17-1,16.45-2l15.89-2.71c21-4.46,41.83-10.22,61.5-19.13a324.92,324.92,0,0,0,56.72-31.31,392.91,392.91,0,0,0,50.83-41,495,495,0,0,0,44.82-48.24,603.45,603.45,0,0,0,72.42-111l30.19-59.4c5.18-9.87,10.32-19.77,16-29.5,5.56-9.76,11.38-19.57,17.95-29l.11-.16a5.53,5.53,0,0,1,10.08,3.32c-.38,12.1-2.43,23.54-5.08,34.89a269.39,269.39,0,0,1-10.08,33.24,422.59,422.59,0,0,1-29.41,62.7c-23.16,40-47.8,79.32-77.47,115.24a525.8,525.8,0,0,1-47.61,51.24,426.08,426.08,0,0,1-54.79,44.22c-38.82,26.7-83.32,46.2-130.06,55.37l-17.6,3c-5.88,1-11.51,1.35-17.28,2.06l-17.2,1.85-8.61.92-8.67.52-17.35,1c-5.79.33-11.55.77-17.4.66l-17.47.06-8.73,0c-2.92,0-5.85-.3-8.78-.43-11.7-.77-23.39-1-35.12-2.89-5.86-.8-11.73-1.43-17.58-2.37L989.49,3072c-23.2-5.6-46.52-13.21-67.81-26.25-21.2-12.85-40.33-30.7-53.43-52.5s-20.24-46.41-22.91-70.73-1-48.63,2.94-72.11a334.84,334.84,0,0,1,7.89-34.75q2.43-8.57,5.28-17c2-5.74,3.85-11,6.46-17.17l3.48-8.2,9.09-1.24c77.11-10.58,154.67-22.15,230.3-38.16,18.68-4.24,37.73-8.59,54.69-14.53,16.06-5.82,30.87-15.58,44.47-27.61s26-26.16,38-41,23.39-30.47,34.86-46.27c22.9-31.63,46.23-63.73,72-94.22,25.94-30.3,53.65-59.52,84.55-85.42A484.49,484.49,0,0,1,1540,2358.38c36.08-17.82,74.73-30.48,114.7-34.67a5.43,5.43,0,0,1,3.14,10.19Z" transform="translate(-752.72 -35)"/><path class="cls-4" d="M1049.17,2829.33a23.66,23.66,0,0,1-33,.91C993.84,2809.8,949.63,2778,889.86,2777c-47.49-.8,34.39-78.82,109.44-72.59a188.29,188.29,0,0,1,106.6,44,23.68,23.68,0,0,1-3.21,38.36,322.33,322.33,0,0,0-31.11,21.56C1065.05,2813.39,1056.57,2821.7,1049.17,2829.33Z" transform="translate(-752.72 -35)"/><path class="cls-1" d="M1102.68,2786.74a325.48,325.48,0,0,0-31.12,21.56c-6.52,5.08-15,13.4-22.4,21a23.65,23.65,0,0,1-33,.92c-22.36-20.48-66.56-52.24-126.32-53.24-25.64-.44-13.6-23.36,14.68-43.4,56.8,2.92,98.84,33.28,120.48,53a23.58,23.58,0,0,0,33-.92c7.4-7.6,15.88-15.92,22.4-21,9-7,17.12-12.68,24.32-17.32.4.28.8.64,1.2,1A23.7,23.7,0,0,1,1102.68,2786.74Z" transform="translate(-752.72 -35)"/><path class="cls-3" d="M1047.63,2830.93a21.2,21.2,0,0,1-29.73.9c-21.75-20.34-66.7-53.78-128-54.82-47.49-.8,34.39-78.82,109.44-72.59A188.37,188.37,0,0,1,1109,2751.08a21.09,21.09,0,0,1-3.49,34,315.41,315.41,0,0,0-34,23.25C1064.6,2813.75,1055.36,2822.88,1047.63,2830.93Z" transform="translate(-752.72 -35)"/><path class="cls-4" d="M951.5,2966.8s-72.1,20.41-98.42-65c-36.13-117.21,52.31-175.57,71.59-169.24s-7.46,72.83,55.71,128.91C1003.71,2882.23,989.44,2936.35,951.5,2966.8Z" transform="translate(-752.72 -35)"/><path class="cls-1" d="M951.52,2966.78s-72.12,20.44-98.44-65c-11.24-36.44-10.4-67.2-3.36-92.08,1,4,2.08,8.12,3.36,12.32,26.32,85.4,98.44,65,98.44,65a113.17,113.17,0,0,0,25.32-28.76c1.16,1.08,2.32,2.16,3.52,3.24C1003.72,2882.22,989.44,2936.34,951.52,2966.78Z" transform="translate(-752.72 -35)"/><path class="cls-3" d="M951.5,2966.8s-72.1,20.41-98.42-65c-36.13-117.21,52.31-175.57,71.59-169.24s-7.46,72.83,55.71,128.91C1003.71,2882.23,989.44,2936.35,951.5,2966.8Z" transform="translate(-752.72 -35)"/><path class="cls-4" d="M1018.62,3024.76c-14.41,14.55-35.24,21.39-86.69,12-105.19-19.14-183.78-92.18-158.41-119.22,17.12-18.25,52.48-3.12,97-1.34,78.77,3.16,99.58-11.47,118-11.47C1029.28,2904.76,1061.69,2981.28,1018.62,3024.76Z" transform="translate(-752.72 -35)"/><path class="cls-1" d="M1018.6,3024.74c-14.4,14.56-35.2,21.4-86.68,12-102.64-18.64-179.88-88.6-160-117.12,27.84,28.08,80.28,57.76,141.84,69,51.44,9.36,72.28,2.52,86.68-12,15.48-15.64,21.24-35.56,20.28-54.64C1041.84,2947.06,1049,2994.1,1018.6,3024.74Z" transform="translate(-752.72 -35)"/><path class="cls-3" d="M1018.62,3024.76c-14.41,14.55-35.24,21.39-86.69,12-105.19-19.14-183.78-92.18-158.41-119.22,17.12-18.25,52.48-3.12,97-1.34,78.77,3.16,99.58-11.47,118-11.47C1029.28,2904.76,1061.69,2981.28,1018.62,3024.76Z" transform="translate(-752.72 -35)"/><path class="cls-2" d="M2309.72,2328.82l18,57.28L2362,2495.22l55.8,177.56s62.16,200.72,206,313.72c46.6,36.64,101.8,64,166.24,72.44,437,56.88,293.36-271,293.36-271s-214.36-28.12-286.4-52.72c-97.84-33.44-141.4-184.56-285.28-301a567,567,0,0,0-56.4-40.16c-4.28-2.68-8.64-5.28-13-7.88C2404.32,2363.86,2360.64,2344.26,2309.72,2328.82Z" transform="translate(-752.72 -35)"/><path class="cls-1" d="M2423.24,2688.62c17.48,48.32,78,196.4,191.8,290.76.84.72,1.68,1.4,2.52,2.08,2.08,1.72,4.16,3.4,6.28,5,46.6,36.64,101.8,64,166.24,72.44,437,56.88,293.36-271,293.36-271s-172.6-29.16-247.68-42c-32.6,63.88,66.46,89.17,66.46,143.47,0,53.41-24.71,72.6-70.46,82.35-79.7,17-163.18-2.84-227.43-53l-1.29-1C2483.88,2824.14,2436.16,2721.22,2423.24,2688.62Z" transform="translate(-752.72 -35)"/><path class="cls-6" d="M2311.28,2323.71c40,4.19,78.62,16.85,114.7,34.67a484.49,484.49,0,0,1,100.71,66.44c30.9,25.9,58.61,55.12,84.55,85.42,25.74,30.49,49.07,62.59,72,94.22,11.47,15.8,22.93,31.4,34.86,46.27s24.38,29,38,41,28.41,21.79,44.47,27.61c17,5.94,36,10.29,54.69,14.53,75.63,16,153.19,27.58,230.3,38.16l9.09,1.24,3.48,8.2c2.61,6.14,4.49,11.43,6.46,17.17s3.66,11.32,5.28,17a334.84,334.84,0,0,1,7.89,34.75c3.94,23.48,5.73,47.69,2.94,72.11s-9.79,48.94-22.91,70.73-32.23,39.65-53.43,52.5c-21.29,13-44.61,20.65-67.81,26.25l-17.52,3.67c-5.85.94-11.72,1.57-17.58,2.37-11.73,1.86-23.42,2.12-35.12,2.89-2.93.13-5.86.41-8.78.43l-8.73,0-17.47-.06c-5.85.11-11.61-.33-17.4-.66l-17.35-1-8.67-.52-8.61-.92-17.2-1.85c-5.77-.71-11.4-1-17.28-2.06l-17.6-3c-46.74-9.17-91.24-28.67-130.06-55.37a426.08,426.08,0,0,1-54.79-44.22,525.8,525.8,0,0,1-47.61-51.24c-29.67-35.92-54.31-75.26-77.47-115.24a422.59,422.59,0,0,1-29.41-62.7,269.39,269.39,0,0,1-10.08-33.24c-2.65-11.35-4.7-22.79-5.08-34.89a5.53,5.53,0,0,1,10.05-3.35l.14.19c6.57,9.47,12.39,19.28,18,29,5.71,9.73,10.85,19.63,16,29.5l30.19,59.4a603.45,603.45,0,0,0,72.42,111,495,495,0,0,0,44.82,48.24,392.91,392.91,0,0,0,50.83,41,324.92,324.92,0,0,0,56.72,31.31c19.67,8.91,40.51,14.67,61.5,19.13l15.89,2.71c5.28.94,11,1.28,16.45,2l16.58,1.78,8.29.9,8.28.49,16.57,1c5.53.32,11.06.75,16.55.64l16.51,0,8.25,0c2.74,0,5.46-.28,8.19-.41,10.89-.73,21.89-.94,32.56-2.68,5.36-.73,10.77-1.3,16.09-2.15l15.74-3.31c20.69-5,41-11.69,58.44-22.44s32.34-24.63,42.66-41.74,16.17-37,18.45-57.58.89-42.09-2.67-63.22a301.29,301.29,0,0,0-7.15-31.48c-1.46-5.18-3.05-10.34-4.78-15.42s-3.64-10.35-5.47-14.64l12.57,9.45c-78-10.72-155.4-22.23-233-38.63-19.46-4.45-38.7-8.71-58.7-15.68-20.82-7.53-39.14-19.86-54.79-33.72s-29.18-29.33-41.77-44.95-24.28-31.63-35.8-47.5c-23-31.77-45.75-63-70.52-92.38-12.5-14.55-25.21-28.9-38.92-42.17-6.65-6.85-13.83-13.12-20.72-19.69-7.3-6.1-14.3-12.57-21.84-18.34a717.26,717.26,0,0,0-94.52-63.31c-33.3-18.5-67.74-34.8-102.63-53.47l0,0a5.43,5.43,0,0,1,3.13-10.19Z" transform="translate(-752.72 -35)"/><path class="cls-4" d="M2916.83,2829.33a23.66,23.66,0,0,0,33,.91c22.34-20.44,66.55-52.22,126.32-53.23,47.49-.8-34.39-78.82-109.44-72.59a188.29,188.29,0,0,0-106.6,44,23.68,23.68,0,0,0,3.21,38.36,322.33,322.33,0,0,1,31.11,21.56C2901,2813.39,2909.43,2821.7,2916.83,2829.33Z" transform="translate(-752.72 -35)"/><path class="cls-1" d="M2863.32,2786.74a325.48,325.48,0,0,1,31.12,21.56c6.52,5.08,15,13.4,22.4,21a23.65,23.65,0,0,0,33,.92c22.36-20.48,66.56-52.24,126.32-53.24,25.64-.44,13.6-23.36-14.68-43.4-56.8,2.92-98.84,33.28-120.48,53a23.58,23.58,0,0,1-33-.92c-7.4-7.6-15.88-15.92-22.4-21-9-7-17.12-12.68-24.32-17.32-.4.28-.8.64-1.2,1A23.7,23.7,0,0,0,2863.32,2786.74Z" transform="translate(-752.72 -35)"/><path class="cls-3" d="M2918.37,2830.93a21.2,21.2,0,0,0,29.73.9c21.75-20.34,66.7-53.78,128-54.82,47.49-.8-34.39-78.82-109.44-72.59A188.37,188.37,0,0,0,2857,2751.08a21.09,21.09,0,0,0,3.49,34,315.41,315.41,0,0,1,34,23.25C2901.4,2813.75,2910.64,2822.88,2918.37,2830.93Z" transform="translate(-752.72 -35)"/><path class="cls-4" d="M3014.5,2966.8s72.1,20.41,98.42-65c36.13-117.21-52.31-175.57-71.59-169.24s7.46,72.83-55.71,128.91C2962.29,2882.23,2976.56,2936.35,3014.5,2966.8Z" transform="translate(-752.72 -35)"/><path class="cls-1" d="M3014.48,2966.78s72.12,20.44,98.44-65c11.24-36.44,10.4-67.2,3.36-92.08-1,4-2.08,8.12-3.36,12.32-26.32,85.4-98.44,65-98.44,65a113.17,113.17,0,0,1-25.32-28.76c-1.16,1.08-2.32,2.16-3.52,3.24C2962.28,2882.22,2976.56,2936.34,3014.48,2966.78Z" transform="translate(-752.72 -35)"/><path class="cls-3" d="M3014.5,2966.8s72.1,20.41,98.42-65c36.13-117.21-52.31-175.57-71.59-169.24s7.46,72.83-55.71,128.91C2962.29,2882.23,2976.56,2936.35,3014.5,2966.8Z" transform="translate(-752.72 -35)"/><path class="cls-4" d="M2947.38,3024.76c14.41,14.55,35.24,21.39,86.69,12,105.19-19.14,183.78-92.18,158.41-119.22-17.12-18.25-52.48-3.12-97-1.34-78.76,3.16-99.57-11.47-118-11.47C2936.72,2904.76,2904.31,2981.28,2947.38,3024.76Z" transform="translate(-752.72 -35)"/><path class="cls-1" d="M2947.4,3024.74c14.4,14.56,35.2,21.4,86.68,12,102.64-18.64,179.88-88.6,160-117.12-27.84,28.08-80.28,57.76-141.84,69-51.44,9.36-72.28,2.52-86.68-12-15.48-15.64-21.24-35.56-20.28-54.64C2924.16,2947.06,2917,2994.1,2947.4,3024.74Z" transform="translate(-752.72 -35)"/><path class="cls-3" d="M2947.38,3024.76c14.41,14.55,35.24,21.39,86.69,12,105.19-19.14,183.78-92.18,158.41-119.22-17.12-18.25-52.48-3.12-97-1.34-78.76,3.16-99.57-11.47-118-11.47C2936.72,2904.76,2904.31,2981.28,2947.38,3024.76Z" transform="translate(-752.72 -35)"/><path class="cls-1" d="M2529.64,2439.22q-16.08,8.16-32.92,15.76A904.48,904.48,0,0,1,2375,2499.26c-112.24,32.32-239.8,48.4-375.12,48.76-143.6.4-278.56-17-395.84-52.8a860.45,860.45,0,0,1-119.44-45.84c-10.32-4.88-20.44-10-30.32-15.24a567,567,0,0,1,56.4-40.16c2.56-5.16,4-7.88,4-7.88h9.08c38-22.24,114.6,0,114.6,0H2339.4l-18-57.28c50.92,15.44,94.6,35,132.6,57.28h10.16s1.6,3,4.48,8.88A565.41,565.41,0,0,1,2529.64,2439.22Z" transform="translate(-752.72 -35)"/><path class="cls-2" d="M2814.13,1918.43c1,368.9-363.76,544.4-814.29,545.6s-816.24-172.36-817.22-541.27c-.94-353.56,227.53-758,744.85-792.26,62.46-32.08,147.1-87.59,194.58-169.56,14.87-25.63,52.73-22,62.21,6.12,12.58,37.41,24.13,86.55-.8,150.1,69.14-33.79,137.83-72.23,160.42-92.62,24.19-21.81,62.76-4.13,61.73,28.42-1,31.47-12.22,98.24-25.23,154.22C2677.39,1346.56,2813.41,1647.11,2814.13,1918.43Z" transform="translate(-752.72 -35)"/><path class="cls-1" d="M2814.14,1918.42c1,368.92-363.76,544.4-814.32,545.6s-816.2-172.36-817.2-541.24q-.06-22.38,1.12-45C1205.9,2224,1563,2387.14,1999.82,2386c435.24-1.16,790.36-165,813.16-508.64C2813.74,1891.1,2814.1,1904.78,2814.14,1918.42Z" transform="translate(-752.72 -35)"/><path class="cls-7" d="M2784.71,2088.72a497.72,497.72,0,0,0,11.74-110.95c-.68-255.17-140.5-551.11-404.22-701.37a78.65,78.65,0,0,1-38.21-85.16c8.35-38,15.25-73.77,15.93-94.59,1-32.55-19.55-34.59-43.75-12.77-17.66,15.94-63.49,42.91-115.69,70.07-16,8.32-35.05-4.94-32.27-22.76,6.59-42.24-2.24-76.8-11.65-104.79-9.49-28.15-25.58-35.15-48,3.75-31.5,54.75-86.06,93.22-137.44,122.29-41.09,23.24-86.59,37.38-133.4,43.44-348.39,45-554.18,265.75-638.31,514.3,73.92-286.54,303-552.18,718-579.68,62.46-32.08,147.1-87.59,194.58-169.56,14.87-25.63,52.73-22,62.21,6.12,12.58,37.41,24.13,86.55-.8,150.1,69.14-33.79,137.83-72.23,160.42-92.62,24.19-21.81,62.76-4.13,61.73,28.42-1,31.47-12.22,98.24-25.23,154.22,297,139.38,433,439.93,433.75,711.25C2814.29,1980.66,2804.06,2037.4,2784.71,2088.72Z" transform="translate(-752.72 -35)"/><path class="cls-8" d="M2652.88,1869c.29,107.49-32,223.29-129.36,313-99.51,91.72-267,156.2-537.39,156.92h0c-267.52.71-434.69-61.56-535.07-151.17s-133.92-206.5-134.21-315.16a394.13,394.13,0,0,1,5.17-64.87c30.42-186.56,192.09-329.16,387.29-329.68a392.11,392.11,0,0,1,274.83,110.88,392.22,392.22,0,0,1,274.24-112.34c192.8-.51,353.54,137.67,387.77,320.61v0A391.54,391.54,0,0,1,2652.88,1869Z" transform="translate(-752.72 -35)"/><path class="cls-6" d="M2084.55,1894.67c.08,33.49-44.42,73.87-99.44,74s-99.74-40-99.83-73.48,44.48-47.66,99.51-47.81S2084.46,1861.18,2084.55,1894.67Z" transform="translate(-752.72 -35)"/><path class="cls-9" d="M2028.24,1876.33c0,7.83-18.12,17.3-40.52,17.36s-40.59-9.31-40.61-17.14,18.13-11.17,40.53-11.23S2028.22,1868.5,2028.24,1876.33Z" transform="translate(-752.72 -35)"/><path class="cls-3" d="M1516.37,2379.65c-201.9-85.25-333.16-236.08-333.75-456.89-.91-341.79,212.54-731.06,694-787.62" transform="translate(-752.72 -35)"/><path class="cls-6" d="M1620.8,2418.46a211.37,211.37,0,0,1-27.41-1.13c-9-1-18-2.27-26.85-4a206.52,206.52,0,0,1-26.21-6.52,112.6,112.6,0,0,1-24.56-11.13,15.24,15.24,0,0,1,11.37-27.77l.13,0a140.29,140.29,0,0,1,24.6,8.35c8,3.35,15.7,7.45,23.51,11.45s15.58,8.21,23.37,12.54,15.56,8.9,23.23,14.06a2.25,2.25,0,0,1,.62,3.13A2.29,2.29,0,0,1,1620.8,2418.46Z" transform="translate(-752.72 -35)"/><path class="cls-10" d="M1847.58,1876.64c-16.43,116.53-110.14,144.16-232.5,193.72-76.77,31.08-129.57,77-164.06,117.31-100.33-89.56-133.92-206.5-134.21-315.16a394.13,394.13,0,0,1,5.17-64.87c72-75.18,185.79-147.5,350-128.18C1792.12,1693.63,1859.36,1793,1847.58,1876.64Z" transform="translate(-752.72 -35)"/><path class="cls-10" d="M2652.88,1869c.29,107.49-32,223.29-129.36,313-34.78-39.42-87.11-83.6-162.23-113.54-122.62-48.91-216.48-76.05-233.52-192.49-12.23-83.56,54.48-183.3,174.57-198.11,159-19.59,271.14,47.13,343.77,119.33v0A391.54,391.54,0,0,1,2652.88,1869Z" transform="translate(-752.72 -35)"/><path class="cls-3" d="M2166.35,1141.51c46.1-49.59,35.86-121.09,17.9-174.47-9.46-28.11-47.31-31.75-62.18-6.09-81.58,140.78-245.46,174.18-245.46,174.18" transform="translate(-752.72 -35)"/><path class="cls-11" d="M2463.93,2384.91c212.14-84.84,350.8-238.84,350.2-466.48-.73-272.12-137.5-573.61-436.33-712.49l1.41-3c18.55-40.13,24.78-100.15,26.38-150,1-32.56-37.53-50.21-61.72-28.4-44.16,39.82-105.78,86.09-161.15,94.61" transform="translate(-752.72 -35)"/><path class="cls-6" d="M2348.53,2420.29c8.5-5.17,17.12-9.65,25.68-14.12s17.18-8.6,25.77-12.66,17.1-8.23,25.83-11.67a170,170,0,0,1,26.84-8.62h.09a15.2,15.2,0,0,1,10.86,28,130.56,130.56,0,0,1-26.87,11.41,235,235,0,0,1-28.47,6.68c-9.61,1.78-19.31,3.11-29.07,4.07a240.22,240.22,0,0,1-29.58,1.09,2.24,2.24,0,0,1-2.16-2.31A2.27,2.27,0,0,1,2348.53,2420.29Z" transform="translate(-752.72 -35)"/><path class="cls-6" d="M1521.28,1875c2.15-2.62,3.7-4.37,5.55-6.42s3.67-3.79,5.55-5.6c3.73-3.68,7.75-7,11.79-10.22a179.1,179.1,0,0,1,26.16-17,185.63,185.63,0,0,1,60.21-19.62,181.77,181.77,0,0,1,32.24-1.5,170.79,170.79,0,0,1,31.9,4.81c20.76,5.39,40.23,14.77,56.21,28a17.49,17.49,0,0,1-14.49,30.63l-.83-.17c-17.52-3.43-33.76-6.36-49.84-7.6-8-.48-16-.77-23.92-.57s-15.82.86-23.72,1.81a272.11,272.11,0,0,0-47.44,10.94c-7.94,2.51-15.84,5.44-23.77,8.55-4,1.47-7.89,3.25-11.86,4.87l-5.87,2.56c-1.91.73-4.05,1.86-5.47,2.26l-4.72,1.32a16.94,16.94,0,0,1-17.68-27Z" transform="translate(-752.72 -35)"/><path class="cls-6" d="M2443.37,1898.37c-1.42-.39-3.57-1.51-5.48-2.24l-5.88-2.52c-4-1.6-7.86-3.36-11.89-4.81-7.95-3.07-15.86-6-23.81-8.42a272.38,272.38,0,0,0-47.5-10.68c-7.91-.91-15.81-1.49-23.74-1.69s-15.86.17-23.91.7c-16.07,1.32-32.3,4.34-49.8,7.86l-.8.17a17.49,17.49,0,0,1-14.68-30.55c15.91-13.32,35.33-22.8,56.06-28.3a171.54,171.54,0,0,1,31.87-5,182.77,182.77,0,0,1,32.25,1.33,185.82,185.82,0,0,1,60.32,19.3,179.38,179.38,0,0,1,26.25,16.87c4.06,3.25,8.09,6.5,11.84,10.16,1.89,1.81,3.76,3.64,5.58,5.57s3.42,3.78,5.58,6.39a16.94,16.94,0,0,1-17.43,27.17Z" transform="translate(-752.72 -35)"/><path class="cls-6" d="M2098.92,2052.13a131.8,131.8,0,0,1-12.21,10.07c-4.1,3-8.38,5.69-12.7,8.38a173.2,173.2,0,0,1-27.55,13.21A167.81,167.81,0,0,1,1984.7,2095a162,162,0,0,1-61.78-13.87,181,181,0,0,1-26.86-14.61c-4.17-2.9-8.33-5.75-12.26-9a131.64,131.64,0,0,1-11.69-10.56,16.14,16.14,0,0,1,16.2-26.77l2.43.75c3.5,1.07,7.82,2.79,11.79,4.14s8.07,2.87,12.14,4.13c8.09,2.63,16.13,5,24.1,7a199.06,199.06,0,0,0,46.59,6.75,188.05,188.05,0,0,0,23.4-1.28,242.08,242.08,0,0,0,24-3.79c8.1-1.6,16.26-3.57,24.47-5.79,4.14-1,8.22-2.26,12.35-3.43s8.44-2.6,12-3.45l2.55-.62a16.14,16.14,0,0,1,14.8,27.5Z" transform="translate(-752.72 -35)"/><path d="M1542.27,564.52c17.37,48.14,31.75,97.64,52.73,144.15,47.92,106.27,162.25,155.5,273.75,121.24,59.84-18.39,91.63-63.79,83.42-119.14-9-60.37-44.91-90-113.76-85.37-32.19,2.14-51-7.56-62.46-35.57-13.56-33.22-26.6-66.65-40.39-101.3,47.73-2.46,86.29-.83,123.45-7.25,48.9-8.44,80-45.11,71.35-75.6-10.17-35.73-54.27-58.92-99.21-45.72-49.5,14.55-97.17,35.31-148.63,54.48L1619.88,310c70.28-61.36,150.41-88.63,239-85.65,96,3.23,165.49,101.78,133.85,192.65-16.36,46.95-48,88.59-73.61,134.24,49.21,37.15,91.13,30.51,131-32.08,20.67-32.49,36.85-67.91,58.16-99.94,70.81-106.45,207.22-110.88,279-5.34,84.49,124.19,80.61,257.76,18.05,389.08-36.2,76-114.12,110.15-188.77,94.64-69.4-14.41-117-74.47-124.76-160-2.34-25.86-.36-52.11-.36-79.52,9.87,1.41,13.91,1.08,14.36,2.19,28.07,69.62,66.18,98.13,124,92.37,72.94-7.28,145.3-69.07,153.44-140.11a371.46,371.46,0,0,0-7.9-127.35c-14.38-59.34-79.89-75.82-125.31-34.59a224.33,224.33,0,0,0-44.1,55.45c-42.18,75.16-89.09,140.71-190.94,114.33,9.24,44.71,21.34,84.16,24.91,124.37,7.72,87.21-25.29,159.43-100.53,204.24-71.4,42.51-149.31,37.49-221.39-.16-110.38-57.65-161.36-157.41-179.63-276.05-5.43-35.24-5-71.39-7.26-107.12Z" transform="translate(-752.72 -35)"/><path d="M2295.56,138.81c7.88,8.84,11.89,13.17,15.72,17.65,68.89,80.54,67,88.95-30.42,137.57-124.32,62.05-242.41,41.68-313-59.88-23.14-33.31-32.44-76.23-41.47-118.47,51.91,51.76,97.66,104.62,177,108.53C2181.46,228.06,2235.22,179.69,2295.56,138.81Z" transform="translate(-752.72 -35)"/><path d="M2103.7,208.53l-87.79-76.48L2103.8,35l93.87,86Z" transform="translate(-752.72 -35)"/></svg>