<svg id="Layer_1" data-name="Layer 1" xmlns="http://www.w3.org/2000/svg" viewBox="0 0 2352.66 2882.11"><defs><style>.cls-1{opacity:0.3;}.cls-2{fill:#371a45;}.cls-3{fill:#6a5b75;}.cls-3,.cls-6{stroke:#371a45;stroke-miterlimit:10;stroke-width:0;}.cls-4{opacity:0.55;}.cls-5{fill:#fff;}.cls-6{fill:none;}.cls-7{fill:#ffb127;}.cls-8{opacity:0.6;}.cls-9{fill:#eb5463;}</style></defs><g class="cls-1"><ellipse class="cls-2" cx="1180.97" cy="2722.61" rx="950.5" ry="159.5"/></g><path class="cls-3" d="M3157.86,1685.6c-.51-1.95-1.06-3.8-1.71-5.65a85.12,85.12,0,0,0-29.7-42.15c-65-50.2-211.55,15.85-454.8,83.8,0,0-.1.05-.14.05-8.61-397.05-81.21-688.05-310.21-821.4a.07.07,0,0,0-.1,0l0,0-.05-.05c-92.7-53.9-211-82-361.1-80.8-521-4.1-659.45,344.45-671.5,902.3-243.3-68-390-134.05-454.95-83.85-98,75.7,8.05,300.2,348.3,542.1l9.2-39.3.15.15c-118.25,481.6-20.15,803.9,258.4,976.9q86,53.32,194.4,87.85a1041.67,1041.67,0,0,0,632,0c428.45-136.65,599.4-492.45,447.6-1085.45l.45-.25,14.1,60.1c251.2-178.55,374.75-347.65,382.8-454.4v-.1A123.66,123.66,0,0,0,3157.86,1685.6Zm-486.31,39.75v-.45l.1.5Z" transform="translate(-823.68 -617.34)"/><g class="cls-4"><path class="cls-5" d="M3126.45,1637.8c-62-48-230.9,19.35-454.94,83.85.54,16.15,8.21,27.63,8.56,44.18,235.5-65.75,405.58-134.13,473.58-92.68A85,85,0,0,0,3126.45,1637.8ZM2797.8,2159.65l-.45.25c.45,1.75.9,3.5,1.3,5.2a1.81,1.81,0,0,0,.36-.25Zm-1542,59.85c6.25-27.85,11.85-55.8,16.35-83.95a25.82,25.82,0,0,0-26.75-29.8l-1.6.1s-23.4,80.9-24.75,87.35c-79.85,366.4-28.94,636.15,135.65,814.05C1215.35,2827.5,1177.7,2566.25,1255.8,2219.5Z" transform="translate(-823.68 -617.34)"/></g><g class="cls-4"><path class="cls-5" d="M2502.4,1025.4c-102.7-109.1-252.85-167.9-468.65-166.2-512.91-4-655.06,333.72-670.84,876.49a265.31,265.31,0,0,1-6.89,52.49l-36.37,155.52,8.1-192c-222.75-64.25-358.6-121.85-420.45-74-60.9,47-43,151.55,60.9,282-133.3-148.85-161.65-270.1-94.65-321.85,65-50.2,211.65,15.9,455,83.85,12-557.85,150.5-906.4,671.5-902.3C2240.75,817.45,2399.8,890.85,2502.4,1025.4Z" transform="translate(-823.68 -617.34)"/></g><g class="cls-4"><path class="cls-5" d="M2671.55,1724.9v.45l.1.05Z" transform="translate(-823.68 -617.34)"/><path class="cls-6" d="M2671.55,1724.9v.45l.1.05Z" transform="translate(-823.68 -617.34)"/></g><path class="cls-7" d="M1880,3247.65c-1.14,93.3-112.85,109.2-169.3,60.9a259.42,259.42,0,0,1-27.1,31.35c-19.95,19.4-40.25,31.25-60.35,36.1-54.25,13.2-107.25-24.45-148.7-102.55q-3.75,1.28-7.35,2.4c-154,48.05-217-53.3,29.5-153.85l178.35,58.45Z" transform="translate(-823.68 -617.34)"/><g class="cls-8"><path class="cls-5" d="M1880,3247.65c0,5.3.7.5,0,5.3l-360-107.8c-128.15,52.3-172.65,104.75-164.2,136.35-51.5-21.3-28-90.55,141-159.5Z" transform="translate(-823.68 -617.34)"/></g><g class="cls-1"><path class="cls-2" d="M1880,3247.65c-1.14,93.3-112.85,109.2-169.3,60.9a259.42,259.42,0,0,1-27.1,31.35c-19.95,19.4-40.25,31.25-60.35,36.1a133.55,133.55,0,0,0,33.55-184.3l18.25-11.25Z" transform="translate(-823.68 -617.34)"/></g><g class="cls-8"><path class="cls-5" d="M1691.25,3312.6c-.2,1.1-2.7,12.15-7.65,27.3-73.75,71.65-152.24,40.6-209-66.45q-3.75,1.28-7.35,2.4l-2.9-43.85h0a28.88,28.88,0,0,1,34.15,16.29c14.15,32.26,46,87.45,100.35,95.06C1674.15,3353.85,1690.4,3314.75,1691.25,3312.6Z" transform="translate(-823.68 -617.34)"/></g><path class="cls-7" d="M2532.86,3273.45c-63.81,120.3-155.06,144.65-236.11,35.1-56.45,48.3-168.15,32.4-169.35-60.9l113.3-37.15,240.15-78.7,29.85-9.8C2761.1,3224.15,2692.2,3327.1,2532.86,3273.45Z" transform="translate(-823.68 -617.34)"/><path class="cls-5" d="M2683.35,2970.8c-386.59,444.2-1155.26,293.6-1357.4,0-194.55-285.25-50.75-550,18.1-648.4,36.85-52.7,68.2-109.15,91.85-169,62-156.85,45.55-261.4,24.3-591.8-21.1-198.8,94.1-377.8,233.3-417.3,92.86-26.4,200.25,20.8,278.75,178,13.85,27.7,53.3,27.85,67.9.55,90.15-168.75,197.95-209.65,295.8-171.8,130,50.25,233.2,221.4,213.16,410.55-21.25,330.4-37.76,434.95,24.24,591.8,23.7,59.8,55.05,116.25,91.91,169C2734.05,2420.85,2877.86,2685.55,2683.35,2970.8Z" transform="translate(-823.68 -617.34)"/><g class="cls-1"><path class="cls-2" d="M2532.86,3273.45c-63.81,120.3-155.06,144.65-236.11,35.1-56.45,48.3-168.15,32.4-169.35-60.9l113.3-37.15c8.5,2.05,17,4.15,25.55,6.1,41.9,9.65,67.45,55.1,108.7,67.35,36.5,10.85,77.85-9.2,97.81-41.65s20.44-74.3,8-110.3c.05-.05.05-.15.1-.2l29.85-9.8C2761.1,3224.15,2692.2,3327.1,2532.86,3273.45Z" transform="translate(-823.68 -617.34)"/></g><g class="cls-1"><path class="cls-2" d="M2044.65,1511.05c225,110.51,221.67,272.28,46.67,200.62" transform="translate(-823.68 -617.34)"/></g><path class="cls-2" d="M2021.42,834.71c-57.33-1.22-114.7,1.3-171,10S1739,868.43,1687.66,891.93c-51.52,23.09-98,56.32-137.56,96.2-10.3,9.61-19.07,20.68-28.37,31.25-4.78,5.18-8.76,11-13,16.64L1496,1053l-11.52,17.81c-3.76,6-7.91,11.71-11.19,18l-10.41,18.53c-1.7,3.11-3.54,6.13-5.13,9.3l-4.66,9.58c-25.29,50.85-44.25,105-58.71,160.39-14.28,55.47-24.3,112.17-31.28,169.28-1.7,14.3-3.56,28.56-4.82,42.92s-3.08,28.63-4.14,43l-3.32,43.12c-.77,14.42-1.86,28.81-2.77,43.21-1.47,28.84-3.43,57.67-4.36,86.58-.6,14.45-2,28.88-3.46,43.34-1.74,14.45-3.83,28.92-7.64,43.41l0,.13a5.13,5.13,0,0,1-10-.14c-6.77-29.09-8.85-58.29-8.79-87.46,0-14.58.19-29.17.63-43.76s.59-29.18,1.39-43.77,1.37-29.18,2.29-43.76l3.51-43.72c2.68-29.13,5.58-58.26,9.84-87.26,8.16-58,18.7-115.87,33.84-172.77s34.47-113,61-166.17l4.87-10c1.67-3.31,3.59-6.51,5.38-9.76l10.92-19.45c3.46-6.59,7.82-12.67,11.79-19l12.16-18.76,13.4-17.94c4.53-5.94,8.75-12.1,13.82-17.62,9.86-11.25,19.2-22.95,30.14-33.22,42.12-42.46,91.81-77.91,146.35-102.36,54.35-24.9,112.28-40.61,170.72-49.63s117.62-11.59,176.38-10.34a15,15,0,1,1-.64,30Z" transform="translate(-823.68 -617.34)"/><path class="cls-2" d="M1213.18,2192.1c-237.77-169-387-350.84-389.47-474.5-.77-38.81,13.3-70.52,40.7-91.68,56-43.25,153.14-13.54,314.12,35.69,45.91,14,98,30,154.65,45.78l-8.06,28.9c-57.06-15.93-109.29-31.9-155.36-46-146.52-44.8-243.3-74.4-287-40.64-19.86,15.34-29.63,38-29,67.35,1.78,89.61,101.72,255,376.85,450.64Z" transform="translate(-823.68 -617.34)"/><path class="cls-2" d="M1977.81,804.72c58.77-1.25,117.87,1.3,176.39,10.34s116.37,24.73,170.72,49.63c54.54,24.45,104.23,59.9,146.34,102.36,10.95,10.27,20.29,22,30.15,33.22,5.07,5.52,9.29,11.68,13.82,17.62l13.4,17.94,12.16,18.76c4,6.3,8.33,12.38,11.79,19L2563.5,1093c1.78,3.25,3.71,6.45,5.38,9.76l4.87,10c26.52,53.16,45.89,109.29,61,166.15s25.73,114.75,33.87,172.77c4.26,29,7,58.16,9.76,87.28l3.5,43.72,2.24,43.76c.81,14.59.95,29.19,1.37,43.77s.64,29.18.62,43.76c0,29.18-2.16,58.37-8.72,87.46a5.13,5.13,0,0,1-10,.1l0-.09c-7.09-29-9.32-57.87-11-86.75-1-28.91-2.85-57.75-4.38-86.58l-2.83-43.21-3.33-43.12c-2.56-28.7-5.43-57.38-9-85.92-7-57.11-16.92-113.83-31.26-169.28s-33.37-109.55-58.63-160.41l-4.66-9.58c-1.59-3.17-3.43-6.19-5.13-9.3l-10.41-18.53c-3.28-6.3-7.43-12-11.19-18L2504,1053,2491.33,1036c-4.28-5.6-8.26-11.46-13-16.64-9.3-10.57-18.08-21.64-28.37-31.25-39.61-39.88-86-73.11-137.57-96.2-51.32-23.5-106.51-38.55-162.75-47.23s-113.67-11.21-171-10h-.15a15,15,0,0,1-.64-30Z" transform="translate(-823.68 -617.34)"/><path class="cls-2" d="M2762.69,2096.56a218.18,218.18,0,0,1,11.57,24c3.49,8.11,6.55,16.35,9.4,24.64,5.65,16.61,9.31,33.74,13.39,50.74,7.63,34.15,14.64,68.49,20.08,103.13l2.17,13,1.78,13,3.49,26.08c1.23,8.69,2.07,17.43,2.85,26.18l2.47,26.23c1,8.73,1.28,17.53,1.82,26.3l1.52,26.33c.63,17.58.86,35.19,1,52.78-.65,70.43-7.87,141.07-23.61,210.12-2.07,8.61-4.48,17.14-6.71,25.71l-3.41,12.84c-1.14,4.28-2.66,8.46-4,12.69l-8.19,25.31-9.46,24.88-4.77,12.43-5.46,12.16c-3.69,8.08-7.19,16.25-11.06,24.25-8.31,15.71-16.07,31.73-25.63,46.76-8.79,15.49-19.2,30-29.24,44.64-5.2,7.21-10.85,14.1-16.27,21.16l-8.23,10.51-8.81,10c-23,27.2-49.11,51.55-76.37,74.29l-20.82,16.62c-7.13,5.27-14.42,10.33-21.63,15.49l-10.86,7.7-11.22,7.11c-7.51,4.72-14.93,9.56-22.5,14.15l-23.13,13c-3.88,2.13-7.67,4.44-11.62,6.42l-11.86,5.94c-7.92,3.92-15.77,8-23.76,11.78l-24.21,10.72c-129.7,55.74-270.57,83.46-411.44,83.87-140.86-.41-281.73-28.13-411.43-83.87L1564.35,3175c-8-3.79-15.83-7.86-23.75-11.78l-11.86-5.94c-4-2-7.74-4.29-11.62-6.42l-23.13-13c-7.57-4.59-15-9.43-22.5-14.15l-11.22-7.11-10.86-7.7c-7.21-5.16-14.5-10.22-21.63-15.49L1407,3076.74c-27.26-22.74-53.38-47.09-76.37-74.29l-8.82-10-8.23-10.51c-5.41-7.06-11.06-14-16.26-21.16-10-14.69-20.45-29.15-29.24-44.64-9.56-15-17.32-31-25.64-46.76-3.86-8-7.36-16.17-11.05-24.25l-5.46-12.16-4.77-12.43c-3.14-8.3-6.42-16.55-9.44-24.89l-8.12-25.33c-1.3-4.23-2.81-8.41-4-12.69l-3.36-12.85c-2.23-8.57-4.65-17.1-6.72-25.7-15.81-69-22.81-139.68-23.56-210.09.19-17.59.27-35.2.87-52.78l1.51-26.33c.55-8.77.87-17.57,1.83-26.29,3-35,7-69.91,12.68-104.51,5.46-34.64,12.47-69,20.15-103.12,4-17,8.07-34.05,13.65-50.67,2.86-8.29,6-16.51,9.38-24.65a242.84,242.84,0,0,1,11.28-24.06A5.15,5.15,0,0,1,1247,2099v.14a247.56,247.56,0,0,1-1.47,26.43c-.9,8.69-2,17.3-3.41,25.84-2.63,17.12-5.69,34.08-9.43,50.89Q1222.58,2253,1215,2304c-4.92,34-9.2,68.1-12.16,102.28-1,8.54-1.29,17.1-1.84,25.65l-1.54,25.66c-.68,17.11-1.05,34.23-1.43,51.35-.28,68.43,6.14,136.82,20.94,203.31,1.94,8.28,4.21,16.48,6.29,24.72l3.23,12.34c1.09,4.12,2.54,8.11,3.79,12.17l7.77,24.27c2.9,8,6,15.86,9,23.79l4.55,11.89,5.22,11.59c3.53,7.71,6.85,15.52,10.54,23.14,7.94,15,15.3,30.25,24.42,44.53,8.35,14.76,18.27,28.48,27.8,42.47,5,6.86,10.33,13.4,15.47,20.12l7.82,10,8.39,9.53c21.85,25.88,46.75,49.06,72.76,70.76l19.87,15.88c6.83,5,13.82,9.87,20.71,14.82l10.39,7.37,10.77,6.82c7.2,4.52,14.31,9.17,21.58,13.58l22.24,12.53c3.73,2.05,7.36,4.27,11.17,6.18l11.43,5.72c7.64,3.77,15.2,7.7,22.9,11.35l23.41,10.36,11.71,5.15,11.94,4.65,23.87,9.31,24.26,8.34c8.11,2.73,16.14,5.69,24.39,8l24.59,7.32c8.17,2.54,16.55,4.35,24.81,6.57,16.51,4.5,33.28,7.93,50,11.52,8.33,1.95,16.81,3.18,25.22,4.71s16.83,3.1,25.31,4.28c17,2.16,33.87,4.94,50.93,6.27,8.52.79,17,1.72,25.56,2.4l25.62,1.47,12.81.7,12.83.25,25.66.49,25.67-.49,12.83-.25,12.81-.7,25.62-1.47c8.53-.68,17-1.61,25.56-2.4,17.06-1.33,34-4.11,50.93-6.27,8.48-1.18,16.87-2.87,25.31-4.28s16.89-2.76,25.22-4.71c16.73-3.59,33.5-7,50-11.52,8.26-2.22,16.64-4,24.81-6.57l24.59-7.32c8.25-2.29,16.28-5.25,24.39-8l24.26-8.34,23.87-9.31,11.94-4.65,11.71-5.15,23.41-10.36c7.69-3.65,15.26-7.58,22.9-11.35l11.43-5.72c3.81-1.91,7.44-4.13,11.17-6.18l22.24-12.53c7.27-4.41,14.38-9.06,21.58-13.58l10.77-6.82,10.39-7.37c6.89-5,13.88-9.78,20.71-14.82l19.87-15.88c26-21.7,50.91-44.88,72.76-70.76l8.39-9.53,7.81-10c5.15-6.72,10.53-13.26,15.48-20.12,9.53-14,19.45-27.71,27.8-42.47,9.12-14.28,16.47-29.57,24.42-44.53,3.69-7.62,7-15.43,10.54-23.14l5.22-11.59,4.55-11.89c3-7.94,6.16-15.81,9-23.8l7.7-24.29c1.23-4.06,2.67-8.06,3.74-12.18l3.2-12.34c2.08-8.25,4.36-16.44,6.3-24.72,14.87-66.46,21.07-134.86,20.9-203.27-.42-17.11-.63-34.23-1.29-51.34l-1.54-25.67c-.55-8.55-.87-17.11-1.84-25.64-3-34.17-7.12-68.27-12.08-102.29s-11-67.91-17.79-101.69c-3.65-16.83-7.14-33.7-9.7-50.82-1.41-8.54-2.6-17.13-3.37-25.85a218.71,218.71,0,0,1-1.2-26.5V2099a5.17,5.17,0,0,1,9.66-2.45Z" transform="translate(-823.68 -617.34)"/><path class="cls-2" d="M2786.84,2192.1l-17.38-24.45c275.13-195.59,375.07-361,376.85-450.64.59-29.35-9.18-52-29-67.35-43.71-33.77-140.5-4.16-287,40.64-46.07,14.09-98.29,30.06-155.35,46l-8.06-28.9c56.7-15.83,108.73-31.74,154.64-45.78,161-49.23,258.15-78.94,314.13-35.69,27.4,21.16,41.47,52.87,40.7,91.68C3173.85,1841.26,3024.61,2023.07,2786.84,2192.1Z" transform="translate(-823.68 -617.34)"/><ellipse class="cls-2" cx="1734.26" cy="1489.08" rx="147.13" ry="106.53" transform="matrix(0.08, -1, 1, 0.08, -708.5, 2485.31)"/><ellipse class="cls-5" cx="1763.18" cy="1468.09" rx="49.41" ry="32.19" transform="translate(-660.88 2494.79) rotate(-85.55)"/><ellipse class="cls-2" cx="2274.26" cy="1489.08" rx="106.53" ry="147.13" transform="translate(-932.3 -436.51) rotate(-4.45)"/><ellipse class="cls-5" cx="2245.33" cy="1468.09" rx="32.19" ry="49.41" transform="translate(-930.75 -438.82) rotate(-4.45)"/><path class="cls-2" d="M2099.23,1660.52c0,39.69-9.81,70.35-25,92-35.85,51.15-101.7,51.67-138.19,1.47-15.74-21.66-26-52.84-26-93.44" transform="translate(-823.68 -617.34)"/><path class="cls-7" d="M2105.13,1654.25l-91.15,14.8a43.44,43.44,0,0,1-5,.6,58.41,58.41,0,0,1-14.15-.6l-90.6-14.7a19.42,19.42,0,0,1-14.4-27.4c37.3-79.2,78.55-117.7,119.15-115.9,38.85,1.8,77.1,40.6,110.75,116.2A19.36,19.36,0,0,1,2105.13,1654.25Z" transform="translate(-823.68 -617.34)"/><g class="cls-8"><path class="cls-5" d="M2053,1525.85a63.35,63.35,0,0,0-16-2.85c-40.6-1.8-81.85,36.7-119.15,115.9a19.49,19.49,0,0,0,.15,16.85l-9.5-1.55a19.42,19.42,0,0,1-14.4-27.4c37.3-79.2,78.55-117.7,119.15-115.9C2026.66,1511.5,2040,1516.5,2053,1525.85Z" transform="translate(-823.68 -617.34)"/></g><path class="cls-9" d="M2074.2,1752.49c-35.85,51.15-101.7,51.67-138.19,1.47,0-.69,0-1.08,0-1.08Q2003.61,1699.11,2074.2,1752.49Z" transform="translate(-823.68 -617.34)"/><path class="cls-2" d="M2004.38,1684.83a75.54,75.54,0,0,1-12-1l-90.62-14.72a34.37,34.37,0,0,1-25.54-48.57c38.94-82.65,82.63-124.55,129.86-124.55h.87c47.16.51,89.7,42.61,126.43,125.13a34.37,34.37,0,0,1-25.85,47.9l-91.16,14.81A75.57,75.57,0,0,1,2004.38,1684.83Zm1.77-158.81c-33.67,0-70.15,38.08-102.78,107.34a4.37,4.37,0,0,0,3.22,6.17l90.61,14.72a45,45,0,0,0,14.37,0l91.16-14.81h0a4.36,4.36,0,0,0,3.24-6.09c-30.64-68.86-65.93-107-99.35-107.33Z" transform="translate(-823.68 -617.34)"/><path class="cls-2" d="M2004.59,1804.2c-30.58,0-59.36-15.5-79.07-42.62-18.66-25.67-28.51-60.61-28.51-101.06a13,13,0,0,1,25.94,0c0,34.93,8.14,64.6,23.55,85.82,14.77,20.31,35.92,31.92,58.1,31.92h.55c22.48-.2,43.77-12.3,58.43-33.22,14.84-21.08,22.68-50.3,22.68-84.52a13,13,0,0,1,25.94,0c0,39.59-9.47,74-27.4,99.43-19.51,27.85-48.46,44-79.42,44.25Z" transform="translate(-823.68 -617.34)"/><g class="cls-1"><path class="cls-2" d="M2105.13,1654.25l-91.15,14.8a43.44,43.44,0,0,1-5,.6v-158.6c38.85,1.8,77.1,40.6,110.75,116.2A19.36,19.36,0,0,1,2105.13,1654.25Z" transform="translate(-823.68 -617.34)"/></g><path class="cls-2" d="M1601.82,3393.62c-2.59,0-5.08-.11-7.48-.28-47.16-3.53-90.88-38.68-127-101.89-74.13,22-134.18,12.16-148.12-25.3-17.78-47.81,46.45-106.89,171.81-158a15,15,0,0,1,11.33,27.78c-126.24,51.5-162.08,100.81-155,119.79,6.2,16.67,52.2,27.18,122.42,3.53a15,15,0,0,1,18,7.18c31.66,59.69,70.28,94.14,108.74,97,34.06,2.58,69.31-19.51,102.06-63.78a15,15,0,0,1,21.8-2.48c27.62,23.6,71.5,29.91,104.36,15,18.09-8.19,39.76-26.07,40.24-64.72a15,15,0,0,1,15-14.81h.19a15,15,0,0,1,14.82,15.18c-.52,41.84-21.61,75.26-57.85,91.68-38.89,17.62-87.61,13.14-123.65-10.19C1671.15,3381.13,1630.82,3393.62,1601.82,3393.62Z" transform="translate(-823.68 -617.34)"/><path class="cls-2" d="M1468.4,3224.7c1.13,3.5,2.63,7.51,4.18,11.21s3.25,7.51,5,11.21c3.51,7.4,7.31,14.66,11.3,21.81a15.32,15.32,0,1,1-28.58,9.29l0-.28c-1-8.68-1.73-17.39-2.13-26.12-.2-4.36-.32-8.73-.3-13.11s.14-8.63.57-13.41a5,5,0,0,1,9.82-1.11Z" transform="translate(-823.68 -617.34)"/><path class="cls-2" d="M1699,3299.17a164.52,164.52,0,0,1,14-11.6,177.25,177.25,0,0,1,14.72-9.94c10.17-6.05,21.27-11.34,33.52-13.09a5,5,0,0,1,2.89,9.51l-.33.16c-9,4.3-16.61,11.28-23.47,18.95a153.51,153.51,0,0,0-9.69,12.12,136.12,136.12,0,0,0-8.23,12.66,15.22,15.22,0,0,1-26.68-14.67,15.48,15.48,0,0,1,2.86-3.71Z" transform="translate(-823.68 -617.34)"/><path class="cls-2" d="M2405.63,3393.62c-29,0-69.33-12.49-111.71-64.29-36,23.34-84.77,27.8-123.65,10.19-36.24-16.42-57.33-49.84-57.85-91.68a15,15,0,0,1,30-.37c.48,38.65,22.15,56.53,40.23,64.72,32.86,14.89,76.75,8.57,104.36-15a15,15,0,0,1,21.81,2.48c32.74,44.26,68,66.37,102,63.78,38.46-2.88,77.08-37.33,108.74-97a15,15,0,0,1,18-7.18c70.24,23.64,116.22,13.14,122.43-3.53,7.06-19-28.79-68.29-155-119.79a15,15,0,0,1,11.33-27.78c125.37,51.14,189.6,110.22,171.81,158-13.93,37.46-74,47.34-148.12,25.3-36.08,63.21-79.81,98.36-127,101.89C2410.71,3393.51,2408.21,3393.62,2405.63,3393.62Z" transform="translate(-823.68 -617.34)"/><path class="cls-2" d="M2549,3225.3c.43,4.78.55,9,.57,13.41s-.1,8.75-.3,13.11c-.4,8.73-1.14,17.44-2.13,26.12l0,.2a15.32,15.32,0,1,1-28.59-9.21c4-7.15,7.79-14.41,11.31-21.81,1.75-3.7,3.44-7.44,5-11.21s3-7.71,4.18-11.21l.16-.51a5,5,0,0,1,9.82,1.11Z" transform="translate(-823.68 -617.34)"/><path class="cls-2" d="M2285.06,3317.94a136.29,136.29,0,0,0-8.24-12.66,151.14,151.14,0,0,0-9.68-12.12c-6.86-7.67-14.52-14.65-23.48-18.95l-.32-.15a5,5,0,0,1,2.89-9.52c12.24,1.75,23.35,7,33.51,13.09a175.6,175.6,0,0,1,14.72,9.94,163,163,0,0,1,14,11.6l.37.35a15.22,15.22,0,0,1-20.87,22.17A15.47,15.47,0,0,1,2285.06,3317.94Z" transform="translate(-823.68 -617.34)"/><path class="cls-3" d="M1954.65,866.67c-125-231.67,99-341.82,119.47-92.75,74.89-130.59,240.53-24.46,42.2,92.75" transform="translate(-823.68 -617.34)"/><g class="cls-4"><path class="cls-5" d="M2044.75,670c-62.14-45.8-135.93,49.58-88.85,190l-1.25,6.65C1853.15,678.5,1981.8,570.5,2044.75,670Z" transform="translate(-823.68 -617.34)"/></g><g class="cls-4"><path class="cls-5" d="M2208.35,744.75c-23.8-10.9-60.19-5.08-90.3,26.88-13.69,14.54-38.48,8.6-43.29-10.78l-.11-.43C2119.6,707.32,2196.85,707,2208.35,744.75Z" transform="translate(-823.68 -617.34)"/></g><path class="cls-2" d="M1950.25,869a137.29,137.29,0,0,1-32.67-49.63c-3.92-9.18-6.51-18.92-9.46-28.54-1.32-4.86-2.26-9.86-3.32-14.81a142.25,142.25,0,0,1-2.43-15.08c-2.59-20.24-2.42-41.27,2.2-62s13.72-41.24,29.52-57.84a84.74,84.74,0,0,1,29.1-19.55,68.77,68.77,0,0,1,36.18-3.11c12.22,1.94,22.84,7.91,32.07,14.59,4.37,3.62,8.86,7.18,12.35,11.41,1.84,2,3.78,4.06,5.5,6.17l4.7,6.57c12.25,17.71,19.66,37.15,25.08,56.58l3.66,14.67,2.63,14.73c1,4.92,1.55,9.84,2.06,14.75l1.65,14.76-28-6.23a167.63,167.63,0,0,1,28.15-36.27,115.7,115.7,0,0,1,40.1-25.47l5.8-2c1.94-.64,4-1,6-1.49a75.21,75.21,0,0,1,12.34-2c4.14-.57,8.47-.21,12.7-.22,4.29.62,8.58.77,12.84,2.09a64.6,64.6,0,0,1,24.37,11.44,54.05,54.05,0,0,1,17.48,22.17c2.12,4.38,3.07,9,4.11,13.64.43,2.3.47,4.6.67,6.91a34,34,0,0,1,0,6.84l-.58,6.71c-.29,2.19-.87,4.25-1.32,6.38a67.63,67.63,0,0,1-3.81,12.14c-6.2,15.51-15.76,28.17-26.2,39.16-21.21,21.56-46.06,38-74.95,44.44a5.25,5.25,0,0,1-5.13-8.55l.05-.06c18.92-21.79,39.74-38.19,56.57-57.33,8.16-9.57,15.47-19.57,19.89-29.82s6-20.58,2.49-28.43a23.58,23.58,0,0,0-7.8-10.34,31.32,31.32,0,0,0-13-6.17c-9.92-2.71-21.52-1.18-32.23,2.63a85.81,85.81,0,0,0-29.73,19,138.21,138.21,0,0,0-22.79,29.44,15.07,15.07,0,0,1-27.93-5.93l0-.3-1.53-13.6c-.47-4.55-1-9.08-1.89-13.5l-2.36-13.36-3.26-13c-4.74-17.12-11.27-33.67-20.74-47.29l-3.56-5.06c-1.29-1.56-2.7-3-4-4.45-2.55-3.19-5.63-5.43-8.54-7.94-6.09-4.27-12.52-8.09-19.3-8.9a38.37,38.37,0,0,0-19.9,2,54.44,54.44,0,0,0-17.63,12.4c-10.22,11.36-16.86,26.91-20.16,43.32s-3.48,34-1.67,51.5c.54,8.78,2.64,17.49,4.07,26.28,2.13,8.72,4,17.49,7,26.1,2.33,8.77,5.23,17.43,7.46,26.49,1,4.58,2.31,9.08,3.41,13.71a126.76,126.76,0,0,1,2.55,14.45l0,.44a5.25,5.25,0,0,1-8.85,4.31Z" transform="translate(-823.68 -617.34)"/><g class="cls-1"><path class="cls-2" d="M2512.65,2329c-105.8-226.2-57.15-340.85-43-799.8,14.8-478.65-105-624.7-108.45-628.9a.07.07,0,0,1,.1,0c229,133.35,301.6,424.35,310.21,821.4,0,0,.1-.05.14-.05,1.7,192.25,38,258.4,38,258.4,52.5,77.5,172.5-20.35,172.5-20.35,201.55-118.45,265.71-259.65,274-279.7.7-1.6,1-2.45,1-2.45s.25,2.75.71,8.1c.64,7.85,1.69,21.25,3.09,39.8v.1c-1.6,21.45-7.85,45.4-18.9,71.45-41.9,98.9-152.45,227.9-337,363.5q-13.2,9.68-26.9,19.45l-14.1-60.1-.45.25c77.6,303.2,70.85,544.4-11.55,726-82.8,150.15-222.8,254.95-414.25,316a1041.67,1041.67,0,0,1-632,0q-31.5-10.05-61.15-21.75c746.15,70.4,1013-528.85,888.21-770.3-2.56-4.95-5.06-9.85-7.46-14.65" transform="translate(-823.68 -617.34)"/></g></svg>