<svg id="Layer_1" data-name="Layer 1" xmlns="http://www.w3.org/2000/svg" viewBox="0 0 1959.03 2891.19"><defs><style>.cls-1{opacity:0.2;}.cls-2{fill:#000072;}.cls-3{fill:#52a51c;}.cls-4{opacity:0.3;}.cls-5{opacity:0.4;}.cls-6{fill:#fff;}.cls-7{fill:#ecf4a2;}.cls-8{fill:#e7ed77;}.cls-9{fill:#b5e924;}.cls-10{opacity:0.35;}.cls-11{opacity:0.6;}.cls-12{fill:#abaf5f;}.cls-13{fill:#fda098;}</style></defs><g class="cls-1"><ellipse class="cls-2" cx="979.52" cy="2767.78" rx="963.51" ry="123.41"/></g><ellipse class="cls-3" cx="979.52" cy="1812.78" rx="963.51" ry="958.84"/><path class="cls-2" d="M2000,3430.43c-532.66,0-966-431.25-966-961.34s433.36-961.34,966-961.34,966,431.25,966,961.34S2532.66,3430.43,2000,3430.43Zm0-1917.68c-529.91,0-961,429-961,956.34s431.11,956.34,961,956.34,961-429,961-956.34S2529.9,1512.75,2000,1512.75Z" transform="translate(-1020.48 -656.31)"/><g class="cls-4"><ellipse class="cls-2" cx="979.52" cy="1876.72" rx="870.32" ry="888.19"/></g><g class="cls-5"><path class="cls-6" d="M2963.51,2464.1q0,18.22-.67,36.27c-19.16-512.77-442.94-922.58-962.85-922.58s-943.65,409.81-962.82,922.58q-.64-18-.67-36.27c0-529.55,431.35-958.84,963.49-958.84S2963.51,1934.55,2963.51,2464.1Z" transform="translate(-1020.48 -656.31)"/></g><path class="cls-2" d="M2000,3443.94c-540.11,0-979.52-437.32-979.52-974.85s439.41-974.84,979.52-974.84,979.51,437.31,979.51,974.84S2540.1,3443.94,2000,3443.94Zm0-1917.69c-522.46,0-947.51,423-947.51,942.84s425.05,942.84,947.51,942.84,947.51-422.95,947.51-942.84S2522.46,1526.25,2000,1526.25Z" transform="translate(-1020.48 -656.31)"/><ellipse class="cls-7" cx="979.52" cy="1851.45" rx="811.7" ry="862.91"/><path class="cls-2" d="M2000,3373.16c-449,0-814.2-388.22-814.2-865.41s365.24-865.4,814.2-865.4,814.2,388.22,814.2,865.4S2449,3373.16,2000,3373.16Zm0-1725.81c-446.2,0-809.2,386-809.2,860.4s363,860.41,809.2,860.41,809.2-386,809.2-860.41S2446.2,1647.35,2000,1647.35Z" transform="translate(-1020.48 -656.31)"/><path class="cls-8" d="M2811.71,2507.75c0,476.59-363.43,862.91-811.72,862.91s-811.69-386.32-811.69-862.91c0-293.48,137.79-552.73,348.39-708.61,131.37-97.25,291.06-154.3,463.3-154.3s332,57.05,463.33,154.3C2673.88,1955,2811.71,2214.31,2811.71,2507.75Z" transform="translate(-1020.48 -656.31)"/><path class="cls-2" d="M2000,3373.16c-448.95,0-814.19-388.22-814.19-865.41,0-283,130.62-548.67,349.4-710.63,136.8-101.26,297.52-154.78,464.79-154.78s328,53.52,464.82,154.78c218.78,162,349.4,427.64,349.4,710.63C2814.21,2984.94,2449,3373.16,2000,3373.16Zm0-1725.82c-166.19,0-325.88,53.18-461.81,153.81-217.52,161-347.38,425.16-347.38,706.6,0,474.43,363,860.41,809.19,860.41s809.22-386,809.22-860.41c0-281.41-129.86-545.57-347.38-706.61C2325.9,1700.52,2166.2,1647.34,2000,1647.34Z" transform="translate(-1020.48 -656.31)"/><g class="cls-4"><path class="cls-2" d="M2463.32,1799.14c-114.94,110.77-280,180.21-463.33,180.21s-348.36-69.44-463.3-180.21c131.37-97.25,291.06-154.3,463.3-154.3S2332,1701.89,2463.32,1799.14Z" transform="translate(-1020.48 -656.31)"/></g><path class="cls-2" d="M2000,3386.66c-456.4,0-827.71-394.28-827.71-878.91s371.31-878.9,827.71-878.9,827.71,394.27,827.71,878.9S2456.4,3386.66,2000,3386.66Zm0-1725.81c-438.75,0-795.7,379.92-795.7,846.9s357,846.91,795.7,846.91,795.7-379.92,795.7-846.91S2438.75,1660.85,2000,1660.85Z" transform="translate(-1020.48 -656.31)"/><path class="cls-9" d="M2654.83,1296.54c0,220.18-173.76,408.3-418.76,483.21h0a123.85,123.85,0,0,1-73.46,113.14h0a399.57,399.57,0,0,1-325.21,0h0A123.86,123.86,0,0,1,1764,1779.75h0c-245-74.91-418.77-263-418.77-483.21,0-64.36,14.85-126,42-182.84a339.91,339.91,0,0,1-25.22-129.3c0-172.37,126.08-312.09,281.63-312.09,89.1,0,168.57,45.89,220.14,117.49a832.76,832.76,0,0,1,272.6,0c51.57-71.6,131-117.49,220.14-117.49,155.56,0,281.64,139.72,281.64,312.09a339.74,339.74,0,0,1-25.23,129.26C2640,1170.55,2654.83,1232.13,2654.83,1296.54Z" transform="translate(-1020.48 -656.31)"/><g class="cls-10"><path class="cls-6" d="M1376.4,1138.1c3.14,10.31,6.75,20.39,10.75,30.19-23.25,48.68-37.45,100.82-41.06,155.21-.64-8.92-.91-17.93-.91-27A419.29,419.29,0,0,1,1376.4,1138.1Z" transform="translate(-1020.48 -656.31)"/><path class="cls-2" d="M1343.59,1323.68c-.61-8.58-.91-17.72-.91-27.16a421.52,421.52,0,0,1,31.41-159.36l2.65-6.54,2,6.75c3,10,6.64,20.1,10.68,30l.42,1-.48,1c-23.57,49.35-37.31,101.26-40.83,154.3Zm32.54-178.12a416.45,416.45,0,0,0-28.31,140.11,430.48,430.48,0,0,1,36.6-117.46C1381.39,1160.74,1378.61,1153.14,1376.13,1145.56Z" transform="translate(-1020.48 -656.31)"/></g><g class="cls-11"><path class="cls-6" d="M2636.94,1011.73c-12.42-159.61-133.27-284.83-280.51-284.83-89.11,0-168.58,45.86-220.16,117.48a832.58,832.58,0,0,0-272.57,0c-51.58-71.62-131-117.48-220.16-117.48-147.24,0-268.09,125.22-280.51,284.83q-1.12-13.51-1.11-27.34C1361.92,812,1488,672.3,1643.54,672.3c89.11,0,168.58,45.91,220.16,117.48a833.31,833.31,0,0,1,272.57,0c51.58-71.57,131.05-117.48,220.16-117.48,155.53,0,281.62,139.74,281.62,312.09C2638.05,993.6,2637.7,1002.72,2636.94,1011.73Z" transform="translate(-1020.48 -656.31)"/></g><g class="cls-10"><path class="cls-6" d="M2654.84,1296.52c0,9-.28,18.06-.92,27-3.61-54.39-17.85-106.53-41.1-155.25q6.07-14.76,10.75-30.23A418.77,418.77,0,0,1,2654.84,1296.52Z" transform="translate(-1020.48 -656.31)"/><path class="cls-2" d="M2656.42,1323.68h-5c-3.51-53-17.26-104.89-40.87-154.34l-.48-1,.43-1c4-9.63,7.55-19.73,10.67-30l2.05-6.75,2.65,6.54a421.31,421.31,0,0,1,31.45,159.44C2657.33,1306.14,2657,1315,2656.42,1323.68Zm-40.87-155.51a431.41,431.41,0,0,1,36.64,117.53,416,416,0,0,0-28.35-140.22C2621.32,1153.22,2618.54,1160.83,2615.55,1168.17Z" transform="translate(-1020.48 -656.31)"/></g><g class="cls-10"><path class="cls-6" d="M1363,1011.73a335.66,335.66,0,0,0,24.12,102q-5.78,12-10.75,24.4a342.79,342.79,0,0,1-14.48-99.11Q1361.92,1025.18,1363,1011.73Z" transform="translate(-1020.48 -656.31)"/><path class="cls-2" d="M1376.06,1145.62l-2-6.8a345.09,345.09,0,0,1-14.59-99.83c0-9.41.37-18.65,1.12-27.47l5,0a332.31,332.31,0,0,0,24,101.2l.42,1-.48,1c-3.76,7.83-7.35,16-10.69,24.26Zm-11.61-102a340.15,340.15,0,0,0,12.36,87c2.43-5.75,5-11.42,7.61-16.93A335,335,0,0,1,1364.45,1043.57Z" transform="translate(-1020.48 -656.31)"/></g><g class="cls-10"><path class="cls-6" d="M2638.05,1039a343.41,343.41,0,0,1-14.48,99c-3.33-8.21-6.94-16.35-10.75-24.36a336.59,336.59,0,0,0,24.12-101.93C2637.7,1020.7,2638.05,1029.78,2638.05,1039Z" transform="translate(-1020.48 -656.31)"/><path class="cls-2" d="M2623.92,1145.53l-2.67-6.57c-3.15-7.78-6.75-15.93-10.69-24.23l-.48-1,.42-1a333.48,333.48,0,0,0,23.95-101.17l5,0c.75,8.84,1.12,18.08,1.12,27.47a345.71,345.71,0,0,1-14.59,99.75Zm-8.37-32c2.71,5.74,5.25,11.4,7.6,16.91a340.82,340.82,0,0,0,12.37-87A337.6,337.6,0,0,1,2615.55,1113.58Z" transform="translate(-1020.48 -656.31)"/></g><g class="cls-4"><path class="cls-2" d="M2654.84,1296.52c0,220.21-173.78,408.31-418.78,483.22a123.84,123.84,0,0,1-73.44,113.15,399.86,399.86,0,0,1-325.23,0A123.84,123.84,0,0,1,1764,1779.74c-122.47-37.46-227.18-103.2-301.25-187.11s-117.52-186-117.52-296.11a412.57,412.57,0,0,1,2.61-46.54c10.28,92.37,51.31,177.79,114.91,249.84,74.07,83.92,178.78,149.66,301.25,187.15,167.61,49.76,358.67,34.3,472.11,0,227.66-69.63,393.82-237,416.16-437A412,412,0,0,1,2654.84,1296.52Z" transform="translate(-1020.48 -656.31)"/></g><path class="cls-2" d="M2000,1938.77a464.37,464.37,0,0,1-189-40.14,106.38,106.38,0,0,1-63-97.07,14,14,0,0,0-9.55-13.22c-248.58-83.77-409.21-276.82-409.21-491.8,0-63,13.63-124.69,40.53-183.34a354.73,354.73,0,0,1-23.8-128.8c0-180.91,133.52-328.09,297.63-328.09,88.21,0,170.48,42.2,227.18,116.15a853.91,853.91,0,0,1,258.52,0c56.71-74,139-116.15,227.18-116.15,164.12,0,297.64,147.18,297.64,328.09a354.76,354.76,0,0,1-23.8,128.75c26.92,58.66,40.57,120.32,40.57,183.39,0,215-160.62,408-409.21,491.8a14,14,0,0,0-9.55,13.22,106.38,106.38,0,0,1-63,97.07A464.38,464.38,0,0,1,2000,1938.77ZM1643.54,688.31c-146.46,0-265.63,132.82-265.63,296.09a322.55,322.55,0,0,0,24,123.22l2.7,6.56-3.05,6.41c-26.81,56.21-40.4,115.41-40.4,176,0,201,152.08,382.16,387.43,461.48a46,46,0,0,1,31.34,43.54,74.35,74.35,0,0,0,44,67.84,433.1,433.1,0,0,0,352,0,74.35,74.35,0,0,0,44-67.84A46,46,0,0,1,2251.4,1758c235.35-79.32,387.43-260.46,387.43-461.48,0-60.55-13.61-119.77-40.44-176l-3-6.41,2.69-6.56a322.47,322.47,0,0,0,24-123.18c0-163.27-119.17-296.09-265.64-296.09-80.92,0-156.42,40.4-207.15,110.84l-5.82,8.08-9.81-1.65a820.61,820.61,0,0,0-267.31,0l-9.82,1.65-5.81-8.08C1800,728.71,1724.47,688.31,1643.54,688.31Z" transform="translate(-1020.48 -656.31)"/><path class="cls-2" d="M1864.05,1268.33c5.76,17,12.66,31.26,22.17,43a126.14,126.14,0,0,0,33.76,29.06,178.51,178.51,0,0,0,42.53,18.61,165.47,165.47,0,0,0,47.49,6.38c32.24-.33,64.1-9.6,89.93-25.14a133.58,133.58,0,0,0,18-13.2c2.88-2.36,5.08-5.26,7.82-7.78,2.44-2.73,4.6-5.66,7.12-8.45,9.17-11.7,16.14-25.5,23.06-42.46l0,0a2.86,2.86,0,0,1,5.32,0c6.84,17.74,5.55,38.92-3,57.24a150.49,150.49,0,0,1-7.51,13.09,144.29,144.29,0,0,1-9.46,11.7l-5.25,5.34a44.21,44.21,0,0,1-5.5,5c-3.93,2.94-7.64,6.4-11.84,8.86-16.38,10.86-34.57,17.9-53,22.1a243.88,243.88,0,0,1-55.8,5.88,270.38,270.38,0,0,1-55.66-6.37c-18.36-4.17-36.69-10.83-53-21.77s-30.6-26-38.76-44.38-9.53-39-3.84-56.72a2.8,2.8,0,0,1,5.31-.06Z" transform="translate(-1020.48 -656.31)"/><path class="cls-12" d="M2009.71,2000.88c4.77,54.47,7.62,108.94,10.3,163.41,1.11,27.23,2.5,54.46,3.37,81.7l2.54,81.7c2.8,108.94,3.56,217.87,3,326.81q-.32,81.7-1.67,163.4l-1.26,81.7-2.06,81.71c-3,108.93-6.92,217.87-14.27,326.81a9.74,9.74,0,0,1-19.43,0c-7.34-108.94-11.25-217.88-14.26-326.81L1974,2899.6l-1.26-81.7q-1.42-81.69-1.67-163.4c-.52-108.94.25-217.87,3-326.81l2.54-81.7c.87-27.24,2.26-54.47,3.36-81.7,2.68-54.47,5.54-108.94,10.3-163.41a9.75,9.75,0,0,1,19.43,0Z" transform="translate(-1020.48 -656.31)"/><path class="cls-12" d="M1636.51,2038.49l43.8,16.75c7.13,3,14.58,5.31,21.93,7.78s14.72,4.82,22,7.41c7.21,2.74,14.73,4.61,22.15,6.73s14.86,4.1,22.21,6.35,14.88,3.87,22.35,5.66l22.44,5.2a883.77,883.77,0,0,0,182.16,20.57c15.29,0,30.58-.77,45.87-1.09l45.8-3.43c15.2-1.83,30.35-4.14,45.57-6.12l45.31-8.38c60.18-12.86,119-32.61,176.41-57.39a7.09,7.09,0,0,1,6.69,12.45c-53.4,34.79-112.73,61-174.58,78.79l-46.86,11.78c-15.86,2.8-31.72,5.76-47.65,8.31-16,1.72-32,4-48.14,5.23-16.14.57-32.27,1.59-48.42,1.77A684.07,684.07,0,0,1,1804.17,2131c-61.92-17.79-121.32-44.53-174.23-79.94a7.11,7.11,0,0,1,6.49-12.55Z" transform="translate(-1020.48 -656.31)"/><path class="cls-12" d="M1339.79,2444.28c52.23,23.34,104.47,45.29,158.07,63.74,13.26,4.93,26.81,9.07,40.25,13.44,13.38,4.54,27.07,8.15,40.57,12.29s27.19,7.61,40.82,11.28,27.4,6.75,41.11,10a1479.61,1479.61,0,0,0,503.56,30.13c14-1.59,27.95-3.58,41.93-5.35l41.77-6.62,41.62-7.62,41.39-8.91c110.12-25.25,217.36-63.54,320.33-112.35a7.65,7.65,0,0,1,7.24,13.45c-98.66,59.63-206.44,104.92-318.36,135.48L2297.91,2604l-42.51,9.45c-14.27,2.64-28.54,5.38-42.86,7.84-14.36,2.16-28.69,4.53-43.09,6.5a1320.43,1320.43,0,0,1-518.8-33.22c-112-30.58-219.88-76.38-318-136.76l0,0a7.66,7.66,0,0,1,7.14-13.51Z" transform="translate(-1020.48 -656.31)"/><path class="cls-12" d="M1536.46,2918.24c9.34,3.93,18.69,7.4,28,11l27.72,11c9.08,4,18.59,7,28,10.2s18.77,6.35,28,9.72c9.21,3.57,18.82,6,28.29,8.81s19,5.4,28.39,8.32c9.34,3.12,19,5,28.59,7.39l28.7,6.81a1109,1109,0,0,0,233.39,26.57c19.59-.07,39.18-.94,58.79-1.34,19.56-1.28,39.1-3,58.69-4.49,19.47-2.41,38.88-5.4,58.37-8l58-11c77-16.82,152.17-42.56,225.16-75a7.91,7.91,0,0,1,7.48,13.9c-68.54,43.63-144.27,76.6-223.12,98.91-19.88,4.91-39.75,10-59.72,14.77-20.21,3.51-40.41,7.24-60.7,10.44l-30.62,3.46c-10.22,1-20.41,2.55-30.67,3.11l-30.81,1.35c-10.28.31-20.55,1.2-30.83,1a883.43,883.43,0,0,1-243.67-32.8c-78.95-22.32-154.72-55.91-222.74-100.16l-.05,0a7.92,7.92,0,0,1,7.38-14Z" transform="translate(-1020.48 -656.31)"/><g class="cls-10"><path class="cls-2" d="M2573.56,2060.5c-70.44-59.63-177.62-36.09-219,46.39a478.85,478.85,0,0,1-37.18,61.31c-33.91,48-116.78,83.28-154.13,153.53-120,225.8,203.8,415.95,378.71,215.87,180.39-206.34,146.09-372.77,36.86-472.49Q2576.3,2062.81,2573.56,2060.5Z" transform="translate(-1020.48 -656.31)"/></g><g class="cls-10"><path class="cls-2" d="M1426.88,2060.5c70.44-59.63,177.62-36.09,219,46.39a478.85,478.85,0,0,0,37.18,61.31c33.9,48,116.78,83.28,154.12,153.53,120,225.8-203.8,415.95-378.71,215.87-180.39-206.34-146.09-372.77-36.86-472.49Q1424.15,2062.81,1426.88,2060.5Z" transform="translate(-1020.48 -656.31)"/></g><path class="cls-9" d="M2577.06,1995.29c-68.55-58-172.86-35.12-213.14,45.15a468.34,468.34,0,0,1-36.19,59.66c-33,46.72-113.65,81.05-150,149.41-116.81,219.75,198.33,404.8,368.55,210.09,175.55-200.81,142.17-362.78,35.87-459.82C2580.54,1998.29,2578.83,1996.8,2577.06,1995.29Z" transform="translate(-1020.48 -656.31)"/><g class="cls-11"><path class="cls-6" d="M2656.74,2110.28a310.7,310.7,0,0,0-53.09-62.61c-1.74-1.59-3.61-3.22-5.51-4.84-74.12-62.73-186.87-38-230.4,48.8a503.5,503.5,0,0,1-39.12,64.47c-35.67,50.51-122.87,87.65-162.15,161.52a252.33,252.33,0,0,0-14,31.23c-.67-31.39,7-64.95,25.31-99.35,36.35-68.36,117-102.68,150-149.42a470.8,470.8,0,0,0,36.18-59.63c40.27-80.27,144.58-103.2,213.14-45.15,1.75,1.5,3.45,3,5.08,4.48C2615.72,2030.41,2642,2067.51,2656.74,2110.28Z" transform="translate(-1020.48 -656.31)"/></g><g class="cls-10"><path class="cls-2" d="M2546.28,2459.58c-158.38,181.2-442.26,33.57-386.8-164.89,41.58,141,256.59,214.33,386.8,65.39,69.67-79.71,106.45-153.31,118.79-219.13C2682.85,2228.67,2653.57,2336.86,2546.28,2459.58Z" transform="translate(-1020.48 -656.31)"/></g><path class="cls-2" d="M2371.85,2557.29a252.3,252.3,0,0,1-142-43.91c-71.07-49-131.05-149.44-66.23-271.38,22.68-42.66,60.74-72.48,94.32-98.78,22.75-17.82,44.24-34.66,56.73-52.35a451.48,451.48,0,0,0,35-57.61A155.55,155.55,0,0,1,2458,1950.05a152,152,0,0,1,129.4,33h0q2.9,2.46,5.54,4.87c61.13,55.8,93.28,126,93,202.88-.35,88.89-43.28,182.86-127.58,279.29C2504.61,2531.59,2436.88,2557.29,2371.85,2557.29ZM2489,1978.91a123.85,123.85,0,0,0-110.74,68.71,485.35,485.35,0,0,1-37.42,61.71c-15.2,21.52-38.49,39.77-63.14,59.08-32.59,25.54-66.3,51.94-85.79,88.61-54.94,103.35-4.1,188.5,56.13,230,76.05,52.43,198.07,62.92,286.25-38,145.64-166.6,159.18-326.06,37.13-437.48q-2.24-2-4.66-4.09h0A120,120,0,0,0,2489,1978.91Z" transform="translate(-1020.48 -656.31)"/><path class="cls-2" d="M2191.18,2438.59c-38,26.53-81.39,30-97,7.66s2.57-61.89,40.54-88.43S2229.16,2412.05,2191.18,2438.59Z" transform="translate(-1020.48 -656.31)"/><path class="cls-9" d="M1424.55,1995.29c68.55-58,172.86-35.12,213.15,45.15a467,467,0,0,0,36.18,59.66c33,46.72,113.65,81.05,150,149.41,116.82,219.75-198.33,404.8-368.55,210.09-175.55-200.81-142.17-362.78-35.87-459.82C1421.08,1998.29,1422.78,1996.8,1424.55,1995.29Z" transform="translate(-1020.48 -656.31)"/><path class="cls-2" d="M1636,2557.43c19.37,42.08,55.11,67,79.82,55.59s29-54.72,9.67-96.8S1616.59,2515.35,1636,2557.43Z" transform="translate(-1020.48 -656.31)"/><ellipse class="cls-13" cx="628.12" cy="669.5" rx="118.38" ry="77.18"/><ellipse class="cls-13" cx="1364.65" cy="669.5" rx="118.38" ry="77.18"/><g class="cls-10"><path class="cls-2" d="M1455.34,2459.58c158.38,181.2,442.26,33.57,386.8-164.89-41.58,141-256.59,214.33-386.8,65.39-69.67-79.71-106.45-153.31-118.79-219.13C1318.77,2228.67,1348.05,2336.86,1455.34,2459.58Z" transform="translate(-1020.48 -656.31)"/></g><g class="cls-4"><path class="cls-2" d="M2811.71,2507.75c0,476.59-363.43,862.91-811.72,862.91s-811.69-386.32-811.69-862.91q0-38.68,3.17-76.54c36.42,395.22,384.5,705.16,808.52,705.16s772.13-309.94,808.55-705.16Q2811.69,2469,2811.71,2507.75Z" transform="translate(-1020.48 -656.31)"/></g><path class="cls-9" d="M2690.32,3170.75c-36.66,136.82-149.66,287.47-304.79,245.9s-177.66-228.54-141-365.36,90-241.41,289.28-188S2727,3033.93,2690.32,3170.75Z" transform="translate(-1020.48 -656.31)"/><g class="cls-11"><path class="cls-6" d="M2690.31,3170.73c-1.15,4.37-2.42,8.73-3.73,13.1,28.56-123.36,19.72-227.07-164.3-276.35-187.83-50.31-246,39.64-282.77,164.66,1.51-7.06,3.21-14,5-20.83,36.66-136.84,89.94-241.43,289.27-188S2727,3033.93,2690.31,3170.73Z" transform="translate(-1020.48 -656.31)"/></g><g class="cls-4"><path class="cls-2" d="M2703.44,3114.51c-3.49,18.29-8,37.06-13.13,56.22-36.66,136.84-149.66,287.49-304.79,245.91s-177.63-228.53-141-365.33c4-14.92,8.21-29.48,12.77-43.49-19.32,120.7,15.56,265.83,155.49,303.29C2557.51,3349.91,2662.49,3232.83,2703.44,3114.51Z" transform="translate(-1020.48 -656.31)"/></g><path class="cls-2" d="M2437.61,3439.7a216.57,216.57,0,0,1-56.22-7.6c-75.95-20.35-129.07-74.94-153.63-157.87-19.85-67.08-19.38-149.85,1.32-227.08,17.61-65.73,40.54-132.23,88.71-173.36,50.95-43.51,122.95-52,220.16-26s155.32,69.41,177.68,132.57c21.14,59.7,7.76,128.76-9.86,194.49h0c-20.69,77.22-61.66,149.14-112.41,197.31C2546.28,3416.88,2493.24,3439.7,2437.61,3439.7Zm1.47-574.54c-41.51,0-74.74,11-100.51,33-41.52,35.46-62.31,96.57-78.58,157.31-19.21,71.69-19.78,148.13-1.54,209.72,14.8,50,49.58,114.17,131.22,136s143.85-16.32,181.66-52.21c46.59-44.22,84.32-110.69,103.53-182.38h0c16.28-60.75,28.83-124.06,10.6-175.54-18.58-52.47-69.54-89.21-155.79-112.33C2495.9,2869.69,2465.78,2865.16,2439.08,2865.16Z" transform="translate(-1020.48 -656.31)"/><path class="cls-2" d="M2363.12,2840.62c11.33-51.36,45-87.6,75.14-80.94s45.43,53.69,34.09,105.05S2351.78,2892,2363.12,2840.62Z" transform="translate(-1020.48 -656.31)"/><path class="cls-2" d="M2482.8,2855.83c15.56-50.24,52.1-83.56,81.61-74.42s40.81,57.28,25.25,107.52S2467.24,2906.07,2482.8,2855.83Z" transform="translate(-1020.48 -656.31)"/><path class="cls-2" d="M2594.72,2905c23.35-47.13,64.72-74.22,92.4-60.5s31.18,63,7.83,110.16S2571.36,2952.17,2594.72,2905Z" transform="translate(-1020.48 -656.31)"/><path class="cls-9" d="M1314.53,3170.75c36.66,136.82,149.67,287.47,304.79,245.9s177.66-228.54,141-365.36-90-241.41-289.28-188S1277.87,3033.93,1314.53,3170.75Z" transform="translate(-1020.48 -656.31)"/><path class="cls-9" d="M2080.73,3364.32h0a130.07,130.07,0,0,1-169.41,5l-22.46-18.17s115.89-82.25,156-237.91c28.51-110.71,80.13,33.71,69.82,159.42C2110.83,3319.29,2080.73,3364.32,2080.73,3364.32Z" transform="translate(-1020.48 -656.31)"/><g class="cls-4"><path class="cls-2" d="M2114.65,3272.66c-3.81,46.62-33.92,91.65-33.92,91.65a130,130,0,0,1-169.42,5l-22.46-18.17A280.83,280.83,0,0,0,1913,3331c1.93.87,3.87,1.7,5.83,2.47,65.39,25.75,138.24-11.45,160.71-78a163.47,163.47,0,0,0,8.39-38.53c4-49.52-1.47-102-11.43-140.54C2100.05,3093,2121.67,3187.16,2114.65,3272.66Z" transform="translate(-1020.48 -656.31)"/></g><path class="cls-2" d="M1993.16,3414.52a145.79,145.79,0,0,1-91.9-32.76l-38.88-31.44,17.22-12.22c1.09-.78,111.68-81.09,149.74-228.85,3.57-13.88,14.48-56.1,44.26-51.13,44.3,7.47,63.64,134.86,57,215.85-4.12,50.18-35.25,97.26-36.57,99.24l-1.09,1.62-1.44,1.32A145.62,145.62,0,0,1,1993.16,3414.52Zm-78.76-63.29,7,5.65a113.39,113.39,0,0,0,147-3c5-8,27.22-45.32,30.28-82.51,6.92-84.46-15.08-163.31-28.81-179.54-2.2,3.42-5.78,10.69-9.58,25.42C2027.93,3243,1948.83,3321.82,1914.4,3351.23Zm166.33,13.09h0Zm0,0h0Z" transform="translate(-1020.48 -656.31)"/><g class="cls-11"><path class="cls-6" d="M1345.18,2110.28a311,311,0,0,1,53.08-62.61c1.75-1.59,3.61-3.22,5.52-4.84,74.11-62.73,186.87-38,230.39,48.8a503.66,503.66,0,0,0,39.13,64.47c35.66,50.51,122.87,87.65,162.15,161.52a253.82,253.82,0,0,1,14,31.23c.67-31.39-7-64.95-25.32-99.35-36.34-68.36-117-102.68-150-149.42a471,471,0,0,1-36.19-59.63c-40.27-80.27-144.58-103.2-213.14-45.15-1.74,1.5-3.45,3-5.07,4.48C1386.2,2030.41,1359.94,2067.51,1345.18,2110.28Z" transform="translate(-1020.48 -656.31)"/></g><path class="cls-2" d="M1629.76,2557.29c-65,0-132.75-25.69-186.49-87.16-84.3-96.43-127.23-190.4-127.58-279.29-.31-76.92,31.84-147.07,93-202.88,1.77-1.62,3.63-3.24,5.56-4.88a152,152,0,0,1,129.39-33A155.51,155.51,0,0,1,1652,2033.26a452,452,0,0,0,35,57.61c12.49,17.69,34,34.53,56.73,52.35,33.58,26.3,71.64,56.12,94.32,98.78,64.82,121.94,4.84,222.4-66.23,271.38A252.43,252.43,0,0,1,1629.76,2557.29Zm-117.1-578.38a120,120,0,0,0-77.77,28.59h0q-2.43,2.07-4.66,4.09c-122,111.42-108.51,270.88,37.13,437.48,88.18,100.86,210.19,90.39,286.25,38,60.23-41.51,111.07-126.66,56.14-230-19.5-36.67-53.21-63.07-85.8-88.61-24.65-19.31-47.94-37.56-63.14-59.08a487,487,0,0,1-37.42-61.71,123.83,123.83,0,0,0-110.73-68.71Zm-88.1,16.38h0Z" transform="translate(-1020.48 -656.31)"/><g class="cls-11"><path class="cls-6" d="M1312.31,3170.73c1.15,4.37,2.42,8.73,3.73,13.1-28.57-123.36-19.72-227.07,164.3-276.35,187.82-50.31,246,39.64,282.77,164.66-1.51-7.06-3.22-14-5-20.83-36.66-136.84-90-241.43-289.28-188S1275.65,3033.93,1312.31,3170.73Z" transform="translate(-1020.48 -656.31)"/></g><g class="cls-4"><path class="cls-2" d="M1299.18,3114.51c3.49,18.29,8,37.06,13.13,56.22C1349,3307.57,1462,3458.22,1617.1,3416.64s177.63-228.53,141-365.33c-4-14.92-8.22-29.48-12.78-43.49,19.32,120.7-15.55,265.83-155.49,303.29C1445.1,3349.91,1340.12,3232.83,1299.18,3114.51Z" transform="translate(-1020.48 -656.31)"/></g><path class="cls-2" d="M1567.63,3439.64c-130,0-231-124.68-268.55-264.75h0C1265,3047.55,1247,2906.76,1466.9,2847.83s274.76,72,308.88,199.32c20.69,77.23,21.17,160,1.31,227.08-24.56,82.93-77.68,137.52-153.63,157.87A214.72,214.72,0,0,1,1567.63,3439.64Zm-237.64-273c31.26,116.64,133,275.35,285.19,234.59,81.64-21.88,116.42-86.06,131.22-136,18.23-61.59,17.68-138-1.53-209.72-40.37-150.64-95.29-223.43-269.68-176.69S1289.62,3016,1330,3166.61Z" transform="translate(-1020.48 -656.31)"/><path class="cls-2" d="M1632.4,2840.62c-11.34-51.36-45-87.6-75.14-80.94s-45.43,53.69-34.1,105.05S1643.73,2892,1632.4,2840.62Z" transform="translate(-1020.48 -656.31)"/><path class="cls-2" d="M1512.72,2855.83c-15.57-50.24-52.1-83.56-81.61-74.42s-40.81,57.28-25.25,107.52S1528.28,2906.07,1512.72,2855.83Z" transform="translate(-1020.48 -656.31)"/><path class="cls-2" d="M1400.8,2905c-23.36-47.13-64.72-74.22-92.4-60.5s-31.19,63-7.84,110.16S1424.15,2952.17,1400.8,2905Z" transform="translate(-1020.48 -656.31)"/><ellipse class="cls-2" cx="1631.63" cy="983.51" rx="187.03" ry="144.29" transform="translate(-629.17 1773.28) rotate(-80.46)"/><ellipse class="cls-6" cx="1588.67" cy="937.72" rx="64.51" ry="38.68" transform="translate(-650.15 1666.64) rotate(-79.22)"/><ellipse class="cls-6" cx="1691.09" cy="1044.85" rx="32.27" ry="19.33" transform="matrix(0.13, -0.99, 0.99, 0.13, -578.98, 1934.52)"/><ellipse class="cls-2" cx="2351.63" cy="983.51" rx="187.03" ry="144.29" transform="translate(-28.49 2483.33) rotate(-80.46)"/><ellipse class="cls-6" cx="2308.67" cy="937.72" rx="64.51" ry="38.68" transform="translate(-64.83 2373.93) rotate(-79.22)"/><ellipse class="cls-6" cx="2411.09" cy="1044.85" rx="32.27" ry="19.33" transform="matrix(0.13, -0.99, 0.99, 0.13, 50.31, 2648.78)"/><path class="cls-2" d="M2262.17,2518.07c-31.25,34.2-72.87,47-93,28.68s-11-60.95,20.23-95.15S2293.43,2483.88,2262.17,2518.07Z" transform="translate(-1020.48 -656.31)"/><path class="cls-2" d="M2365.65,2557.43c-19.38,42.08-55.12,67-79.83,55.59s-29-54.72-9.67-96.8S2385,2515.35,2365.65,2557.43Z" transform="translate(-1020.48 -656.31)"/><path class="cls-2" d="M1810.43,2438.59c38,26.53,81.39,30,97,7.66s-2.57-61.89-40.54-88.43S1772.45,2412.05,1810.43,2438.59Z" transform="translate(-1020.48 -656.31)"/><path class="cls-2" d="M1739.44,2518.07c31.25,34.2,72.87,47,93,28.68s11-60.95-20.22-95.15S1708.19,2483.88,1739.44,2518.07Z" transform="translate(-1020.48 -656.31)"/></svg>