<svg id="Layer_1" data-name="Layer 1" xmlns="http://www.w3.org/2000/svg" viewBox="0 0 2605.6 2506.18"><defs><style>.cls-1{fill:#5a9dff;}.cls-2{opacity:0.2;}.cls-3{fill:#390075;}.cls-4{fill:#fcbf95;}.cls-5{opacity:0.6;}.cls-6{fill:#fff;}.cls-7{fill:#322e57;}.cls-8{fill:#7aa0ff;}.cls-9{fill:#fc5690;}</style></defs><path class="cls-1" d="M1983.43,3230.28c-52.69,32.76-138.28-38.3-138.28-38.3-153.54,97.84-167.51-3.05-167.51-3.05l-85.68-2.32a26.33,26.33,0,0,1-23.64-36.36c12.45-29.93,39.46-55.1,69.21-75.13l.19-.14c3.09-2.08,6.24-4.11,9.39-6.1,51.76-32.48,107.69-49.74,107.69-49.74l-4.72-50.65s-146.27,40.8-195.17-84.89c-34.88-89.66-20.87-167.38,11.42-230.2C1624,2541.17,1740,2476.5,1740,2476.5c180.42-27.76,249.82,388.59,249.82,388.59,27.75,120.28-18.69,231.59-18.69,231.59S2036.17,3197.48,1983.43,3230.28Z" transform="translate(-719.32 -797.6)"/><g class="cls-2"><path class="cls-3" d="M1983.43,3230.28c-52.69,32.76-138.28-38.3-138.28-38.3-153.54,97.84-167.51-3.05-167.51-3.05l-85.68-2.32a26.33,26.33,0,0,1-23.64-36.36c12.45-29.93,39.46-55.1,69.21-75.13l.19-.14c3.09-2.08,6.24-4.11,9.39-6.1,59.9-10.18,126.61-21.38,171.49-32.62,92.52-23.13,78.64-46.26,78.64-46.26-97.15,4.63-64.62-96.18-64.62-96.18-249.63,51.81-266.29-240.42-266.29-240.42C1624,2541.17,1740,2476.5,1740,2476.5c180.42-27.76,249.82,388.59,249.82,388.59,27.75,120.28-18.69,231.59-18.69,231.59S2036.17,3197.48,1983.43,3230.28Z" transform="translate(-719.32 -797.6)"/></g><path class="cls-3" d="M1950.93,3257.52c-42.64,0-86.63-28.14-106.94-43-61.16,36.81-109.53,47.43-143.93,31.54-19.6-9.05-30.77-25.21-36.39-39l-72.21-2a44.82,44.82,0,0,1-40.22-61.95c12.33-29.69,37.88-57.74,75.94-83.39h0l.4-.26c40.54-27.23,85.13-45.12,107.45-53.15l-1.43-15.42c-60.68,9.62-157.44-1.62-195.94-100.62-42.3-108.78-21.87-218,59.08-315.74,59.93-72.39,131.2-112.56,134.2-114.24a18.71,18.71,0,0,1,6.2-2.13c194.35-30,266.64,378.78,270.78,403.28,24.27,105.92-5.67,203.64-16.34,233.32,11.8,20.28,38.17,71.64,29.08,112.17a60.49,60.49,0,0,1-27.45,39C1979.94,3254.23,1965.51,3257.52,1950.93,3257.52Zm-105.77-84a18.52,18.52,0,0,1,11.82,4.26c21,17.36,82.87,57.84,116.69,36.81,5.83-3.62,9.28-8.59,10.87-15.65,6.44-28.59-18.78-76.24-29-92.2a18.54,18.54,0,0,1-1.52-17.15c.43-1,43.77-107.56,17.75-220.3-.08-.36-.15-.74-.22-1.11-18.34-109.86-94.33-389-225.41-373.81-13.55,8.1-72.53,45.16-121.51,104.64-72.35,87.85-90,181.35-52.44,277.92,42.13,108.32,167.7,75.22,173,73.77a18.54,18.54,0,0,1,23.37,16.12l4.69,50.68a18.52,18.52,0,0,1-13,19.39c-.6.18-61.13,19.12-112.23,53.5l-.48.3c-31.76,21.46-52.66,43.9-62.13,66.68a7.81,7.81,0,0,0,7,10.77l85.68,2.33a18.51,18.51,0,0,1,17.83,16c.09.56,3.22,18.68,20,26.2,13.71,6.15,47.41,9.6,119.26-36.21A18.44,18.44,0,0,1,1845.16,3173.48Z" transform="translate(-719.32 -797.6)"/><path class="cls-4" d="M1983.44,3230.27C1930.73,3263,1845.16,3192,1845.16,3192c-153.54,97.86-167.54-3.05-167.54-3.05L1592,3186.6a26.31,26.31,0,0,1-23.63-36.37c12.42-29.91,39.45-55.09,69.18-75.13a.49.49,0,0,1,.18-.11c3.41-1.75,60.19-30.25,100.9,20,0,0,84.54-40.36,112.36,59.28,0,0,14.49-94.27,120.1-57.6C1971.06,3096.68,2036.16,3197.5,1983.44,3230.27Z" transform="translate(-719.32 -797.6)"/><path class="cls-3" d="M1950.93,3257.52c-42.64,0-86.63-28.14-106.94-43-61.16,36.81-109.53,47.43-143.93,31.54-19.6-9.05-30.77-25.21-36.38-39l-72.22-2a44.82,44.82,0,0,1-40.22-61.95c12.33-29.69,37.88-57.74,75.94-83.39h0a19.42,19.42,0,0,1,2-1.22h0c25.18-12.94,75.64-22.91,114.68,14.87,15.74-4.68,43.18-9.4,69.84,2.72,14.8,6.73,27.15,17.47,36.93,32.12a89.49,89.49,0,0,1,27.22-25.8c26.34-15.86,59.73-17,99.23-3.25a18.48,18.48,0,0,1,9.48,7.44c4.64,7.18,45,71.58,34.05,120.33a60.49,60.49,0,0,1-27.45,39C1979.94,3254.23,1965.51,3257.52,1950.93,3257.52Zm-105.77-84a18.52,18.52,0,0,1,11.82,4.26c21,17.36,82.87,57.84,116.69,36.81,5.83-3.62,9.28-8.59,10.87-15.65,5.82-25.83-14.21-67.23-25.69-86.75-25.77-7.87-46.56-7.2-61.86,2-22.66,13.65-27.7,42.64-27.74,42.93a18.51,18.51,0,0,1-36.12,2.16c-7.11-25.47-18.71-42.06-34.47-49.33-24-11.05-51.89,1.69-52.17,1.82a18.63,18.63,0,0,1-22.27-5.09c-29.42-36.32-69.62-19.31-77.23-15.61-31.45,21.34-52.16,43.64-61.57,66.29a7.81,7.81,0,0,0,7,10.77l85.68,2.33a18.51,18.51,0,0,1,17.83,16c.09.56,3.22,18.68,20,26.2,13.71,6.15,47.41,9.6,119.26-36.21A18.44,18.44,0,0,1,1845.16,3173.48Z" transform="translate(-719.32 -797.6)"/><path class="cls-3" d="M1677.6,3207.44a18.53,18.53,0,0,1-18.41-16.8c-6.14-66.25,67-109.8,70.07-111.62A18.51,18.51,0,0,1,1748,3111h0c-.56.33-55.89,33.55-51.93,76.27a18.51,18.51,0,0,1-16.72,20.14C1678.75,3207.41,1678.17,3207.44,1677.6,3207.44Z" transform="translate(-719.32 -797.6)"/><path class="cls-3" d="M1845.19,3210.49a18.82,18.82,0,0,1-2.36-.15,18.51,18.51,0,0,1-16-20.69l5.37-42.31a18.51,18.51,0,1,1,36.72,4.66l-5.37,42.31A18.51,18.51,0,0,1,1845.19,3210.49Z" transform="translate(-719.32 -797.6)"/><path class="cls-3" d="M1749.27,3001.5c6.15-1,11.38-1.57,17-2.11s11-.87,16.49-1.16c11-.53,21.9-.55,32.76-.13a304.34,304.34,0,0,1,32.32,2.93,254.18,254.18,0,0,1,31.35,6.6,246.37,246.37,0,0,0-31.36,2.66,289.09,289.09,0,0,0-30.42,6.22q-15,3.87-29.43,9c-4.8,1.73-9.57,3.51-14.24,5.41s-9.51,4-13.4,5.92a18.75,18.75,0,1,1-11.66-35.22Z" transform="translate(-719.32 -797.6)"/><path class="cls-3" d="M1741.38,2952.18a170.74,170.74,0,0,0,16.42-7.51c5.57-2.81,11.07-5.88,16.46-9.13a254.7,254.7,0,0,0,31-21.87,192.29,192.29,0,0,0,26.62-27.4,138.94,138.94,0,0,0,19-34,143.7,143.7,0,0,1-11,38.69,206,206,0,0,1-21,35.32,280.16,280.16,0,0,1-27.4,31.11c-5,4.86-10.08,9.57-15.43,14.09a207.16,207.16,0,0,1-17.09,13.3l-.22.15a18.66,18.66,0,1,1-21.22-30.69A19.26,19.26,0,0,1,1741.38,2952.18Z" transform="translate(-719.32 -797.6)"/><path class="cls-1" d="M1642.53,2586.18c-28.78,13.23-67.13,12.17-96.23,8.37-14.25-1.89-26.32-4.39-34-6.19-5.09-1.21-8.19-2-8.66-2.13,1.16,2.22,31.83,61.53-12.25,77.53-32.71,11.89-63.24-47.6-77.45-80.86-5.32-12.45-8.32-21.24-8.32-21.24a111,111,0,0,0-8.05,21.24h0c-13.79,49.87,5.09,94.65-45,76.79-26.19-9.39-31.78-48.71-25.86-91.69a300.55,300.55,0,0,1,11.33-49.64c10.73-33.63,26.65-63.15,43.12-75.13,28.17-20.49,78.87-15.26,112.69-8.51a345.28,345.28,0,0,1,34.33,8.51c3.42-3.42,6.94-7.35,10.5-11.7,39.23-47.7,85.63-144.71,85.63-144.71l27.76-46.26c55.51-18.5,87.89,0,92.57,80.17C1751.7,2443.09,1695.59,2561.66,1642.53,2586.18Z" transform="translate(-719.32 -797.6)"/><g class="cls-5"><path class="cls-6" d="M1601.86,2470.85S1380.22,2440,1338,2518.36c10.73-33.63,26.65-63.15,43.12-75.13,28.17-20.49,78.87-15.26,112.69-8.51a345.28,345.28,0,0,1,34.33,8.51c3.42-3.42,6.94-7.35,10.5-11.7Z" transform="translate(-719.32 -797.6)"/></g><g class="cls-2"><path class="cls-7" d="M1642.53,2586.18c-28.78,13.23-67.13,12.17-96.23,8.37-28.26-47.78-44.13-112.87-52.46-159.83a345.28,345.28,0,0,1,34.33,8.51c40.85-40.85,96.13-156.41,96.13-156.41l27.76-46.26c55.51-18.5,87.89,0,92.57,80.17C1751.7,2443.09,1695.59,2561.66,1642.53,2586.18Z" transform="translate(-719.32 -797.6)"/><path class="cls-3" d="M1582.69,2599.55A287.17,287.17,0,0,1,1546,2597l-1.21-.16-.62-1.05c-28.66-48.46-44.52-114.12-52.77-160.67l-.64-3.6,3.59.71c16.34,3.23,29,6.88,33.13,8.13,40-41,94-153.52,94.58-154.66l28.35-47.26.87-.29c28.3-9.44,49.57-8.93,65,1.53,18.31,12.4,28.4,38.85,30.85,80.87,7.1,122.65-48.81,242.57-103.55,267.86h0C1625.33,2596.84,1603.39,2599.55,1582.69,2599.55Zm-34.85-7.32c27.32,3.46,65.31,4.71,93.64-8.32,53.27-24.61,107.63-142.33,100.65-263-2.35-40.36-11.73-65.55-28.66-77-13.91-9.44-33.46-9.83-59.75-1.22l-27.28,45.47c-2.15,4.53-55.82,116.21-96.5,156.89l-1.08,1.08-1.45-.46c-.13,0-12.62-4-30.46-7.71C1505.24,2483.44,1520.67,2545.77,1547.84,2592.23Z" transform="translate(-719.32 -797.6)"/></g><path class="cls-3" d="M1482.63,2683.88c-20.14,0-45.5-14.44-72.29-65.4-.26,2.84-.49,5.62-.7,8.32-1.64,20.45-3.18,39.77-19,50-14.39,9.31-32.18,4.64-44.3.31-32.34-11.55-46.19-52.24-38-111.63,7-50.85,30.48-114.3,61.92-137.2,43-31.28,121.64-14.31,152.08-6,37.34-43.7,84.76-142.36,85.26-143.42a18.51,18.51,0,0,1,33.39,16c-2.31,4.84-57.15,118.93-99.74,161.52a18.48,18.48,0,0,1-18.72,4.53c-24.19-7.71-100.12-24.75-130.49-2.65-17,12.35-39.92,60.43-47,112.31-5.25,38.09.29,66.92,13.78,71.74a47.4,47.4,0,0,0,11.25,2.89c1.36-4.41,2.12-14,2.71-21.29,1-12.94,2.32-29,7-45.89.11-.42.24-.82.38-1.22a130.73,130.73,0,0,1,9-23.39,18.51,18.51,0,0,1,34,2.28c0,.08,2.91,8.4,7.86,20,21.7,50.81,44,74.39,54.08,70.73,6.94-2.53,9.06-6,10.13-8.8,4.67-12.08-3.31-34-7.91-42.75a18.52,18.52,0,0,1,21.38-26.47c.18.05,3.07.86,8,2,18,4.22,79.79,16.67,118.13-1,42-19.38,98.46-125.46,91.37-247.57-2-34.07-9.47-56.43-21.65-64.69-9.53-6.45-25.2-6.11-46.58,1A18.51,18.51,0,1,1,1646.2,2223c33.36-11.12,59.21-10,79,3.45,22.71,15.39,35.08,45.87,37.83,93.18,7.71,132.73-53.27,255.84-112.81,283.32-37,17-85.81,13.52-118.44,8.14,2.44,12.45,3,26.67-2,39.68-5.45,14.22-16.53,24.72-32,30.37A44.19,44.19,0,0,1,1482.63,2683.88Z" transform="translate(-719.32 -797.6)"/><path class="cls-3" d="M1515.92,2520.82a167.89,167.89,0,0,0-4,18.22,62.41,62.41,0,0,0-.38,15.13,52.46,52.46,0,0,0,2.92,12.59,53.35,53.35,0,0,0,2.37,5.63c.41.91.88,1.77,1.34,2.58l.66,1.13.3.45s.27.38,0-.08l-7.33-6.66-.43-.23c-.07,0,0,0,0,0l.11,0,.48.12,1.3.24a22.62,22.62,0,0,0,2.93.33,28.68,28.68,0,0,0,6.25-.43,41.73,41.73,0,0,0,14.77-6.35,128.78,128.78,0,0,0,16.91-13.33c5.89-5.25,11.8-11.15,19-17.07a71.23,71.23,0,0,1-1.87,27,69.5,69.5,0,0,1-12.3,25.52c-6.16,7.87-14.91,15.31-26.27,19a51.47,51.47,0,0,1-17.83,2.61,48.54,48.54,0,0,1-9.16-1.15,42.72,42.72,0,0,1-4.6-1.27l-2.41-.87-1.3-.53-.74-.33-1.12-.54-.2-.09a16.5,16.5,0,0,1-7.13-6.58c-.65-1.09-.78-1.41-1.09-2l-.73-1.55c-.45-1-.85-2-1.23-2.92-.71-1.95-1.33-3.86-1.84-5.8a58.14,58.14,0,0,1-1.82-11.75,53.91,53.91,0,0,1,3.78-23,47.67,47.67,0,0,1,12.6-18.06A43.52,43.52,0,0,1,1515.92,2520.82Z" transform="translate(-719.32 -797.6)"/><path class="cls-3" d="M1534.67,2425.91l91.51,54.08-104.51-19.43a18.79,18.79,0,1,1,6.87-36.95A19.24,19.24,0,0,1,1534.67,2425.91Z" transform="translate(-719.32 -797.6)"/><path class="cls-4" d="M1397.57,2582.9c-13.8,49.86,5.1,94.66-45,76.77-26.18-9.35-31.82-48.68-25.9-91.68C1376.33,2507,1397.57,2582.9,1397.57,2582.9Z" transform="translate(-719.32 -797.6)"/><path class="cls-4" d="M1491.41,2663.76c-32.67,11.88-63.21-47.58-77.42-80.86,39-74.78,83.88-14.42,83.88-14.42,2.28,5.68,5.8,17.68,5.8,17.68S1536.34,2647.42,1491.41,2663.76Z" transform="translate(-719.32 -797.6)"/><path class="cls-3" d="M1371.12,2682.19c-9,0-17.81-2.61-24.77-5.09-32.34-11.55-46.19-52.24-38-111.63a18.49,18.49,0,0,1,4-9.16c19.35-23.76,39-33.75,58.53-29.7,31.16,6.49,43.26,46.73,44.54,51.3a18.46,18.46,0,0,1,0,9.92c-3.72,13.45-4.8,27-5.76,39-1.64,20.45-3.18,39.77-19,50A35.2,35.2,0,0,1,1371.12,2682.19Zm-26.77-106.41c-4.06,35.46,1.58,61.87,14.44,66.47a47.4,47.4,0,0,0,11.25,2.89c1.36-4.41,2.12-14,2.71-21.29.92-11.5,2-25.49,5.55-40.29-3.66-9.63-10.2-19.74-15-20.72C1360.82,2562.36,1354.26,2564.67,1344.35,2575.78Z" transform="translate(-719.32 -797.6)"/><path class="cls-3" d="M1482.63,2683.88c-23.46,0-54-19.6-85.66-93.72a18.47,18.47,0,0,1,.61-15.82c15.42-29.56,34.56-45.44,56.89-47.22,32.9-2.57,55.74,26.94,58.24,30.32a18.17,18.17,0,0,1,2.32,4.12c2.08,5.16,4.76,13.91,5.89,17.69,4.43,8.88,19.76,43.11,8.87,71.53-5.45,14.22-16.53,24.72-32,30.36h0A44,44,0,0,1,1482.63,2683.88Zm-48-100c20.52,45.08,41,65.89,50.43,62.45h0c6.94-2.52,9.06-6,10.13-8.79,4.67-12.08-3.31-34-7.91-42.75a18.57,18.57,0,0,1-1.4-3.46c-1-3.5-2.89-9.53-4.31-13.55-4.48-5.12-14.75-14.51-24.27-13.79C1450.16,2564.63,1442.26,2571.62,1434.66,2583.92Z" transform="translate(-719.32 -797.6)"/><path class="cls-1" d="M3305.91,2233.62c-13.88,393.23-416.35,536.64-504.25,550.52s-268.32,0-268.32,0S2228,2992.31,1913.43,2835c-160-80-258.6-275.48-301.85-502.17q-5.76-30.1-10.18-60.92c-29.52-203.28-16.65-424.73,34.46-607.33,32.39-115.65,127.22-160.85,189.68-180.42,11.89-3.74,23.36-7.08,34.32-10,235.11-63.7,264.81,41.73,319.81,148.27,5.37,10.41,10.41,20.59,15.22,30.53,9.39,19.39,17.9,37.89,26.32,55.7,33.64,70.88,66.44,130.28,150.22,187.27,115.65,78.65,231.3,74,360.84,277.57,111.07,174.55,320.54,95.72,352-48.43v-.19a177.1,177.1,0,0,0-.37-76.29c-30.08-136.47-143.42-161.91-203.56-194.29-15.36-8.29-25-18.32-29.14-28.73-12.31-30.44,21.56-63.8,93.91-63.8,84.61,0,306.21,59.68,352.7,335.12v.05q2.14,12.69,3.75,26.09s0,.14,0,.18c1.81,14.76,3.15,30.17,3.93,46.13Q3307.1,2199.92,3305.91,2233.62Z" transform="translate(-719.32 -797.6)"/><g class="cls-5"><path class="cls-6" d="M3301.52,2123C3257.75,1954.85,3100,1838.08,2998.27,1815c-72.21-16.42-123.43-.23-147.11,10.6-12.31-30.44,21.56-63.8,93.91-63.8,84.61,0,306.21,59.68,352.7,335.12v.05Q3299.92,2109.61,3301.52,2123Z" transform="translate(-719.32 -797.6)"/></g><g class="cls-5"><path class="cls-6" d="M3084.23,2125.05c-.33,6.24-10,166.86-146.1,189.53-138.78,23.13-186.29-69.86-186.29-69.86a217.49,217.49,0,0,1,7.26,70.46c-77.91-269.2-322.4-298-431.62-379.95-111-83.27-132.59-282.29-132.59-282.29,9.39,19.39,17.9,37.89,26.32,55.7,33.64,70.88,66.44,130.28,150.22,187.27,115.65,78.65,231.3,74,360.84,277.57C2843.34,2348,3052.81,2269.2,3084.23,2125.05Z" transform="translate(-719.32 -797.6)"/></g><path class="cls-4" d="M3305.91,2233.62c-13.88,393.23-416.35,536.64-504.25,550.52s-268.32,0-268.32,0S2228,2992.31,1913.43,2835s-392.06-761.51-277.57-1170.42c32.39-115.65,127.22-160.85,189.68-180.42,11.89-3.74,23.36-7.08,34.32-10,2,259.21,9.21,1062,537,1131.89,625.41,82.76,879-13.88,908.62-436.71Q3307.1,2199.92,3305.91,2233.62Z" transform="translate(-719.32 -797.6)"/><g class="cls-2"><path class="cls-3" d="M3305.49,2169.32a628.8,628.8,0,0,0-7.72-72.4c-33.54,224,10.59,545.84-581.7,458.22,0,0-384,337.71-744.81,138.79-105.23-58-160.45-180.3-188.33-288.12-19-73.28,10-150.08,70.87-195C2062.28,2057,2174.08,1828,2221.21,1708.64c-12.76-26.92-25.67-55.51-41.54-86.23-55-106.54-84.7-212-319.81-148.27-11,3-22.43,6.3-34.32,10-62.46,19.57-157.29,64.77-189.68,180.42-53.5,191-65,424.64-30.09,635.43.27,1.69.55,3.36.84,5,1.57,9.3,3.21,18.58,5,27.78,43.25,226.69,141.88,422.19,301.85,502.17,314.58,157.29,619.91-50.88,619.91-50.88s180.42,13.87,268.32,0,490.37-157.29,504.25-550.52Q3307.1,2200,3305.49,2169.32Z" transform="translate(-719.32 -797.6)"/></g><path class="cls-3" d="M2164.33,2912.07c-80.06,0-169.18-15.5-259.17-60.49-149.59-74.8-259.53-253.71-309.56-503.78-44.43-222.06-36-479.33,22.45-688.19,26.06-93.09,95.9-159.86,202-193.08,11.5-3.63,23.3-7.08,35-10.25,231.24-62.65,280.7,36.72,328.56,132.82,4.09,8.21,8.23,16.52,12.51,24.82,12,23.35,22.29,45.2,32.18,66.32,36.85,78.67,65.95,140.81,153.54,200.37,32.59,22.16,65,37.35,99.21,53.44,84.69,39.77,172.28,80.9,266.84,229.49,61.94,97.35,151.26,104.26,214.21,78.26,64.18-26.52,124-97.05,103.7-189.25-22.9-103.89-97.8-137.6-158-164.69-13-5.86-25.34-11.4-36.27-17.29-31.65-17-46.54-43-39.86-69.58,7-27.91,40.52-57.74,113.4-57.74,99.49,0,361.52,76.37,378.9,425.14,1.09,20.83,1.24,43,.43,65.88h0c-14.18,401.8-420.13,552.39-519.85,568.13-80.7,12.75-233,3-266.33.64-19.88,12.66-91,55.08-191.88,83.33C2296,2900.49,2233.53,2912.07,2164.33,2912.07ZM1982.26,1473.38c-31.56,0-70,5.73-117.56,18.63-11.26,3-22.56,6.34-33.6,9.82-94.89,29.73-154.57,86.17-177.42,167.76-117.66,420.23-28,1000.84,268,1148.88,301.36,150.7,598.24-47.6,601.21-49.62a18.61,18.61,0,0,1,11.84-3.17c1.78.14,179.29,13.55,264,.18,33.48-5.29,155.21-40.41,271.53-129.42,138.36-105.89,211.41-241.64,217.12-403.47h0c.76-21.79.63-42.89-.41-62.69-16-320-252.24-390-341.94-390-51.36,0-74.49,17.81-77.51,29.78-2.28,9,5.77,19.47,21.52,27.94,9.77,5.27,21.5,10.55,33.91,16.13,64.16,28.88,152,68.43,178.94,190.48,23.79,108-45.23,198.16-125.71,231.41-73.3,30.28-185.25,24.2-259.56-92.58-88.8-139.54-171.44-178.34-251.36-215.87-34.05-16-69.27-32.53-104.28-56.33-96-65.28-128.54-134.79-166.24-215.28-9.75-20.81-19.83-42.33-31.55-65-4.37-8.47-8.59-16.93-12.76-25.3C2114.68,1533.72,2084.61,1473.38,1982.26,1473.38Zm1323.65,760.24h0Z" transform="translate(-719.32 -797.6)"/><path class="cls-3" d="M2732.65,2140.53c1.13,2.06,1.83,3.61,2.67,5.32s1.53,3.32,2.27,5c1.5,3.29,2.86,6.58,4.15,9.88,2.73,6.56,4.92,13.21,7.24,19.82a414.52,414.52,0,0,1,11,40.23,445.46,445.46,0,0,1,10.37,81.73c.54,6.81.09,13.67.18,20.48s0,13.62-.59,20.41l-1.38,20.32c-.69,6.74-1.73,13.46-2.58,20.16-1.38,13.46-4.65,26.63-7.17,39.83-1.12,6.62-3.34,13-5,19.54l-5.32,19.39,3.06-19.86c.89-6.63,2.34-13.14,2.68-19.83,1-13.32,2.7-26.5,2.52-39.82.07-6.64.33-13.25.24-19.86l-.94-19.81c-.15-6.59-1-13.15-1.7-19.69s-1.16-13.1-2.44-19.56a421.84,421.84,0,0,0-18.65-75.9,384.1,384.1,0,0,0-14.38-35.89c-2.81-5.74-5.49-11.57-8.57-17.05-1.48-2.8-3-5.55-4.6-8.18-.79-1.32-1.56-2.7-2.37-3.92s-1.64-2.63-2.24-3.42a18.58,18.58,0,0,1,29.84-22.13,21.83,21.83,0,0,1,1.33,2.06Z" transform="translate(-719.32 -797.6)"/><path class="cls-1" d="M2174.81,2504.25c-48.57,22.39-121.25,8.65-147.43,2.5-6.25-1.48-9.86-2.5-9.86-2.5s37,69.39-13.88,87.9c-37,13.46-71.61-53.9-87.71-91.6-6-14.11-9.43-24.05-9.43-24.05a128.81,128.81,0,0,0-9.12,24.05h0c-15.64,56.49,5.78,107.24-51,87-29.66-10.59-36-55.14-29.33-103.85,4.53-32.94,15-67.78,28.31-95.4a202,202,0,0,1,12.58-22.53c6.66-10.13,13.69-18.22,20.82-23.4,50.89-37,166.54,0,166.54,0a92,92,0,0,0,6.2-6.94c40.48-50.29,44.69-159.61,44.69-159.61l18.5-83.27c69.4-60.14,171.17-27.75,175.8,111S2235,2476.5,2174.81,2504.25Z" transform="translate(-719.32 -797.6)"/><g class="cls-5"><path class="cls-6" d="M2129.48,2373.93s-212.76-37-284.14,14.34a202,202,0,0,1,12.58-22.53c6.66-10.13,13.69-18.22,20.82-23.4,50.89-37,166.54,0,166.54,0a92,92,0,0,0,6.2-6.94Z" transform="translate(-719.32 -797.6)"/></g><g class="cls-5"><path class="cls-6" d="M2274.51,2342.34c7.21-268.32-145-260.92-145-260.92,68.19-44,156.69-7.08,161,122.13A484.83,484.83,0,0,1,2274.51,2342.34Z" transform="translate(-719.32 -797.6)"/></g><g class="cls-2"><path class="cls-3" d="M2174.81,2504.25c-48.57,22.39-121.25,8.65-147.43,2.5-6.25-1.48-9.86-2.5-9.86-2.5s37,69.39-13.88,87.9c-37,13.46-71.61-53.9-87.71-91.6-6-14.11-9.43-24.05-9.43-24.05a128.81,128.81,0,0,0-9.12,24.05h0c-15.64,56.49,5.78,107.24-51,87-29.66-10.59-36-55.14-29.33-103.85,5.87-42.8,21.83-88.83,40.89-117.93,13.93,29.43,54.73,72,173.48,36.74,0,0,13.88,55.51,69.39,13.88,0,0,115.66,101.77,189.68-212.81C2295.09,2342.34,2235,2476.5,2174.81,2504.25Z" transform="translate(-719.32 -797.6)"/></g><path class="cls-3" d="M2102.33,2176c3.21,15.39,4,30.57,3.67,45.91a242,242,0,0,1-5.05,45.88c-3.28,15.19-7.25,30.48-13.85,45.46-.79,1.87-1.5,3.76-2.38,5.62l-2.82,5.59a100.05,100.05,0,0,1-6.24,11c-2.46,3.59-4.58,7.26-7.38,10.74s-5.93,6.82-9,10.17a18.23,18.23,0,0,1-19,5.22l-1.08-.35c-10.08-3.17-21.47-6.26-32.39-8.77a328.28,328.28,0,0,0-33.29-6,255,255,0,0,0-33-2.07c-10.76.26-21.36,1.33-30.83,3.89s-17.76,6.53-23.54,11.82c-6.34,6-12.47,14.73-17.74,24-10.67,18.7-18.6,40.08-24.68,61.64-5.84,21.64-9.92,44-10.57,65.73a138.14,138.14,0,0,0,2.28,31.15,67.4,67.4,0,0,0,4,13.28,37.33,37.33,0,0,0,6,9.49,21.82,21.82,0,0,0,7.64,4.85,57.86,57.86,0,0,0,12.77,3.21,12.12,12.12,0,0,0,2.75,0,3,3,0,0,0-1.15.73,25.2,25.2,0,0,0,1.94-6.65c1.69-9.14,2.13-21.56,3.39-33.76a226.7,226.7,0,0,1,6.67-38.14,18.46,18.46,0,0,1,17.76-13.58h.12l-17.85,13.62a148.41,148.41,0,0,1,10.43-27.49,18.49,18.49,0,0,1,33.62,1.29l.41,1c4,9.71,7.37,19.49,11.74,29.17s8.93,19.12,13.94,28.21a213.76,213.76,0,0,0,16.34,25.59c5.85,7.72,12.44,14.69,18.62,18.58a21.25,21.25,0,0,0,7.86,3.28,10.78,10.78,0,0,0,2.85-.07,5.09,5.09,0,0,0,1.45-.35,12.31,12.31,0,0,0,2.13-.81c6.66-2.92,9.73-6.21,11.69-11.81,4.15-11.64-1.42-33.55-9.41-49.3l-.07-.13a18.61,18.61,0,0,1,21.42-26.39,360.76,360.76,0,0,0,44.48,8.77,304.74,304.74,0,0,0,45,2.8c14.81-.24,29.31-2.07,42.43-6l4.9-1.48,4.6-1.88c3.27-1.12,5.66-2.72,8.39-4.06a91.8,91.8,0,0,0,15.54-12.26c10-9.59,18.95-21.39,26.83-34a309.47,309.47,0,0,0,20.89-40.11,436,436,0,0,0,27.27-87.75,465.15,465.15,0,0,0,9.29-91.69,274.48,274.48,0,0,0-3.14-44.81,160.61,160.61,0,0,0-12.17-41.1c-5.85-12.61-13.68-24-23.67-32.26a77.07,77.07,0,0,0-33.64-15.85c-12.14-2.53-25-2.23-38.29.13s-27.26,6.78-42.56,12.25l-.13,0a6.57,6.57,0,0,1-8-9.33,76.73,76.73,0,0,1,17-20.6,92.76,92.76,0,0,1,23.08-14.85,98.22,98.22,0,0,1,56.45-6.61c19.43,3.47,37.24,13.63,51.21,26.53a145.19,145.19,0,0,1,32.16,45c15.14,32.84,18.87,68.38,18.74,101.47a501.92,501.92,0,0,1-10,99,472.87,472.87,0,0,1-29.64,95.25,346.62,346.62,0,0,1-23.43,44.93c-9.1,14.48-19.52,28.48-32.6,41.08a127.64,127.64,0,0,1-22.15,17.29c-4.37,2.34-8.84,4.93-13.14,6.46l-6.53,2.62-6.57,2c-17.57,5.22-35.15,7.22-52.31,7.53a343.11,343.11,0,0,1-50.69-3.11,396.13,396.13,0,0,1-49.63-9.84l21.35-26.52c1.79,3.46,2.9,6,4.18,8.94s2.37,5.77,3.42,8.71a137.07,137.07,0,0,1,5.23,18.3c2.52,12.62,4,26.8-.89,42.25a54.67,54.67,0,0,1-12.72,21.21,59.65,59.65,0,0,1-19.73,13.21,49.12,49.12,0,0,1-12.19,3.62,47.42,47.42,0,0,1-13.61.19,57.42,57.42,0,0,1-22.69-8.67c-12.43-8.05-20.81-17.78-28.32-27.49a250.29,250.29,0,0,1-19.26-30.07c-5.62-10.22-10.68-20.57-15.35-31s-8.61-21.47-12.92-32.18l34,2.29a110.58,110.58,0,0,0-7.8,20.62,18.54,18.54,0,0,1-17.85,13.63h0l17.83-13.57a190.64,190.64,0,0,0-5.51,31.9l-1.49,17.46a190.87,190.87,0,0,1-2.37,19.56,67.3,67.3,0,0,1-3.2,11.76A39.6,39.6,0,0,1,1894,2600a34.66,34.66,0,0,1-16.42,9.35,47.09,47.09,0,0,1-14.94,1,92.58,92.58,0,0,1-21.74-5.15,59.42,59.42,0,0,1-22.09-14.13,73.55,73.55,0,0,1-13.21-20.26,104.29,104.29,0,0,1-6.37-20.69,174.36,174.36,0,0,1-3-39.67c.8-25.75,5.39-50.39,11.88-74.52,6.82-24.05,15.4-47.56,28.22-70.16,6.53-11.26,13.88-22.41,24.75-32.79,11.82-10.79,25.77-16.87,39.14-20.41s26.68-4.77,39.6-5.16a290.17,290.17,0,0,1,38,1.66q18.69,2.07,36.93,5.55a375.13,375.13,0,0,1,36.57,8.78l-20.11,4.87c7.69-8.09,14.18-19.16,19.87-31a276.75,276.75,0,0,0,14.36-38.42c4.23-13.37,8-27.13,12-41s7.86-28.11,12.54-42.23l.08-.23a6.35,6.35,0,0,1,12.25.7Z" transform="translate(-719.32 -797.6)"/><path class="cls-3" d="M2031.4,2430.23a180.17,180.17,0,0,0-5.43,20.09,70.37,70.37,0,0,0-1.24,17.33,59.06,59.06,0,0,0,2.86,14.95,46.62,46.62,0,0,0,2.64,6.79c.47,1.1,1,2.16,1.52,3.15l.8,1.39.38.58c.07.09.33.47.1,0l-7.33-6.66-.39-.21s0,0,0,0l.21.06.67.19c.52.13,1.09.27,1.69.37a36.64,36.64,0,0,0,3.74.39,32.7,32.7,0,0,0,7.86-.61A49.09,49.09,0,0,0,2057,2480a141.26,141.26,0,0,0,18.84-15.91c6.44-6.19,12.79-13.07,20.35-20a84.43,84.43,0,0,1-3.26,29.88,80.2,80.2,0,0,1-14.24,28.1c-6.93,8.6-16.59,16.71-29,20.7a56.28,56.28,0,0,1-19.42,2.83,49.66,49.66,0,0,1-10-1.27c-1.65-.36-3.32-.82-5-1.35-.86-.29-1.68-.56-2.6-.92l-1.4-.57-.78-.34-1.17-.56-.23-.11a16.38,16.38,0,0,1-7.1-6.56c-.67-1.14-.82-1.5-1.16-2.15l-.78-1.68c-.49-1.09-.92-2.15-1.33-3.21-.8-2.11-1.52-4.21-2.1-6.32a72.35,72.35,0,0,1-2.1-12.92,60.47,60.47,0,0,1,3.83-25.39,54.61,54.61,0,0,1,13.47-20.28A50.81,50.81,0,0,1,2031.4,2430.23Z" transform="translate(-719.32 -797.6)"/><path class="cls-3" d="M2051.78,2325l104.53,59-117.53-24.31a18.73,18.73,0,0,1,7.59-36.68A19.32,19.32,0,0,1,2051.78,2325Z" transform="translate(-719.32 -797.6)"/><path class="cls-4" d="M1897.34,2500.55c-15.64,56.49,5.78,107.24-51,87-29.66-10.59-36-55.14-29.33-103.85C1873.28,2414.55,1897.34,2500.55,1897.34,2500.55Z" transform="translate(-719.32 -797.6)"/><path class="cls-4" d="M2003.64,2592.15c-37,13.46-71.61-53.9-87.71-91.6,44.18-84.7,95-16.33,95-16.33,2.59,6.43,6.57,20,6.57,20S2054.53,2573.64,2003.64,2592.15Z" transform="translate(-719.32 -797.6)"/><path class="cls-3" d="M1867.36,2610.56c-9.83,0-19.55-2.87-27.22-5.61-35.44-12.66-50.54-57.78-41.44-123.81a18.33,18.33,0,0,1,4-9.15c21.28-26.16,42.78-37.17,63.89-32.79,33.87,7.05,47.18,51.34,48.59,56.37a18.66,18.66,0,0,1,0,9.92c-4.28,15.46-5.52,30.94-6.61,44.6-1.8,22.55-3.51,43.84-20.39,54.76A37.63,37.63,0,0,1,1867.36,2610.56Zm-32.67-119.12c-5,42.31,1.88,72.94,17.89,78.66,9.09,3.24,13.59,3.53,15.28,3.45,2-4.29,3.05-17,3.81-26.41,1-13.12,2.33-29.13,6.4-46-4-10.88-11.94-24.28-19.06-25.73C1854.72,2474.53,1846.17,2478.41,1834.69,2491.44Z" transform="translate(-719.32 -797.6)"/><path class="cls-3" d="M1993.72,2612.47c-25.72,0-59.45-21.84-94.8-104.65a18.49,18.49,0,0,1,.61-15.83c17-32.68,38.06-50.24,62.46-52.18,35.72-2.74,61,29.65,63.81,33.37a19,19,0,0,1,2.32,4.12c2.35,5.85,5.42,15.9,6.66,20,4.77,9.51,22.11,47.75,10,79.23-5.91,15.43-18,26.84-34.85,33h0A47.35,47.35,0,0,1,1993.72,2612.47Zm-57.15-110.92c25.3,56.2,49.06,77.47,60.74,73.21h0c8.89-3.24,11.64-8.06,12.93-11.4,6-15.65-4.8-42.33-9.07-50.44a18.3,18.3,0,0,1-1.41-3.47c-.89-3-3.26-10.84-5.08-15.92-5.22-6.06-18-17.79-29.86-16.82C1955.72,2477.49,1945.84,2486.23,1936.57,2501.55Z" transform="translate(-719.32 -797.6)"/><path class="cls-1" d="M2197.94,1449.49c0,108.76-5.69,240.23-150.58,414.45-40,48.12-90.67,99.51-154.74,154.56-296.08,254.44-513.51,333.09-666.17,249.82-29-15.82-50.2-37.71-64.17-63.57-11-20.49-17.62-43.53-19.94-68.05-4.07-41.59,3.94-87.57,22.3-133a400.77,400.77,0,0,1,36.55-69.39,443.92,443.92,0,0,1,122.41-123.93S935,1768.69,805.47,1671.54c-57.55-43.16-74-129.21-65.6-220.48,0-.19,0-.37,0-.56,6-64.25,24.29-131,49.23-187.22a.58.58,0,0,0,.09-.14c19.24-43.44,42.47-80.45,67.13-105.1,101.77-101.78,291.44-78.65,347-134.16s240.56-305.33,360.84-166.54c0,0,171.17,0,259.06,101.77,0,0,60.14-92.52,185-37a163.35,163.35,0,0,1,55.05,39.28,160.06,160.06,0,0,1,19.15,25.77c41.13,68.28,29.61,156.78,23,180.14C2105.42,1167.29,2197.94,1320,2197.94,1449.49Z" transform="translate(-719.32 -797.6)"/><g class="cls-5"><path class="cls-6" d="M1855.61,1694.67c-48,326.66-286.83,541.26-532,527.39-99.33-5.6-152.71-43.44-181.26-85.36-4.07-41.59,3.94-87.57,22.3-133,100.67-20.3,321.94-71,487.42-151.69C1781.36,1788.86,1873.33,1574.07,1855.61,1694.67Z" transform="translate(-719.32 -797.6)"/></g><g class="cls-2"><path class="cls-3" d="M2197.94,1449.49c0,108.76-5.69,240.23-150.58,414.45-40,48.12-90.67,99.51-154.74,154.56-296.08,254.44-513.51,333.09-666.17,249.82-29-15.82-50.2-37.71-64.17-63.57,412.94,184.13,752.22-335.39,855.24-468.44,111-143.41,27.76-453.37,27.76-453.37-106.4,148-203.55,60.14-203.55,60.14,18,85.17,74.94,105.2,78.46,106.36-166.31-32.48-125.28-192.22-125.28-192.22-102.33,43.67-40.06-161.68-40.06-161.68s26.74,71.75,59.12,39.37,129.53-83.27,203.55-97.15c41.87-7.87,48.21-45.34,45.8-76.38a160.06,160.06,0,0,1,19.15,25.77c41.13,68.28,29.61,156.78,23,180.14C2105.42,1167.29,2197.94,1320,2197.94,1449.49Z" transform="translate(-719.32 -797.6)"/></g><g class="cls-2"><path class="cls-3" d="M1786.22,1824.21c-106,53-366.44,101.22-585,110a443.92,443.92,0,0,1,122.41-123.93S935,1768.69,805.47,1671.54c-57.55-43.16-74-129.21-65.6-220.48,0-.19,0-.37,0-.56,16.43,65.74,46,130.09,97.94,160.9,124.91,74,504.25,157.29,717.06,83.27,154.39-53.7,260.09-143.93,324.14-191.18,23.81-17.56,57.51,0,56.41,29.56C1932.38,1616.31,1908.73,1763,1786.22,1824.21Z" transform="translate(-719.32 -797.6)"/></g><path class="cls-8" d="M1864.86,1579s-5.69,64.35-39.55,158.26a948.91,948.91,0,0,1-99.24,198c-75,114.36-183.24,225.95-320.26,247.32-40.35,6.34-83.23,4.81-128.47-6.76-198.93-50.88-47.61-289.64,34.05-366.85,0,0,96.22,20.86,220.48-8.14,0,0,0,0,0,0a565,565,0,0,0,109-37.47C1716.82,1728.21,1795.51,1671,1864.86,1579Z" transform="translate(-719.32 -797.6)"/><path class="cls-8" d="M1308.55,2113.93s-44.9-155.16-105.14,20.43" transform="translate(-719.32 -797.6)"/><path class="cls-8" d="M1268,2051.82s-12-157.92-87-14.66" transform="translate(-719.32 -797.6)"/><path class="cls-8" d="M1277.63,2057.5s44.26-217.53-47.41-144.45" transform="translate(-719.32 -797.6)"/><path class="cls-3" d="M1864.86,1579s-5.69,64.35-39.55,158.26a948.91,948.91,0,0,1-99.24,198c-75,114.36-183.24,225.95-320.26,247.32-40.35,6.34-83.23,4.81-128.47-6.76-198.93-50.88-47.61-289.64,34.05-366.85,0,0,96.22,20.86,220.48-8.14,0,0,0,0,0,0a565,565,0,0,0,109-37.47C1716.82,1728.21,1795.51,1671,1864.86,1579Z" transform="translate(-719.32 -797.6)"/><ellipse class="cls-8" cx="1379.11" cy="1343.08" rx="90.21" ry="39.32" transform="translate(-1132.24 1248.65) rotate(-65.67)"/><ellipse class="cls-8" cx="184.99" cy="465.68" rx="31.76" ry="72.86"/><path class="cls-8" d="M1420.75,1190.42c0,4.63,148-32.38,97.15,134.16" transform="translate(-719.32 -797.6)"/><path class="cls-8" d="M1959.74,1287.94c-15.4,14.3-33.86,24.89-55.56,29.7-82.16,18.27-87.48-73.42-87.62-75.87v0c35.07-28.63,76-76.19,113.58-104.55,20.58-15.59,40.2-25.35,57.31-23.08,14.53,1.94,24.61,5.69,31.92,10.59C2022.43,1177.05,2003.51,1247.37,1959.74,1287.94Z" transform="translate(-719.32 -797.6)"/><path class="cls-8" d="M1959.74,1287.94c-15.4,14.3-33.86,24.89-55.56,29.7-82.16,18.27-87.48-73.42-87.62-75.87v0c35.07-28.63,76-76.19,113.58-104.55a346.94,346.94,0,0,1,18,46.64s-46.26,25.12-37,43.62c6.15,12.35,30.9,4.12,46.63-2.78A233.75,233.75,0,0,1,1959.74,1287.94Z" transform="translate(-719.32 -797.6)"/><path class="cls-8" d="M1564.16,857.34s-129.53,4.62-259.07,124.9" transform="translate(-719.32 -797.6)"/><g class="cls-5"><path class="cls-6" d="M2082.47,987.15c-123.43-59.68-208.21-11.49-244.3,18a31.81,31.81,0,0,1-40.34.06c-40.38-33.2-136.62-98.15-261.43-87.75-166.54,13.88-272.35,171.09-467.24,194.3-194.3,23.13-277.25,147.15-279.93,151.36,19.24-43.44,42.47-80.45,67.13-105.1,101.77-101.78,291.44-78.65,347-134.16s240.56-305.33,360.84-166.54c0,0,171.17,0,259.06,101.77,0,0,60.14-92.52,185-37C2043,937.55,2066.65,960.87,2082.47,987.15Z" transform="translate(-719.32 -797.6)"/></g><path class="cls-6" d="M1308.56,2117.5c-17.62-2.35-38.76,9.77-62.68,51-18.23-8.19-32.2-18.55-42.47-30.62-22.53-26.28-27.8-60.51-22.34-97.2,0,0,0,0,0,0,6.53-43.9,28.5-91.36,54.64-133.18h0c55-39.79,56.49,35.57,50.52,94.19-.18,1.94-.42,3.88-.6,5.78-.28,2.31-.51,4.58-.79,6.8-.92,7.91-2,15.26-3,21.7-.18,1.06-.32,2.12-.51,3.14-.46,3.05-.92,5.92-1.34,8.42-.28,1.34-.46,2.59-.65,3.75-1,5.73-1.75,9.25-1.85,9.76C1297,2077.4,1308.56,2117.5,1308.56,2117.5Z" transform="translate(-719.32 -797.6)"/><path class="cls-3" d="M1246.91,2171.73l-2.06-.92c-18-8.07-32.56-18.6-43.35-31.28-21.29-24.84-29-58.22-22.91-99.19l.37-2.13c7.86-49.37,34-99,54.67-132.06l.73-1.17h.63c15.51-11,28.14-13.87,37.61-8.41,16.88,9.73,22.33,45.18,16.2,105.35l-.93,8.61c-.15,1.36-.3,2.7-.47,4-1,8.25-2.09,16-3,21.76l-.51,3.22c-.46,3-.93,5.88-1.34,8.38-.25,1.19-.41,2.21-.56,3.17l-.09.57c-.69,3.93-1.26,6.82-1.58,8.43,19,17.19,30.14,55.09,30.62,56.72l1.06,3.68-3.8-.51c-19.33-2.54-39.54,14.19-60.19,49.81Zm-63.69-128.57c-5.25,38.71,2.19,69.91,22.09,93.12,9.9,11.64,23.2,21.4,39.55,29,20.1-34,40.4-51,60.21-50.59-3.29-10-13.8-38.87-29.07-51.8l-1.11-.94.41-2.16c.27-1.35.9-4.49,1.7-9l.08-.52c.17-1,.34-2.14.59-3.31.39-2.39.85-5.25,1.31-8.28l.52-3.2c.86-5.71,2-13.37,2.94-21.56.16-1.33.31-2.65.47-4l.91-8.54c5.75-56.42.87-92.11-13.72-100.53-7.66-4.43-18.61-1.6-32.53,8.38-20.68,33.17-46.71,82.79-54,131.75Z" transform="translate(-719.32 -797.6)"/><path class="cls-3" d="M1203.41,2152.87a18.78,18.78,0,0,1-6-1,18.51,18.51,0,0,1-11.5-23.52c22.5-65.58,46.46-96.21,75.34-96.21l1,0c40.16,1,60.42,64,64.07,76.62a18.5,18.5,0,1,1-35.54,10.3c-7.8-26.7-22.7-49.77-29.44-49.92h0c-.19,0-16.56,1.65-40.42,71.21A18.53,18.53,0,0,1,1203.41,2152.87Z" transform="translate(-719.32 -797.6)"/><path class="cls-3" d="M1268,2070.32a18.51,18.51,0,0,1-18.43-17.1c-1.92-24.68-9.39-51.53-15.76-57.31-3.24,1.57-15.38,9.74-36.34,49.82a18.51,18.51,0,0,1-32.8-17.15c18.69-35.76,44.35-75.94,76.49-69.32,35.17,7.24,43.41,66.16,45.31,91.15a18.51,18.51,0,0,1-17,19.86C1269,2070.3,1268.48,2070.32,1268,2070.32Z" transform="translate(-719.32 -797.6)"/><path class="cls-3" d="M1277.65,2076a18.74,18.74,0,0,1-3.7-.38,18.5,18.5,0,0,1-14.45-21.82c14-68.81,12.74-130.33,2.36-137.36,0,.08-5.74-.39-20.11,11.06a18.5,18.5,0,1,1-23.06-28.93c24.44-19.51,45.47-24.12,62.49-13.7,40.49,24.79,23.69,131.56,14.59,176.31A18.53,18.53,0,0,1,1277.65,2076Z" transform="translate(-719.32 -797.6)"/><path class="cls-9" d="M1825.31,1737.28a944.11,944.11,0,0,1-78.83,165.43c-6.43,10.73-13.23,21.61-20.41,32.52-75,114.36-183.24,225.95-320.26,247.32-66.3-53.06-111.22-195.55,11.42-299.92a388.07,388.07,0,0,1,45.34-33C1594.6,1766.33,1786,1739.13,1825.31,1737.28Z" transform="translate(-719.32 -797.6)"/><path class="cls-3" d="M1405.1,2185.19l-.86-.69c-39.61-31.71-65.75-88.29-66.59-144.15-.64-42,12.37-103.81,78-159.62a393.44,393.44,0,0,1,45.63-33.24c135.29-85.33,331-111.16,364-112.7l3.74-.18-1.27,3.52a947.35,947.35,0,0,1-79,165.87c-6.67,11.13-13.56,22.1-20.46,32.61-66.08,100.72-175.59,225.58-322,248.41ZM1821.66,1740c-41.75,3.07-227.83,29.76-357.76,111.71a385.82,385.82,0,0,0-45.05,32.82c-64.1,54.55-76.82,114.8-76.2,155.73.81,54,25.85,108.69,63.86,139.64,144-23,252.11-146.42,317.47-246,6.87-10.45,13.72-21.36,20.35-32.43A943.8,943.8,0,0,0,1821.66,1740Z" transform="translate(-719.32 -797.6)"/><g class="cls-2"><path class="cls-3" d="M1825.31,1737.28a944.11,944.11,0,0,1-78.83,165.43c-114,39.69-199.9,126.25-274.84,83.41-41-23.45-32.57-79-9.07-136.52C1594.6,1766.33,1786,1739.13,1825.31,1737.28Z" transform="translate(-719.32 -797.6)"/></g><path class="cls-3" d="M1405.81,2201.05a18.52,18.52,0,0,1-11.57-4.05c-43.18-34.57-71.68-96-72.59-156.39-.69-45.45,13.26-112.2,83.59-172.07,133.55-113.69,376.83-147.75,419.2-149.75a18.87,18.87,0,0,1,15.76,7.5,18.51,18.51,0,0,1,2.51,17.27,965.9,965.9,0,0,1-101.17,201.83c-67.86,103.43-180.7,231.7-332.88,255.44A18.33,18.33,0,0,1,1405.81,2201.05Zm391.6-442.4c-76.5,9.94-260.85,46.71-368.19,138.07-59.35,50.53-71.13,105.83-70.56,143.33.71,46.86,21.12,94.1,52.57,122.8,134.68-25,236.89-142.54,299.37-237.77A933.46,933.46,0,0,0,1797.41,1758.65Z" transform="translate(-719.32 -797.6)"/><path class="cls-3" d="M1694.5,1777.74c-6.81,2.77-14.53,6.4-21.75,9.94s-14.6,7.4-21.8,11.34q-21.62,11.87-42.34,25.48a568.23,568.23,0,0,0-78,61.22,451.43,451.43,0,0,0-34.48,35.9c-5.56,6.19-10.6,12.8-15.85,19.27-4.89,6.72-10,13.3-14.59,20.3a372.79,372.79,0,0,0-45,89.7,377.4,377.4,0,0,1,37.08-94.54c4-7.56,8.6-14.74,13-22.08,4.75-7.1,9.32-14.37,14.42-21.24a470.38,470.38,0,0,1,32.1-40.18,591.66,591.66,0,0,1,75-70.81q20.23-16.14,41.78-30.66c7.18-4.84,14.46-9.55,21.91-14.08s14.74-8.86,23.19-13.25a18.53,18.53,0,0,1,17.09,32.89c-.51.26-1,.5-1.54.71Z" transform="translate(-719.32 -797.6)"/><path class="cls-3" d="M1997.1,1929c-37.73,47.53-81.33,90.35-126.6,130.31-45.46,39.94-92.93,77.83-142.93,112.56s-102.43,66.46-158.27,92.38a688.65,688.65,0,0,1-86.39,33.56c-29.68,9.2-60.38,16-91.82,19.22-31.44,2.8-63.68,2.19-95.21-4.17a291.61,291.61,0,0,1-46.32-13.43l-11.12-4.73-5.55-2.4-5.39-2.72c-3.59-1.84-7.19-3.55-10.76-5.53l-10.67-6.45a174.22,174.22,0,0,1-65.32-74.81,201.58,201.58,0,0,1-14.55-47.46,243.35,243.35,0,0,1-3.21-48.69,284.2,284.2,0,0,1,5.73-47.73,339.81,339.81,0,0,1,12.65-45.89,420.9,420.9,0,0,1,41.51-84.57A467.77,467.77,0,0,1,1313.24,1795l8.39,33.74c-40.58-4.62-80.42-10.31-120.44-16.76s-79.79-13.76-119.47-22.19-79.2-18-118.38-29.43c-19.59-5.75-39.11-11.92-58.44-19a580.85,580.85,0,0,1-57.42-23.79c-18.86-9.17-37.44-19.3-55-32.84-18.18-14-32.67-32.26-43.24-51.8s-17.63-40.47-22.12-61.43a360.53,360.53,0,0,1-7.49-63.16c-.83-21,.32-41.92,2.28-62.63a560.82,560.82,0,0,1,9.45-61.51,608.52,608.52,0,0,1,15.46-60.09,597.3,597.3,0,0,1,21.2-58.4c16.31-38.14,35.81-75.4,63.94-108.46A231.73,231.73,0,0,1,881,1114.41a316.7,316.7,0,0,1,56.89-29.27c39.29-15.56,79.81-24.53,119.47-32.48,19.82-4,39.52-7.65,58.65-11.93s37.79-9.25,53.74-16.57c8-3.62,14.88-8,20-13,6.33-6.23,13.12-13.85,19.73-21.14,13.33-14.87,26.78-30,40.61-45,27.67-29.83,56.72-59,89.24-85a394.88,394.88,0,0,1,52.15-35.76c18.67-10.45,39-19.35,61.36-23.86,22.21-4.56,47-3.95,69.5,4.46s41.13,23.6,55.78,40.34l-14-6.39c6.91.07,12.8.41,19.11.82s12.36,1,18.51,1.63q18.43,2,36.67,5.28a465.59,465.59,0,0,1,72,18.76,349.52,349.52,0,0,1,68.12,32.22,280.19,280.19,0,0,1,31.06,22.4A258.74,258.74,0,0,1,1837.23,947l-29.52,2c1.25-1.89,2.07-2.9,3-4.22s1.9-2.36,2.85-3.56c1.88-2.36,3.88-4.47,5.86-6.63s4.1-4.14,6.18-6.18a80.93,80.93,0,0,1,6.48-5.81c8.72-7.66,18.6-13.88,28.77-19.5A155.69,155.69,0,0,1,1928,886c23.23-.82,45.54,4.33,66.68,11,10.29,4.09,20.68,7.47,30.77,12.84,5.08,2.45,9.9,5.51,14.81,8.34,4.67,3.27,9.59,6.16,14,9.84,9.19,6.8,17.34,14.94,25,23.39a193.66,193.66,0,0,1,20,27.64,219.31,219.31,0,0,1,14.62,30.41,250.67,250.67,0,0,1,9.66,31.85,295,295,0,0,1,7.15,65,325.25,325.25,0,0,1-1.61,32.55c-.59,5.44-1.24,10.86-2.17,16.36a155.57,155.57,0,0,1-3.65,17.07l-2-14.67c7.22,12.27,13.61,24,19.87,36.21s12.16,24.4,17.89,36.76a797.48,797.48,0,0,1,30.35,76.13c4.56,12.93,8.23,26.22,12.15,39.42,3.32,13.44,6.83,26.81,9.13,40.6l1.94,10.26,1.32,10.45,1.33,10.46.67,5.23.3,5.31,1.1,21.26.1,20.24c0,27.07-1.11,54.56-4.5,82a472.24,472.24,0,0,1-17.3,81.1,437.91,437.91,0,0,1-31.87,76.21,430.45,430.45,0,0,1-45.65,67.85,6.23,6.23,0,0,1-10.54-6.38l.06-.13c10.46-24.62,21-48.7,30.07-73.14a720.57,720.57,0,0,0,22.69-74.19c12.45-50,16.85-101.19,17.9-153.74l.33-19.8-.57-18.74-.15-4.69-.51-4.7-1-9.43-1.07-9.43-1.68-9.42c-1.93-12.59-5.08-25.08-8-37.6-3.5-12.43-7-24.87-11.29-37.13a761.43,761.43,0,0,0-28.93-72.55c-5.5-11.85-11.15-23.64-17.15-35.23s-12.31-23.26-18.63-34l-.09-.15a18.77,18.77,0,0,1-1.87-14.53,123.17,123.17,0,0,0,2.72-12.94c.78-4.6,1.35-9.34,1.86-14.07a284.11,284.11,0,0,0,1.42-28.75,257.7,257.7,0,0,0-6.21-56.79,211.49,211.49,0,0,0-8.13-26.86,183.29,183.29,0,0,0-12-24.89,157,157,0,0,0-15.93-22c-6.1-6.66-12.46-13.11-19.77-18.47-3.43-3-7.42-5.2-11.1-7.84-4-2.24-7.79-4.73-11.94-6.71-8-4.31-17.17-7.23-25.86-10.75-17.74-5.57-35.92-9.78-53.81-9.07A118.5,118.5,0,0,0,1878,935.93c-7.68,4.32-15.27,9-21.93,14.89a56.27,56.27,0,0,0-4.95,4.43c-1.57,1.55-3.26,3-4.68,4.67s-3,3.2-4.3,4.86c-.64.81-1.43,1.66-2,2.43l-1.47,2-.5.67a18.73,18.73,0,0,1-26.21,3.9,20.21,20.21,0,0,1-2.81-2.56,222.77,222.77,0,0,0-23.38-22.89A243.34,243.34,0,0,0,1759,929a311.75,311.75,0,0,0-60.85-28.74A429.83,429.83,0,0,0,1631.89,883c-11.28-2-22.66-3.67-34.05-4.9-5.7-.59-11.41-1.13-17.09-1.51s-11.59-.68-16.59-.73h-.05a18.9,18.9,0,0,1-13.93-6.38c-11.78-13.4-25.46-24.22-40.78-29.92s-32.2-6.26-49.28-2.82-34.17,10.65-50.49,19.83A357.61,357.61,0,0,0,1362.44,889c-30.25,24.25-58.21,52.17-85.18,81.27-13.51,14.57-26.72,29.48-40.23,44.55-6.89,7.59-13.45,15-21.43,22.91a107.41,107.41,0,0,1-30.17,20c-20.69,9.42-41.15,14.5-61.25,19.13s-39.94,8.19-59.53,12.12c-39.1,7.81-77.46,16.46-113,30.57-35.4,14.14-67.89,34-91.68,61.92-24.16,28.27-42.7,63-57.86,98.66A562.27,562.27,0,0,0,782.14,1335a571.32,571.32,0,0,0-14.58,56.66,525.41,525.41,0,0,0-8.86,57.65c-1.82,19.28-2.89,38.65-2.12,57.8a323.8,323.8,0,0,0,6.66,56.45c3.9,18.32,9.91,35.94,18.5,51.71s19.72,29.62,33.39,40.2c14.27,11,31.13,20.36,48.4,28.72a544.79,544.79,0,0,0,54,22.34c18.43,6.74,37.27,12.69,56.26,18.26,38,11.13,76.69,20.47,115.66,28.75,77.91,16.4,157.24,29.16,236.16,38.35h.13a18.51,18.51,0,0,1,8.25,33.72,430.9,430.9,0,0,0-119.88,122.72,383.79,383.79,0,0,0-37.78,76.91,303.32,303.32,0,0,0-11.29,40.93,246.45,246.45,0,0,0-5,41.63,205.82,205.82,0,0,0,2.68,41.1,164.15,164.15,0,0,0,11.76,38.47,136.93,136.93,0,0,0,51.6,59l8.61,5.23c3,1.65,6.2,3.15,9.28,4.75l4.66,2.37,4.8,2.06,9.62,4.1a255.72,255.72,0,0,0,40.14,11.63c27.42,5.56,55.93,6.15,84.26,3.38,56.81-6.16,112.54-25.63,165.3-51,26.4-12.74,52.31-26.79,77.73-41.78s50.11-31.42,74.77-47.87l18.37-12.57,18.17-12.9c12.15-8.55,24.13-17.37,36.1-26.21,23.8-17.88,47.55-35.9,71-54.34s47.13-36.74,70.26-55.56,46.13-38,69.11-57.31l0,0a6.2,6.2,0,0,1,8.85,8.6Z" transform="translate(-719.32 -797.6)"/><path class="cls-3" d="M1358.49,2204.73a345.94,345.94,0,0,1-85.73-11c-59.21-15.15-95.46-46.89-107.76-94.35-27.63-106.67,80.23-253.35,133.67-303.89a18.51,18.51,0,0,1,16.64-4.64c.9.2,93.65,19.48,211.62-7.91.56-.15,1.11-.27,1.67-.37a548,548,0,0,0,104.57-36c83.78-38.78,156.76-98.89,216.91-178.66a18.51,18.51,0,0,1,33.21,12.77c-.24,2.72-6.29,67.83-40.58,162.91a965.9,965.9,0,0,1-101.17,201.83c-67.86,103.43-180.7,231.7-332.88,255.44A323.22,323.22,0,0,1,1358.49,2204.73Zm-41-375.87c-62,62.26-136.19,185.77-116.64,261.23,8.78,33.89,35.31,56.07,81.09,67.78,40.85,10.44,81.57,12.6,121,6.4,138.79-21.65,243.92-142,307.67-239.19A929.22,929.22,0,0,0,1807.9,1731a832.54,832.54,0,0,0,26-86.3c-54.11,58-116.18,103.47-185.21,135.42a584.41,584.41,0,0,1-112.61,38.69l-.6.14C1430.62,1843.33,1345.79,1833.46,1317.47,1828.86Z" transform="translate(-719.32 -797.6)"/><path class="cls-3" d="M1366.61,2204.65a18.51,18.51,0,0,1-17.63-12.87c-7.39-23-26.27-57.79-43.28-59.55-11.77-1.2-28.18,14.61-44.68,43.49a18.5,18.5,0,1,1-32.13-18.36c25.54-44.71,52-64.93,80.7-61.94,23.82,2.51,41.81,21.66,54.17,41.25,14.85-32.8,35-52.41,60.16-58.48,27.52-6.64,54.24,4.52,74.73,18.09-.54-37.82,9.51-63.35,30.35-77.49,22.37-15.18,51-11.85,74.38-4.45-8.6-32.48-5.32-56.77,9.82-73.66,19.49-21.74,52.7-22.36,77.84-18.82-9.48-39.23-5.5-69.31,11.93-89.66,30-35,85.9-24,88.28-23.52a18.51,18.51,0,0,1-7.37,36.27c-10.29-2-39.83-3.93-52.86,11.4-12,14.15-10.42,44.06,4.52,84.23a18.5,18.5,0,0,1-23.24,24c-17.79-5.93-58.72-13.54-71.56.83-4.57,5.11-12.52,22.79,12.27,76.32a18.5,18.5,0,0,1-26.56,23.49c-17.07-10.54-58.32-28.31-76.69-15.78-14.62,10-18,41.27-9.58,88.19A18.51,18.51,0,0,1,1508,2153c-11.45-13.1-47.36-45.74-75.45-38.85-25.63,6.23-40.23,45-48,76.39a18.5,18.5,0,0,1-17.34,14.07Z" transform="translate(-719.32 -797.6)"/><path class="cls-3" d="M1203.41,2152.87a18.78,18.78,0,0,1-6-1,18.51,18.51,0,0,1-11.5-23.52c22.5-65.58,46.46-96.21,75.34-96.21l1,0c40.16,1,60.42,64,64.07,76.62a18.5,18.5,0,1,1-35.54,10.3c-7.8-26.7-22.7-49.77-29.44-49.92h0c-.19,0-16.56,1.65-40.42,71.21A18.53,18.53,0,0,1,1203.41,2152.87Z" transform="translate(-719.32 -797.6)"/><path class="cls-3" d="M1268,2070.32a18.51,18.51,0,0,1-18.43-17.1c-1.92-24.68-9.39-51.53-15.76-57.31-3.24,1.57-15.38,9.74-36.34,49.82a18.51,18.51,0,0,1-32.8-17.15c18.69-35.76,44.35-75.94,76.49-69.32,35.17,7.24,43.41,66.16,45.31,91.15a18.51,18.51,0,0,1-17,19.86C1269,2070.3,1268.48,2070.32,1268,2070.32Z" transform="translate(-719.32 -797.6)"/><path class="cls-3" d="M1277.65,2076a18.74,18.74,0,0,1-3.7-.38,18.5,18.5,0,0,1-14.45-21.82c14-68.81,12.74-130.33,2.36-137.36,0,.08-5.74-.39-20.11,11.06a18.5,18.5,0,1,1-23.06-28.93c24.44-19.51,45.47-24.12,62.49-13.7,40.49,24.79,23.69,131.56,14.59,176.31A18.53,18.53,0,0,1,1277.65,2076Z" transform="translate(-719.32 -797.6)"/><path class="cls-6" d="M1787.54,1826.81s-123.48-25.27-69.34,120.22c0,0-153.33-51.58-82,102.47,0,0-147.19-91.53-114.25,91.4,0,0-112.35-129.44-155.36,45.25,0,0-47.64-149.14-121.66-19.61,0,0,235.52,113.29,441.89-176.12C1795.47,1838.08,1787.54,1826.81,1787.54,1826.81Z" transform="translate(-719.32 -797.6)"/><path class="cls-3" d="M1358.68,2206.89c-71.59,0-119.48-22.58-121.75-23.67a18.5,18.5,0,0,1-8-25.86c25.54-44.71,52-64.93,80.7-61.94,23.82,2.51,41.81,21.66,54.17,41.25,14.85-32.8,35-52.41,60.16-58.48,27.52-6.64,54.24,4.52,74.73,18.09-.54-37.82,9.51-63.35,30.35-77.49,22.37-15.18,51-11.85,74.38-4.45-8.6-32.48-5.32-56.77,9.82-73.66,19.49-21.74,52.7-22.36,77.84-18.82-9.48-39.23-5.5-69.31,11.93-89.66,30-35,85.9-24,88.28-23.52a18.55,18.55,0,0,1,11.42,7.48c6.46,9.18,13.69,19.46-66.93,136.76a18.43,18.43,0,0,1-4.25,7,19.41,19.41,0,0,1-1.57,1.44c-8.42,12.16-17.73,25.39-28,39.81-110.67,155.21-230.59,196.75-311.7,204.27C1379.28,2206.45,1368.75,2206.89,1358.68,2206.89Zm-85.82-49.73a290.25,290.25,0,0,0,66.78,12.08c-9.16-18.26-22-35.77-33.94-37C1296.72,2131.27,1285.12,2140.19,1272.86,2157.16Zm167.7-43.91a33.69,33.69,0,0,0-8,.93c-19.72,4.79-32.91,28.83-41.47,54a317,317,0,0,0,102.63-29.11C1479.5,2126.81,1459.06,2113.25,1440.56,2113.25Zm126-68.12c-6.5,0-12.33,1.25-16.8,4.3-12.1,8.24-16.52,31.1-12.9,65.32a443.36,443.36,0,0,0,71.35-58.94C1595.23,2050.13,1579.55,2045.13,1566.56,2045.13Zm101.7-88c-11.61,0-22.08,2.14-27.52,8.22-3.79,4.24-9.9,17.11,2.24,51.88q14.65-17.79,28.79-37.6,7.86-11,14.89-21A127.55,127.55,0,0,0,1668.26,1957.18Zm92.79-113.29c-11.06.9-23,4.15-30,12.46-7.87,9.26-9.9,25.26-6.19,46.47C1743.91,1874,1754.82,1855.5,1761.05,1843.89Z" transform="translate(-719.32 -797.6)"/><path class="cls-3" d="M1203.41,2152.87a18.78,18.78,0,0,1-6-1,18.51,18.51,0,0,1-11.5-23.52c22.5-65.58,46.46-96.21,75.34-96.21l1,0c40.16,1,60.42,64,64.07,76.62a18.5,18.5,0,1,1-35.54,10.3c-7.8-26.7-22.7-49.77-29.44-49.92h0c-.19,0-16.56,1.65-40.42,71.21A18.53,18.53,0,0,1,1203.41,2152.87Z" transform="translate(-719.32 -797.6)"/><path class="cls-3" d="M1268,2070.32a18.51,18.51,0,0,1-18.43-17.1c-1.92-24.68-9.39-51.53-15.76-57.31-3.24,1.57-15.38,9.74-36.34,49.82a18.51,18.51,0,0,1-32.8-17.15c18.69-35.76,44.35-75.94,76.49-69.32,35.17,7.24,43.41,66.16,45.31,91.15a18.51,18.51,0,0,1-17,19.86C1269,2070.3,1268.48,2070.32,1268,2070.32Z" transform="translate(-719.32 -797.6)"/><path class="cls-3" d="M1277.65,2076a18.74,18.74,0,0,1-3.7-.38,18.5,18.5,0,0,1-14.45-21.82c14-68.81,12.74-130.33,2.36-137.36,0,.08-5.74-.39-20.11,11.06a18.5,18.5,0,1,1-23.06-28.93c24.44-19.51,45.47-24.12,62.49-13.7,40.49,24.79,23.69,131.56,14.59,176.31A18.53,18.53,0,0,1,1277.65,2076Z" transform="translate(-719.32 -797.6)"/><ellipse class="cls-3" cx="1379.11" cy="1343.08" rx="90.21" ry="39.32" transform="translate(-1132.24 1248.65) rotate(-65.67)"/><ellipse class="cls-3" cx="184.99" cy="465.68" rx="31.76" ry="72.86"/><path class="cls-3" d="M1420.75,1190.42c2-.18,4.23-1.63,6.37-2.53s4.35-1.92,6.57-2.76a110.25,110.25,0,0,1,13.72-4.28,98.12,98.12,0,0,1,29.54-2.53,78.13,78.13,0,0,1,31,8.68,69.56,69.56,0,0,1,14.23,10,71.76,71.76,0,0,1,11.33,13.63,78.23,78.23,0,0,1,7.32,15.66,84.66,84.66,0,0,1,3.49,16.11,97.93,97.93,0,0,1-1.55,30.61c-4.16,19.33-12.31,36.69-24.88,51.53-2.28-19.31-2.32-37-4.16-53.31-1.68-16.29-5.12-30.74-11.55-40.93a48,48,0,0,0-12.4-13.41,84.23,84.23,0,0,0-18.81-10.24,220.08,220.08,0,0,0-23.68-7.75l-13-3.56-6.79-1.94-3.47-1.17C1422.94,1191.8,1421.44,1191.63,1420.75,1190.42Z" transform="translate(-719.32 -797.6)"/><path class="cls-3" d="M2075.35,1188.11c-7.21-.85-14.71-3.39-20.74-8.73s-9.77-12.9-12.32-20.07-4.24-14.41-6.83-20.16c-2.41-6-6-9.17-9.71-10.43a47.23,47.23,0,0,0-8-1.12c-3.24-.24-6.69-.29-10.19-.39-7-.16-14.55-.15-22.08-.61-9.49-.27-20.88,5.33-31.53,12.61s-21.15,16.43-31.3,26-20.16,19.65-30.29,29.8c-20.23,20.43-40.36,41.48-64.17,60.92l6.73-14.18v.42a17.88,17.88,0,0,1-6.71,13.79c-9.5,7.55-19.55,14.86-32.16,20.83a65.77,65.77,0,0,1-22.25,6.18,45.26,45.26,0,0,1-13.84-1,40.93,40.93,0,0,1-13.26-5.88,53.21,53.21,0,0,1-16.25-18.19,72.25,72.25,0,0,1-7.35-20.22c-2.7-13.29-2.75-25.82-1.78-37.95,2-24.23,7.89-47,15.24-69,3.7-11,7.87-21.79,12.61-32.34s9.41-21.15,16.27-30.53c-2,5.32-3,11-4.16,16.54s-2.3,11.13-3.27,16.72c-2,11.18-3.76,22.32-5.3,33.43-3,22.2-5,44.5-4.23,65.75.55,10.55,1.68,20.94,4.55,29.72,2.71,8.93,7.17,15.33,12,17.82,1.72.87,2.73,1,5.45.65a37.06,37.06,0,0,0,10.18-3.74c7.86-4,16.2-10.35,24.3-17.12l-6.72,14.17v0a18,18,0,0,1,6.41-13.92l.32-.27c20.87-17.5,40.91-38.36,62.21-58.27,10.58-10.09,21.58-20,33.14-29.56s23.85-18.72,37.89-26.4a114.41,114.41,0,0,1,22.85-9.72c8.28-2.37,17.68-3.7,27.38-2.12,6.83,1.39,13.71,2.32,21.16,3.51,3.7.58,7.46,1.3,11.37,2.2a55.13,55.13,0,0,1,12.9,4.39,29.3,29.3,0,0,1,6.27,4.67,29.86,29.86,0,0,1,4.78,5.81,39.45,39.45,0,0,1,5,12.5c1.74,8.09,2,15.31,2.84,22.17s2.4,13.28,6.21,18.71C2062.61,1181.05,2068.7,1185.09,2075.35,1188.11Z" transform="translate(-719.32 -797.6)"/><path class="cls-6" d="M1959.74,1287.94c-15.4,14.3-33.86,24.89-55.56,29.7-82.16,18.27-87.48-73.42-87.62-75.87v0c35.07-28.63,76-76.19,113.58-104.55,20.58-15.59,40.2-25.35,57.31-23.08,14.53,1.94,24.61,5.69,31.92,10.59C2022.43,1177.05,2003.51,1247.37,1959.74,1287.94Z" transform="translate(-719.32 -797.6)"/><path class="cls-3" d="M1883.71,1322.55c-14.62,0-27.29-4-37.84-12-28.39-21.5-31.54-63.88-31.8-68.64l-.08-1.27,1-.85c15.77-12.88,32.47-29.35,50.14-46.78,21-20.74,42.78-42.2,63.51-57.83,23.75-18,43.14-25.66,59.15-23.57,13.94,1.87,24.73,5.46,33,11l1,.69.07,1.24c2.91,49.9-14.76,122.9-60.43,165.23h0c-16.65,15.46-35.74,25.65-56.71,30.31A97.34,97.34,0,0,1,1883.71,1322.55Zm-64.57-79.71c.59,7.11,4.81,44.84,29.75,63.72,14.1,10.68,32.52,13.6,54.75,8.64,20.11-4.46,38.41-14.25,54.4-29.09h0c44.1-40.89,61.38-111.29,58.91-160-7.48-4.71-17.25-7.83-29.83-9.52-14.65-1.91-32.82,5.45-55.47,22.61-20.48,15.43-42.1,36.77-63,57.4C1851.24,1213.72,1834.79,1230,1819.14,1242.84Z" transform="translate(-719.32 -797.6)"/><path class="cls-3" d="M1883.54,1338.58c-18,0-33.91-5.1-47.33-15.27-34.13-25.84-37.82-75-38.12-80.51,0-.34,0-.69,0-1a18.61,18.61,0,0,1,6.8-14.38c15.18-12.4,31.62-28.61,49-45.77,21.4-21.12,43.53-42.95,65.11-59.22,27.64-20.93,50.19-29.4,70.89-26.66,16.45,2.2,29.47,6.64,39.8,13.58a18.5,18.5,0,0,1,8.17,14.29c3.22,55.32-15.79,131.78-65.52,177.89h0c-18.77,17.42-40.35,28.92-64.14,34.21A114,114,0,0,1,1883.54,1338.58Zm-47.41-89.15c2,11.92,7.61,33.16,22.42,44.37,10.32,7.82,23.93,9.71,41.62,5.78,17.3-3.84,33.1-12.32,47-25.2a0,0,0,0,0,0,0c37.65-34.9,53.89-93.84,54-138.21a77.91,77.91,0,0,0-16.18-3.73c-6.91-.89-20.2,1.71-43.69,19.49-19.65,14.82-40.9,35.78-61.44,56C1864.68,1222.94,1850.2,1237.23,1836.13,1249.43Z" transform="translate(-719.32 -797.6)"/><path class="cls-3" d="M1959.74,1287.94c-15.4,14.3-33.86,24.89-55.56,29.7-82.16,18.27-87.48-73.42-87.62-75.87v0c35.07-28.63,76-76.19,113.58-104.55a346.94,346.94,0,0,1,18,46.64s-46.26,25.12-37,43.62c6.15,12.35,30.9,4.12,46.63-2.78A233.75,233.75,0,0,1,1959.74,1287.94Z" transform="translate(-719.32 -797.6)"/><path class="cls-3" d="M1564.82,875.83c-2-.07-5.09,0-7.8.13s-5.63.31-8.49.54c-5.71.4-11.49,1.16-17.25,1.92s-11.57,1.67-17.32,2.9c-5.78,1.07-11.55,2.25-17.27,3.72a445.27,445.27,0,0,0-67.8,22.18c-5.55,2.26-10.92,4.92-16.41,7.37l-8.21,3.74-8,4.17-16,8.41-15.55,9.3c-10.6,5.94-20.28,13.23-30.45,19.94-10,7-19.37,14.72-29.15,22.09,8.73-8.5,17.18-17.42,26.24-25.68,9.29-8,18.16-16.6,28.05-23.94L1374,921.19l15.22-10.61,7.64-5.3,7.91-4.91c5.3-3.22,10.51-6.66,15.93-9.72a468.5,468.5,0,0,1,67.87-32.14c5.87-2.32,11.85-4.37,17.9-6.3,6-2.09,12.14-3.73,18.27-5.5s12.38-3.25,18.75-4.53c3.17-.67,6.34-1.34,9.63-1.86s6.32-1.06,10.42-1.48h.12a18.55,18.55,0,0,1,3.73,36.92A21.52,21.52,0,0,1,1564.82,875.83Z" transform="translate(-719.32 -797.6)"/><path class="cls-6" d="M1754.86,1692.86s-60.5,194.7-114,70.5c0,0-104,216.65-155.09,46.23,0,0-97.37,176.53-162.13.74,0,0-68.47,168.7-124.45-17.42,0,0-80,161.56-125.82-23.85,0,0-83.37,157.14-117.79-30.33,0,0-82.1,128.11-116.09-45.87C839.45,1692.86,1480.89,1958.36,1754.86,1692.86Z" transform="translate(-719.32 -797.6)"/><path class="cls-3" d="M1394.22,1906.77c-1.55,0-3.12-.06-4.69-.17-26.11-2-48.61-20-67.13-53.76-14.54,22.86-36.74,47.47-64.54,46-30.23-1.42-50-31.06-63.39-63.32-16.21,21.49-40,43.9-68,40.82-24.69-2.69-44.29-23.83-59.43-64.31-16.37,20.29-39.8,40.73-66,36.65-29.6-4.56-45.68-36.32-55.26-69.75-15.37,14.27-36.29,27.2-59.16,22.87-31.24-6-52.6-40.44-65.29-105.41a18.51,18.51,0,0,1,25.24-20.65c5.49,2.27,482.45,196.34,778.4,78.12a18.53,18.53,0,0,1,15.89-9h.39a18.61,18.61,0,0,1,3.67.45c35.84-16.56,68.62-38.14,97.11-65.74a18.5,18.5,0,0,1,30.54,18.78c-8.9,28.64-41.73,122.3-90.47,124.88q-22.75,1.15-40.64-21.7c-22.38,38.37-63.14,95.21-107.23,91.78-26.09-2-42.64-23-52.93-43.5C1461.75,1875.35,1430.39,1906.77,1394.22,1906.77Zm-42.76-78.17c12.71,25.64,26.85,40,40.84,41.09,20.34,1.6,42.76-20.82,58.83-41.6A926.09,926.09,0,0,1,1351.46,1828.6Zm-124.74-12.32c17.17,43.42,31.07,45.52,32.86,45.6h.4c9.93,0,24.54-17,36.06-37.21Q1262.26,1821.5,1226.72,1816.28Zm282.92,5.94c8.43,21.24,18.11,33.46,27.44,34.2,16.48,1.17,39.45-23.74,59.21-52.91A590.63,590.63,0,0,1,1509.64,1822.22Zm-410.43-30c14.51,43.12,28.27,47.07,31.27,47.4,10.73,1.25,26.5-14.8,38.94-32.8C1145.36,1802.31,1121.87,1797.38,1099.21,1792.17ZM979.14,1760.4c12.17,47.85,25.78,51.46,27.5,51.72,9.73,1.44,26.06-15.09,38.81-33.16C1021.94,1772.83,999.73,1766.55,979.14,1760.4Zm689,15.19c5.62,8.29,10,10.89,12,10.68,7.46-.39,18.68-14,29.94-34.33A407.47,407.47,0,0,1,1668.14,1775.59Zm-802.26-52.77c11.37,36.33,23.52,41.85,27.62,42.64,9.38,1.74,23.17-8.76,34.37-21.12C902.76,1736.1,881.75,1728.66,865.88,1722.82Z" transform="translate(-719.32 -797.6)"/><path class="cls-1" d="M2774.5,3276.54c-52.69,32.76-138.27-38.3-138.27-38.3-153.55,97.84-167.52-3-167.52-3l-85.67-2.32a26.32,26.32,0,0,1-23.64-36.36c12.44-29.93,39.46-55.1,69.2-75.13l.19-.14c54.13-36.4,117.09-55.83,117.09-55.83l-4.72-50.66s-124.68,58-261.8-86.23c-59.63-62.73-65.27-166.82-52.64-264.48,16.38-127,63.75-243.06,63.75-243.06l434.86,120.28a571.65,571.65,0,0,1-54.5,158.54c-5.32,10.13-8.74,15.68-8.74,15.68,2.68-.51,5.32-.92,7.91-1.2,69.9-8.51,98.95,56.76,108.48,138.79,14.57,125.36-16.33,289.87-16.33,289.87S2827.24,3243.75,2774.5,3276.54Z" transform="translate(-719.32 -797.6)"/><g class="cls-2"><path class="cls-3" d="M2774.5,3276.54c-52.69,32.76-138.27-38.3-138.27-38.3-153.55,97.84-167.52-3-167.52-3l-85.67-2.32a26.32,26.32,0,0,1-23.64-36.36c12.44-29.93,39.46-55.1,69.2-75.13l.19-.14c54.13-36.4,117.09-55.83,117.09-55.83l-4.72-50.66s-124.68,58-261.8-86.23c-59.63-62.73-65.27-166.82-52.64-264.48,36-111.21,66.71-205.91,66.71-205.91s-63.1,365.33,89.56,374.58,333.08-277.57,333.08-277.57-40.52,35-45.24,144.66c-.18,4.72-.46,9.58-.83,14.48-.05.93-.09,1.85-.19,2.78,0,0-60.14,249.81,46.26,268.31,64,11.13,62.41-132.3,62.41-132.3,14.57,125.36-16.33,289.87-16.33,289.87S2827.24,3243.75,2774.5,3276.54Z" transform="translate(-719.32 -797.6)"/></g><path class="cls-3" d="M2731.4,2542.37a287.62,287.62,0,0,1-3.81,47.7c-1.15,7.92-2.92,15.69-4.53,23.54-1.89,7.75-3.89,15.5-6.12,23.18a397.07,397.07,0,0,1-16.36,45.15q-4.7,11.08-9.93,22c-3.68,7.34-7.17,14.2-11.69,21.95L2658.38,2696a114,114,0,0,1,37.35-1.55,87.94,87.94,0,0,1,37,13.63,103,103,0,0,1,27.33,26.61A151.45,151.45,0,0,1,2777,2766c8.7,21.3,13.69,42.9,17.08,64.35a573.93,573.93,0,0,1,6.15,64.12c1.75,42.58,0,84.78-3.59,126.7s-8.86,83.34-16.3,125.24l-2.64-13.45c3.89,6.17,6.94,11.64,10.12,17.57s6,11.8,8.75,17.89a218,218,0,0,1,13.44,38.56c3.19,13.63,5.16,28.6,2,45.05a60.05,60.05,0,0,1-30.14,41.65c-14.59,8.58-31.56,10.75-46.5,9.8-15.05-1.14-28.85-5-41.66-10a243.88,243.88,0,0,1-36.21-18q-8.55-5.12-16.72-10.76c-5.54-3.84-10.6-7.51-16.32-12.14l21.77,1.37a445.54,445.54,0,0,1-45.59,25.49c-16,7.55-32.89,14.08-51.52,17.82a122.76,122.76,0,0,1-29.54,2,78.72,78.72,0,0,1-31.24-8.38,69.33,69.33,0,0,1-25.21-22.19,75.58,75.58,0,0,1-7.87-14.35c-1.05-2.49-2-5-2.77-7.64-.38-1.33-.77-2.64-1.09-4l-.49-2.14-.23-1.17-.26-1.57,17.82,16-60-1.63-15-.41-7.5-.2-1.88,0c-.67,0-1.07,0-2.31-.11a43.23,43.23,0,0,1-6.28-.76,45,45,0,0,1-22.5-11.62,46,46,0,0,1-12.53-21.8,44.48,44.48,0,0,1,1.27-25.25c.33-.92.74-2.16,1-2.81l.9-2,1.81-4c1.35-2.58,2.62-5.22,4.08-7.71a164.13,164.13,0,0,1,19.86-27.44c14.8-16.51,31.65-30,49.12-41.84l-3.88,3.51a19.58,19.58,0,0,1,6.94-5.21l-2.87,1.58c9.55-6.25,19.19-12.33,29.11-17.73s19.9-10.63,30.06-15.38,20.42-9.27,30.83-13.43,20.68-8,32-11.62l-13,19.39-4.69-50.67,26.23,15.07c-75.15,28.56-153.63,7.59-214-32.3-15.53-9.64-29.21-21.45-43.13-32.94-12.84-12.72-26-24-38.16-39.56-2.94-3.76-5.41-7.84-8.12-11.76l-4-5.94c-1.22-2-2.25-4.15-3.39-6.23l-6.59-12.54-5.37-13c-.86-2.17-1.84-4.31-2.6-6.51l-2.09-6.64c-1.36-4.43-2.86-8.84-4.08-13.29-1.94-9-4.51-17.9-5.66-26.92-6-36-6.08-72.12-3-107.43s9.15-70.11,16.73-104.33,15.69-68.39,28.1-101.09c6.18-16.35,12.81-32.52,21-48s17.11-30.64,28.73-44.61a6.38,6.38,0,0,1,11.22,5v.11c-5.29,34.71-14.68,67.33-24.3,99.78s-20.17,64.5-28.3,97.21c-2.07,8.17-3.69,16.41-5.53,24.62-1.48,8.26-3.21,16.49-4.48,24.77s-2.7,16.53-3.63,24.83l-1.53,12.42-1.12,12.43c-3,33.12-2.7,66.34,2.59,98.17,4.94,31.88,16.44,62,34.73,86.41,9,11.69,21.88,23,33.45,34.5,12.61,10.32,25,21.09,38.73,29.56,27,17.75,56.73,30.65,87.73,36.37,15.49,2.46,31.24,4,46.78,2.6a167.3,167.3,0,0,0,23-3.16c3.83-.63,7.4-1.84,11.09-2.73l5.26-1.7,2.42-.91,1.21-.45.7-.29.69-.29a18.5,18.5,0,0,1,24.2,9.93,19.22,19.22,0,0,1,1.35,5.43l4.69,50.67a18.51,18.51,0,0,1-12.74,19.32l-.23.07c-9.34,3-19.51,6.75-29.14,10.61s-19.34,8.1-28.81,12.55-18.76,9.2-27.84,14.24-17.84,10.49-26.44,16.1l-2.86,1.58a17.73,17.73,0,0,0,6.58-5l-3.88,3.51c-15.64,10.58-30.22,22.41-42.16,35.75a127.52,127.52,0,0,0-15.32,21.08c-1.07,1.83-1.95,3.71-2.94,5.56l-1.26,2.82-.64,1.41a6.3,6.3,0,0,0-.24.72,7.43,7.43,0,0,0-.25,4.29,9,9,0,0,0,2.23,3.9,7.94,7.94,0,0,0,3.81,1.94c.33.17.78,0,1.16.15a13.1,13.1,0,0,0,1.44.07l1.88,0,7.5.2,15,.41,60,1.63,17.83,16c-.05-.29,0-.12,0,0l.07.36.21.91.55,2c.43,1.37.91,2.75,1.48,4.09a38.75,38.75,0,0,0,4.11,7.51,32.16,32.16,0,0,0,11.88,10.49c9.36,5.05,22.86,5.43,36.83,2.83,14.06-2.83,28.51-8.21,42.59-14.91a408.45,408.45,0,0,0,41.54-23.25,18.67,18.67,0,0,1,21.66,1.27l.11.1c4,3.21,9,6.91,13.69,10.15s9.73,6.48,14.71,9.47a206.14,206.14,0,0,0,30.66,15.29c10.37,4.08,20.88,6.84,30.72,7.58,9.79.53,18.65-.81,25.68-5,6.92-4,10.48-8.77,12.19-17s.84-18.53-1.74-29a181.66,181.66,0,0,0-11.19-31.93c-2.36-5.28-5-10.53-7.68-15.69s-5.76-10.47-8.51-14.84a19.08,19.08,0,0,1-2.64-13.46c7.06-39.8,12.27-80.89,15.8-121.54s5.15-81.63,3.49-122c-.92-20.16-2.52-40.2-5.86-59.7s-8.1-38.48-15.44-55.5-17.75-31.45-30.53-39.29c-12.55-8.1-28.3-9.56-45.57-6.56l-.38.07a19.78,19.78,0,0,1-20.2-29.92c3.45-5.57,7.24-12.42,10.68-18.86s7-13.2,10.23-20q9.75-20.26,18.72-41.06c3.12-6.89,6-13.9,8.84-20.9s5.82-14,8.56-21.13c5.82-14.14,11-28.53,17-43l.07-.17a6.27,6.27,0,0,1,12.07,2.38Z" transform="translate(-719.32 -797.6)"/><path class="cls-4" d="M2774.5,3276.54c-52.69,32.76-138.27-38.3-138.27-38.3-153.55,97.84-167.52-3-167.52-3l-85.67-2.32a26.32,26.32,0,0,1-23.64-36.36c8.6-20.72,24.24-39.18,42.93-55.23a277.76,277.76,0,0,1,26.27-19.9l.19-.14c3.38-1.75,60.19-30.25,100.9,20,0,0,74.34-35.53,106.49,42.28a135.63,135.63,0,0,1,5.83,17,79,79,0,0,1,2.82-11c7.77-23.74,34.61-75.32,117.32-46.59,0,0,15.73,24.33,25.45,53C2797.68,3225.56,2801.34,3259.84,2774.5,3276.54Z" transform="translate(-719.32 -797.6)"/><g class="cls-2"><path class="cls-7" d="M2774.5,3276.54c-52.69,32.76-138.27-38.3-138.27-38.3-153.55,97.84-167.52-3-167.52-3l-85.67-2.32a26.32,26.32,0,0,1-23.64-36.36c8.6-20.72,24.24-39.18,42.93-55.23,0,0-18,71.93,87.76,34.37,0,0,29.28,95.07,146.09,7.91h.05s3.14,2.4,8.6,6c25,16.42,98.91,57.73,142.77,6.38C2797.68,3225.56,2801.34,3259.84,2774.5,3276.54Z" transform="translate(-719.32 -797.6)"/><path class="cls-3" d="M2742,3287.75c-45.79,0-96.57-38.91-106-46.43-60.79,38.45-107.28,50.71-138.19,36.42-23.28-10.76-29.74-33.12-31.22-40.11l-83.66-2.25a28.83,28.83,0,0,1-25.88-39.82c8-19.31,22.69-38.21,43.61-56.18l5.94-5.1-1.88,7.6c-.06.22-5.28,22.06,7.92,34,12.75,11.55,39.23,10.65,76.57-2.61l2.45-.88.78,2.49c.09.3,9.8,30.61,38.9,40.08,27,8.77,61.79-2.47,103.31-33.43l.66-.5H2637l.71.51s3.16,2.4,8.46,5.86c21.85,14.36,96.45,57.28,139.5,6.86l2.85-3.34,1.42,4.16c13.72,40.36,8.83,69.26-14.14,83.56h0C2765.42,3285.13,2753.88,3287.75,2742,3287.75Zm-105.58-52.59,1.4,1.16c.84.7,84.81,69.51,135.36,38.1h0c20.32-12.64,24.81-37.4,13.39-73.63-46,48.42-120.89,5.43-143.11-9.17-3.33-2.18-5.8-3.91-7.25-5-42.28,31.19-78.07,42.32-106.43,33.06-26.88-8.77-38.19-33-41.22-40.89-38.49,13.31-65.16,13.57-79.26.76-10.44-9.48-11.17-23.5-10.47-31.88-17.6,16.07-30.08,32.79-37.12,49.76a23.83,23.83,0,0,0,21.39,32.91l87.79,2.36.3,2.1c0,.27,4.08,27,28.82,38.39,29.11,13.39,75.75.58,134.87-37.1Z" transform="translate(-719.32 -797.6)"/></g><g class="cls-2"><path class="cls-3" d="M1983.43,3235.65c-52.69,32.75-138.28-38.31-138.28-38.31-153.54,97.85-167.51-3.05-167.51-3.05L1592,3192a26.33,26.33,0,0,1-23.64-36.36c8.61-20.73,24.24-39.19,42.93-55.24,0,0-18,71.94,87.76,34.37,0,0,29.29,95.07,146.1,7.91h0s3.15,2.41,8.61,6c25,16.42,98.9,57.74,142.76,6.39C2006.61,3184.67,2010.26,3219,1983.43,3235.65Z" transform="translate(-719.32 -797.6)"/></g><path class="cls-3" d="M2742,3303.78c-42.63,0-86.63-28.14-106.94-43-61.15,36.82-109.52,47.43-143.92,31.54-19.6-9.05-30.78-25.21-36.39-39l-72.21-2a44.82,44.82,0,0,1-40.22-62c12.32-29.67,37.86-57.73,75.93-83.39h0a18.06,18.06,0,0,1,2.06-1.23h0c25.18-12.94,75.64-22.9,114.67,14.87,15.74-4.68,43.19-9.39,69.84,2.72q22.21,10.09,36.93,32.12a89.46,89.46,0,0,1,27.22-25.79c26.36-15.87,59.74-17,99.23-3.26a18.55,18.55,0,0,1,9.48,7.45c4.63,7.18,45,71.57,34.05,120.32a60.44,60.44,0,0,1-27.44,39C2771,3300.49,2756.59,3303.78,2742,3303.78Zm-105.77-84a18.55,18.55,0,0,1,11.83,4.26c21,17.36,82.87,57.84,116.69,36.81,5.82-3.62,9.27-8.59,10.87-15.65,5.81-25.83-14.21-67.24-25.7-86.74-25.63-7.84-46.34-7.22-61.62,1.85-22.85,13.58-28,42.89-28,43.18a18.51,18.51,0,0,1-36.09,2.06c-7.12-25.47-18.71-42.06-34.48-49.33-23.93-11-51.88,1.7-52.17,1.82a18.6,18.6,0,0,1-22.26-5.09c-29.43-36.32-69.62-19.31-77.23-15.62-31.46,21.36-52.17,43.66-61.57,66.3a7.81,7.81,0,0,0,7,10.77l85.68,2.33a18.53,18.53,0,0,1,17.83,16c.09.56,3.21,18.68,20,26.2,13.72,6.15,47.41,9.6,119.27-36.21A18.41,18.41,0,0,1,2636.23,3219.74Z" transform="translate(-719.32 -797.6)"/><path class="cls-3" d="M2468.68,3253.7a18.51,18.51,0,0,1-18.41-16.8c-6.14-66.25,66.95-109.79,70.07-111.61a18.5,18.5,0,0,1,18.71,31.93h0c-.56.33-55.89,33.54-51.93,76.26a18.51,18.51,0,0,1-16.71,20.14C2469.82,3253.67,2469.25,3253.7,2468.68,3253.7Z" transform="translate(-719.32 -797.6)"/><path class="cls-3" d="M2636.26,3256.75a18.53,18.53,0,0,1-18.38-20.84l5.37-42.31a18.51,18.51,0,1,1,36.72,4.66l-5.38,42.31A18.5,18.5,0,0,1,2636.26,3256.75Z" transform="translate(-719.32 -797.6)"/><path class="cls-3" d="M2540.35,3047.77c6.15-1,11.38-1.58,17-2.12s11-.87,16.49-1.16c11-.53,21.89-.55,32.76-.13a304.58,304.58,0,0,1,32.32,2.93,251.84,251.84,0,0,1,31.34,6.61,244.56,244.56,0,0,0-31.35,2.65,289.27,289.27,0,0,0-30.43,6.22q-15,3.87-29.42,9c-4.81,1.73-9.57,3.51-14.25,5.42s-9.5,3.95-13.39,5.91a18.75,18.75,0,1,1-11.66-35.22Z" transform="translate(-719.32 -797.6)"/><path class="cls-3" d="M2532.46,2998.44a173,173,0,0,0,16.42-7.51c5.57-2.81,11.07-5.87,16.46-9.12a257.47,257.47,0,0,0,31-21.88,191.7,191.7,0,0,0,26.61-27.4,138.94,138.94,0,0,0,19-34,143.48,143.48,0,0,1-11,38.7,206.91,206.91,0,0,1-21.05,35.31,280.16,280.16,0,0,1-27.4,31.11Q2575,3011,2567,3017.77a205.23,205.23,0,0,1-17.1,13.3l-.21.16a18.66,18.66,0,0,1-21.22-30.7A19.76,19.76,0,0,1,2532.46,2998.44Z" transform="translate(-719.32 -797.6)"/><g class="cls-2"><path class="cls-3" d="M1434.63,1250.56s50.88,37,0,124.91-97.15,78.64-97.15,78.64,106.4,13.88,152.66-74S1467,1227.43,1434.63,1250.56Z" transform="translate(-719.32 -797.6)"/></g><g class="cls-2"><path class="cls-3" d="M958.13,1227.43s0,115.65-55.51,124.91C902.62,1352.34,990.51,1389.35,958.13,1227.43Z" transform="translate(-719.32 -797.6)"/></g><path class="cls-7" d="M2757.71,2328.46a127.19,127.19,0,0,0,1.39-13.28q1.93,6.74,3.75,13.6Z" transform="translate(-719.32 -797.6)"/><path class="cls-3" d="M2766.15,2331.5l-11.39-.72.49-2.76a126.08,126.08,0,0,0,1.35-13l.88-14.44,4,13.9q2,6.75,3.76,13.66Z" transform="translate(-719.32 -797.6)"/><g class="cls-5"><path class="cls-6" d="M1351.36,1245.93s83.27-41.63,138.78,0C1490.14,1245.93,1434.63,1167.29,1351.36,1245.93Z" transform="translate(-719.32 -797.6)"/></g></svg>