<svg id="Layer_1" data-name="Layer 1" xmlns="http://www.w3.org/2000/svg" viewBox="0 0 2783.76 2611.82"><defs><style>.cls-1{fill:#85cef7;}.cls-2{opacity:0.3;}.cls-3{fill:#000072;}.cls-4{fill:#33aef2;}.cls-5{opacity:0.35;}.cls-6{opacity:0.4;}.cls-7{fill:#fff;}.cls-8{fill:#28b9e5;}</style></defs><path class="cls-1" d="M2162.8,1081.24a280.4,280.4,0,0,1-95.52,30.44c-100,12.84-189.28,41.56-252.2,116.24-80,94.92-78.92,402.08-78.92,402.08h-73.6s-90.68-533.56-302.4-527.68c-135.12,3.76-203.12,111.76-273.52,83-17.72-7.28-28.12-28-31.2-56.24-11.76-107.72,83.2-324.48,284.76-316.2,117.64,4.84,186.48,72.68,224.52,132.32,10.32,16.16,35.48,8.44,35.16-10.76-2-108.32,10.2-265.92,96.8-277,84.2-10.84,87,222,84.12,324.24-.44,16.68,19.28,25.88,31.76,14.76,73.12-65.2,250.16-199.36,382.2-106.52C2288.44,955.72,2245.6,1037,2162.8,1081.24Z" transform="translate(-703.63 -639.49)"/><g class="cls-2"><path class="cls-3" d="M2162.8,1081.24a280.4,280.4,0,0,1-95.52,30.44c-100,12.84-189.28,41.56-252.2,116.24-80,94.92-78.92,402.08-78.92,402.08h-73.6s-90.68-533.56-302.4-527.68c-135.12,3.76-203.12,111.76-273.52,83-17.72-7.28-28.12-28-31.2-56.24,4.64,14,12.92,24.68,27.28,25.48,43.44,2.44,118-155.32,322.28-122.92s204.84,306.36,272.68,313.68,38.54-146.74,186.51-219.5C2003,1057.52,2102.8,1073.64,2162.8,1081.24Z" transform="translate(-703.63 -639.49)"/></g><path class="cls-3" d="M1662.53,1647.5a17.5,17.5,0,0,1-17.23-14.56c-.22-1.33-23-133.7-71.12-263.32-42.81-115.47-114.39-252.59-213.52-249.81-64.16,1.79-112.25,28.68-154.67,52.4-44.77,25-83.43,46.66-126,29.25-38.43-15.72-52.69-74.37-36.33-149.4,28-128.37,132.86-263.5,297.24-256.69,126.47,5.2,199.54,79.2,238.56,140.37.33.52.58.9,1.68.57s1.22-1,1.21-1.58C1580,807.15,1597.57,652.46,1694.45,640c17.37-2.25,33.74,3,47.25,15.25,52.91,47.84,60,204.14,56.61,326.84a1.35,1.35,0,0,0,.92,1.48,1.31,1.31,0,0,0,1.68-.24c73.86-65.88,261-208.27,403.9-107.79,64.79,45.57,63.94,94.93,57.66,120.3-15.8,63.83-98.74,121.1-192.94,133.21-115,14.77-189.32,48.75-241.08,110.16-74.93,88.92-74.82,387.74-74.81,390.74a17.49,17.49,0,0,1-17.44,17.56h-.06a17.5,17.5,0,0,1-17.5-17.44c0-12.8-.13-314.71,83-413.41,57.84-68.62,139.06-106.35,263.38-122.33,79.33-10.19,151.12-57.15,163.43-106.9,7.34-29.64-7.41-57.65-43.82-83.26-122.33-86.06-292.84,45-360.46,105.27a36.57,36.57,0,0,1-60.89-28.32c4.36-158.32-12.49-270.43-45.09-299.91-6-5.44-12-7.44-19.31-6.5-54.73,7-84.46,101.59-81.56,259.38A36.6,36.6,0,0,1,1550,954.56c-34.55-54.14-99.11-119.64-210.49-124.22-144.1-6-236.64,114.64-261.61,229.17-13.43,61.58-2.09,102.41,15.39,109.56,25.67,10.5,51.75-2.87,95.64-27.41,43.67-24.42,98-54.81,170.78-56.83,1.32,0,2.64-.06,4-.06,221.45,0,312.38,520,316.16,542.3a17.5,17.5,0,0,1-17.27,20.43Z" transform="translate(-703.63 -639.49)"/><path class="cls-4" d="M1561.62,2648.51s-259.65,352,87.54,580.47c24.09,15.86,56.43.17,59.28-28.53,3.81-38.35,11.45-89.66,26.78-138.81,25-79.95,38.89-131.54,44.81-180.23" transform="translate(-703.63 -639.49)"/><g class="cls-2"><path class="cls-3" d="M1561.62,2648.51s-259.65,352,87.54,580.47c24.09,15.86,56.43.17,59.28-28.53,3.81-38.35,11.45-89.66,26.78-138.81,25-79.95,38.89-131.54,44.81-180.23" transform="translate(-703.63 -639.49)"/></g><path class="cls-3" d="M1670,3251.3a53.81,53.81,0,0,1-29.66-9c-103.18-67.91-164.59-153.33-182.53-253.91-32.13-180.09,85.87-342.6,90.91-349.43a16,16,0,1,1,25.75,19c-1.51,2-114.88,158.89-85.12,325,16.39,91.5,73.11,169.75,168.58,232.59a21.74,21.74,0,0,0,21.75,1.45,22.47,22.47,0,0,0,12.8-18.2c3.6-36.19,11.27-90.2,27.44-142,23.48-75.26,38.24-128.41,44.2-177.39a16,16,0,1,1,31.76,3.86c-6.25,51.4-21.38,106-45.42,183.06-15.35,49.23-22.68,100.93-26.13,135.63A54.77,54.77,0,0,1,1670,3251.3Z" transform="translate(-703.63 -639.49)"/><path class="cls-4" d="M3188.45,2107.93s289.11-105.49,281.29-260.47c-9.6-190.37-291.15,51.2-291.15,51.2s-150.93-354.33-221.11-192.34c-60.45,139.54,61.34,352.28,61.34,352.28" transform="translate(-703.63 -639.49)"/><g class="cls-5"><path class="cls-3" d="M3172.4,1880.92,3114.84,2073l-101-29.4s-5.56-9.68-13.72-26.28c-3.16-6.44-6.68-13.88-10.44-22.2,31.48-45.72,93.64-121,171.72-138.36,2.68,5.68,5,10.68,6.8,14.72S3171.52,1878.88,3172.4,1880.92Z" transform="translate(-703.63 -639.49)"/></g><g class="cls-6"><path class="cls-7" d="M3166.28,1871.48c-28.12-41.92-98.16-141.72-140.32-163-28.76-14.52-54.56,23.36-54.56,82.52,0,55.24,47.68,240.76,47.68,240.76l-14,.52c-30-61.16-95.2-216.2-47.64-326C3015.52,1572.28,3128.92,1791.76,3166.28,1871.48Z" transform="translate(-703.63 -639.49)"/></g><g class="cls-5"><path class="cls-3" d="M3244.92,2088.36c-.64.28-1.24.56-1.84.84-26.76,12.2-44.64,18.72-44.64,18.72l-66.08-19.2,50.84-202.24c3.48,7.68,5.4,12.16,5.4,12.16s5.4-4.6,14.72-12.08C3238.28,1964.08,3244.92,2040.92,3244.92,2088.36Z" transform="translate(-703.63 -639.49)"/></g><g class="cls-6"><path class="cls-7" d="M3233.08,2089.2c55.88-38.64,177.84-128.48,194-186.88,14.92-53.84,16.2-91.56-45.24-89.24-54.48,2-191.24,92.6-191.24,92.6s1.48-7.44,4-20.16c59.76-47.72,267-200.88,275.16-38C3475.6,1963.88,3313.92,2052.4,3233.08,2089.2Z" transform="translate(-703.63 -639.49)"/></g><path class="cls-3" d="M3188.45,2125.44a17.51,17.51,0,0,1-6-34c2.76-1,276.89-102.85,269.82-243.15-1.46-28.86-9.76-46.74-24.67-53.14-49.29-21.16-171.88,60.38-237.62,116.74l-18.13,15.54-9.36-22c-39.63-93-115.13-224-158.89-224.11h0c-13.39,0-23.71,17.32-30,31.86-56.24,129.8,59.3,334.58,60.47,336.64a17.5,17.5,0,0,1-30.38,17.38c-5.15-9-125.42-222-62.21-367.93,15.23-35.13,36.12-52.95,62.12-52.95h.17c72.42.22,151.62,158,181.56,224C3235.52,1830.12,3369,1732,3441.4,1763c28.22,12.12,43.63,40.23,45.82,83.55,8.37,166-280.47,273.3-292.78,277.79A17.22,17.22,0,0,1,3188.45,2125.44Z" transform="translate(-703.63 -639.49)"/><path class="cls-4" d="M3154.77,2477.68c-17.58,81.59-43.64,159.11-81.77,222.45-197.79,328.68-747,453.81-1401.38,364.75C860.54,2954.51,721.35,2321,721.35,2321s.1-.87.31-2.58c4.82-36.31,67.12-448.05,441.21-654.91,408-225.55,857.38-79.43,1202.24,383.93,208.22,279.81,479.93,419.93,604.71,117.6s208.77-266.37,208.77-266.37S3212.43,2210.12,3154.77,2477.68Z" transform="translate(-703.63 -639.49)"/><g class="cls-6"><path class="cls-7" d="M2969.81,2165c-124.77,302.33-396.48,162.21-604.7-117.6-285.73-383.91-643.23-550-989.47-467.43-71.65,17.09-142.82,44.83-212.77,83.5A814.69,814.69,0,0,0,1042.3,1745C817.44,1928.18,747,2186,727.8,2282.49c27.11-74.55,141.52-356.82,370.84-519.17,38.25,2.92,88.4-4.5,140.48-22.88,74.61-26.32,132.08-67.64,150.55-104.23,341.84-74.86,693.56,91.9,975.45,470.63,208.2,279.8,481.54,412.86,622.94,117.92,94.16-196.38,152.63-290.79,177.15-327.22C3136.82,1900.43,3065.24,1933.77,2969.81,2165Z" transform="translate(-703.63 -639.49)"/></g><path class="cls-7" d="M3154.77,2477.68c-17.58,81.59-43.64,159.11-81.77,222.45-197.79,328.68-747,453.81-1401.38,364.75C860.54,2954.51,721.35,2321,721.35,2321s.1-.87.31-2.58c60.42-32.42,211.27,216.16,613,171.55,124.82-13.86,381.74-121,381.74-121S2856.9,3066,3154.77,2477.68Z" transform="translate(-703.63 -639.49)"/><g class="cls-2"><path class="cls-3" d="M3074.44,2697.68c-.48.8-1,1.64-1.44,2.44-197.8,328.68-747,453.8-1401.4,364.76C860.52,2954.52,721.36,2321,721.36,2321s.08-.88.32-2.6a24.55,24.55,0,0,1,9.88-2.84c9.4-.76,18.44,3.8,24.32,11.16,155.4,193.12,335.28,441.2,868.32,573.24,160.11,39.65,304.17,62.43,433.74,71.89,61.54,4.49,100.08-65,63.68-114.81-97.13-133-80.14-311.84-80.14-311.84l307.16,87.2c20,44.8,34.6,96.2,54.4,177.56,12.16,50,32,98,48.48,132.8a38.46,38.46,0,0,1,3.6,13.4c286.72-49.2,464.28-177.12,571.44-293.92C3050.84,2635.76,3092.8,2666.8,3074.44,2697.68Z" transform="translate(-703.63 -639.49)"/></g><path class="cls-3" d="M2143.3,3039.11c-200,0-395.21-27.42-582-81.85-252-73.44-450.28-233.93-572.25-355.64-132-131.71-203.54-244.43-206.52-249.16a16,16,0,1,1,27.07-17.05c.72,1.13,73,114.92,202.65,244.16,119.22,118.84,312.81,275.51,558,347,415.35,121.05,893.15,103.87,1310.85-47.15a16,16,0,1,1,10.88,30.09c-193.24,69.87-407.09,113.36-618.45,125.78Q2208.15,3039.1,2143.3,3039.11Z" transform="translate(-703.63 -639.49)"/><path class="cls-3" d="M2337.57,2933.37c-210.77,0-412.17-33.34-577.49-96.52C1390.35,2695.53,1239.24,2513.1,1233,2505.4a16,16,0,0,1,24.84-20.18c2,2.48,153.39,184,513.68,321.73,408.81,156.26,992.7,103.24,1241.63-48.55a16,16,0,1,1,16.66,27.32c-123.77,75.48-335.14,129.18-565.39,143.66Q2400.65,2933.39,2337.57,2933.37Z" transform="translate(-703.63 -639.49)"/><path class="cls-3" d="M2599.24,2803.92c-213.47,0-458.68-42.43-610.35-105.65-368.12-153.41-419.2-266.69-421.19-271.44a16,16,0,0,1,29.41-12.59c1,2,54.08,108.63,404.09,254.5,287.2,119.7,949,175.84,1099.5-62a16,16,0,1,1,27,17.12c-73.4,116-260.88,179.92-527.9,180Z" transform="translate(-703.63 -639.49)"/><path class="cls-3" d="M1334.64,2506a16,16,0,0,1-1.74-31.9c121.13-13.45,374.79-118.77,377.34-119.84a16,16,0,0,1,12.31,29.54c-10.57,4.41-260.47,108.15-386.12,122.11C1335.83,2505.92,1335.23,2506,1334.64,2506Z" transform="translate(-703.63 -639.49)"/><path class="cls-3" d="M1239.16,2511.38c-217.58,0-349.76-87-432.88-141.67-33.82-22.25-65.74-43.29-77-37.21a16,16,0,0,1-15.13-28.2c28.07-15.07,60.58,6.32,109.77,38.68,91.24,60,243.95,160.52,509,131.07a16,16,0,0,1,3.53,31.81A882.36,882.36,0,0,1,1239.16,2511.38Z" transform="translate(-703.63 -639.49)"/><path class="cls-3" d="M2065.69,3110.21c-126.22,0-259.14-9.3-396.44-28-187.32-25.49-354.6-81-497.18-165.06C1057.74,2849.78,959,2764.07,878.6,2662.4c-137.11-173.34-172.89-331-174.35-337.65l-.62-2.84L704,2319c.52-4.61,13.51-114.53,75.34-252.73,57.15-127.72,168.61-303.93,375.12-418.11,414.94-229.43,872.78-84.09,1224.73,388.8,140.72,189.1,293.42,293.4,408.54,279.05,70.57-8.81,126.4-61.86,165.95-157.69,80.33-194.65,146.55-255.64,188-272.52,25.09-10.23,41-4.5,43.89-3.25l9.4,4,1.1,10.17c2.38,21.89,56.34,539.32-108,812.39-98,162.86-284.8,282.84-540.2,347C2404.52,3092.12,2241.63,3110.21,2065.69,3110.21ZM739.12,2320c5.46,21.86,45.13,167.2,168,322,122.25,154,354.52,349.38,766.83,405.49,324.31,44.14,623.53,35.37,865.31-25.35,246.23-61.83,425.61-176.32,518.74-331.08,142.79-237.29,112.35-685.88,104.64-775-24,6.11-89,43.23-176.66,255.57-44.71,108.33-110,168.58-194,179.07-127.74,16-292.6-93.54-440.95-292.88-340.52-457.54-781.54-599.25-1179.72-379.07C973.74,1788.07,866.72,1957,811.74,2079.48,757.31,2200.73,741.62,2301.78,739.12,2320Z" transform="translate(-703.63 -639.49)"/><path class="cls-4" d="M2041.47,2505.21s-41.35,435.42,374,452.53c28.82,1.19,48.46-28.91,36.12-55-16.48-34.83-36.36-82.76-48.52-132.79-19.78-81.38-34.39-132.78-54.39-177.57" transform="translate(-703.63 -639.49)"/><g class="cls-6"><path class="cls-7" d="M2415.4,2957.76c-277-11.44-350.84-209-369.28-339.32,34.32,121.24,124.16,259.56,354.64,269.08a38,38,0,0,0,35.08-19.92c5.32,12.72,10.68,24.56,15.68,35.16C2463.88,2928.84,2444.24,2958.92,2415.4,2957.76Z" transform="translate(-703.63 -639.49)"/></g><path class="cls-3" d="M2046.78,2505.72c6.61,22.2,9.13,43.81,11.24,65.44,2.45,21.58,4.41,43.16,7.65,64.6a422.65,422.65,0,0,0,14.91,63.09,456.69,456.69,0,0,0,24.19,59.73c19.5,38.06,45,73.06,77.45,100.49,15.77,14.24,33.8,25.64,52.06,36.46l14.3,7.1c4.82,2.27,9.4,5,14.47,6.77l14.88,5.91,7.45,3,7.68,2.35c10.3,3,20.36,6.72,31,8.66,10.54,2.2,20.91,5.1,31.69,6.28l16,2.33,8,1.16,8.11.6,16.22,1.21,8.12.61,4,.28c.83-.06,1.65-.08,2.48-.08a21.69,21.69,0,0,0,16.29-9.27,22.17,22.17,0,0,0,3.53-18.61,8.28,8.28,0,0,0-.74-2.34l-.45-1.17a11.42,11.42,0,0,0-.63-1.5l-3.6-7.73-7-15.57q-6.83-15.64-13-31.58a666.12,666.12,0,0,1-21.69-65.12c-1.54-5.5-2.93-11.19-4.3-16.66l-4-16.21-8.18-32.29c-2.79-10.73-5.65-21.42-8.67-32s-6.83-21-10.43-31.3a301.37,301.37,0,0,1-9.15-31.44c-2.3-10.76-3.89-21.76-2.9-34.28v-.07a6,6,0,0,1,9.74-4.28c10.07,7.89,16.85,17.62,22.31,27.81a171.8,171.8,0,0,1,12.55,31.94l17.51,65.59,8.29,32.66,4,16.33c1.34,5.36,2.61,10.53,4.08,15.78a630.5,630.5,0,0,0,20.65,62q5.94,15.29,12.53,30.36l6.73,15,3.47,7.45c.26.52.63,1.41,1,2.36l1.08,2.73a31.66,31.66,0,0,1,1.77,5.62c4.22,15.39.66,32.4-8.44,45.11-8.88,13-24.27,21.59-40.1,22.65l-5.89.14-4.38-.3-8.59-.64-17.19-1.28-8.6-.65-8.56-1.22-17.12-2.49c-11.46-1.29-22.69-4.35-34-6.74-11.38-2.13-22.37-6.13-33.51-9.38l-8.33-2.56-8.13-3.22-16.25-6.46c-5.5-1.95-10.59-4.92-15.87-7.41l-15.69-7.83c-20.17-11.86-40-24.54-57.53-40.25-35.89-30.4-64-69-85.13-110.35a488.16,488.16,0,0,1-26.09-64.38c-6.93-22-12.21-44.47-17-67s-8-45.39-8.28-68.4c-.44-23,1.4-46.13,11.31-68.48a5.62,5.62,0,0,1,10.52.65Z" transform="translate(-703.63 -639.49)"/><path class="cls-3" d="M1804.74,2139.88c-8.14-27.09-19.56-53.47-36.21-71.76s-38-27.41-63.31-28.14c-12.63-.55-24.75,1-35.44,4.91a64.8,64.8,0,0,0-27.71,19.81c-15.6,18.53-24,46.73-27.86,74.44l-.07.49a6.72,6.72,0,0,1-13.22.55,126.87,126.87,0,0,1-2.91-23.5,143,143,0,0,1,1-23.79c1.94-15.92,6.72-32.28,16-47.2a95.06,95.06,0,0,1,17.13-20.56,99.1,99.1,0,0,1,22.82-14.9,112.47,112.47,0,0,1,25.49-8,136.09,136.09,0,0,1,25.64-2c16.9.28,34.74,3.39,50.85,11.57,16.27,7.73,29.91,20.44,39.71,34.53A129,129,0,0,1,1816,2092c3.2,15.86,4.4,31.39,2.12,47.46a6.76,6.76,0,0,1-13.16,1Z" transform="translate(-703.63 -639.49)"/><path class="cls-8" d="M1697.11,2279.66S1673,2449.58,1850,2434" transform="translate(-703.63 -639.49)"/><path class="cls-3" d="M1827.85,2437.5c-43.13,0-76.55-12.23-99.54-36.49-43.82-46.2-33.79-121-33.68-121.7l4.95.71c-.1.72-9.78,73.14,32.37,117.58,25.73,27.11,65.38,38.51,117.83,33.9l.44,5Q1838.64,2437.5,1827.85,2437.5Z" transform="translate(-703.63 -639.49)"/><path class="cls-3" d="M1699.75,2280c8.61,21.69,12.76,40.89,18.18,59.33,2.63,9.16,5.28,18.17,9,26.64a74.4,74.4,0,0,0,15.25,22.58,76.1,76.1,0,0,0,22.08,15.38,141.64,141.64,0,0,0,25.92,9.34c9,2.81,18.59,4.25,28.36,6.72a115.19,115.19,0,0,1,15.09,4.41,80.92,80.92,0,0,1,16.09,6.89l.15.09a3.12,3.12,0,0,1,.31,5.22c-20.49,15.3-44.8,15.23-68.22,10.65-5.9-1-11.67-3.17-17.43-5.08-5.62-2.48-11.34-4.76-16.59-8.13a125.92,125.92,0,0,1-29-23.19,158.84,158.84,0,0,1-21.63-29.74,119.35,119.35,0,0,1-13-33.54c-4.62-23.21-3.13-47.44,10.13-68.32a2.91,2.91,0,0,1,4-.9,2.82,2.82,0,0,1,1.15,1.39Z" transform="translate(-703.63 -639.49)"/><g class="cls-6"><path class="cls-7" d="M1181.93,986.11c-26.08,13.53-51.61-18.47-33-41.17,24.18-29.44,55.33-58,91.84-70.83,49-17.29,98.28-20.26,140.37-13.34,29,4.76,30,46.23,1.35,52.73-35.11,8-76.5,18.71-115,32.12C1249.81,951.77,1215.5,968.7,1181.93,986.11Z" transform="translate(-703.63 -639.49)"/></g><g class="cls-6"><path class="cls-7" d="M1929.77,997.84c-12.6,2.56-21.12-12.3-12.78-22.09,20.56-24.15,67.21-60.46,166.41-72.18,53.46-6.31,81.83,10.38,101.25,30.32,12.22,12.56.78,33.52-16.33,29.7-26.86-6-62.57-9.78-101.89-2.69C2041.49,965.39,1969.8,989.7,1929.77,997.84Z" transform="translate(-703.63 -639.49)"/></g><g class="cls-6"><path class="cls-7" d="M1671.1,750.62c-5.2,5.3-13.95,0-11.57-7,6.61-19.49,17.66-40.52,35-43.38,19.88-3.29,27.14,22.39,29.76,43.63a7,7,0,0,1-12,5.53c-4.78-5-10.79-9.22-18-10.33C1686.45,737.82,1678.23,743.36,1671.1,750.62Z" transform="translate(-703.63 -639.49)"/></g><g class="cls-6"><path class="cls-7" d="M1725.39,1031.12c2.75-10.7,17.2-12.09,22.31-2.29,5.73,11,15.33,20.77,31.39,21,16.79.28,32.83-6.31,45.34-13.59,9.56-5.57,21,4,17.19,14.4-7.33,19.93-21.24,42.69-47.24,49-48.92,11.92-66-15-70.63-37.61C1721.66,1051.76,1722.89,1040.9,1725.39,1031.12Z" transform="translate(-703.63 -639.49)"/></g></svg>